<?xml version="1.0" encoding="iso-8859-1"?>
<!-- Generator: Adobe Illustrator 19.0.0, SVG Export Plug-In . SVG Version: 6.00 Build 0)  -->
<svg version="1.1" id="Layer_1" xmlns="http://www.w3.org/2000/svg" xmlns:xlink="http://www.w3.org/1999/xlink" x="0px" y="0px"
	 viewBox="0 0 512 512" style="enable-background:new 0 0 512 512;" xml:space="preserve">
<circle style="fill:#FFEDB5;" cx="256" cy="256" r="256"/>
<path style="fill:#FEE187;" d="M512,256c0-4.048-0.105-8.07-0.291-12.071L373.226,105.446l-52.184,34.442l-34.442-34.442
	l-15.924,17.813v49.867l-0.262,0.172l-67.855-67.853l-21.835,14.365v73.84H96.827l-39.938,13.702l123.835,123.835l-41.95,71.918
	l108.739,108.739c2.819,0.091,5.646,0.155,8.487,0.155C397.384,512,512,397.384,512,256z"/>
<g>
	<path style="fill:#8BC180;" d="M170.753,188.68l-14.939-10.195c-14.491-9.888-33.411-10.44-48.454-1.414l-50.471,30.282
		l51.276-10.256c14.915-2.982,30.336,1.686,41.091,12.441l16.032,12.845L170.753,188.68z"/>
	<path style="fill:#8BC180;" d="M341.333,214.656l12.893-8.797c12.505-8.533,28.832-9.009,41.815-1.221l43.554,26.133l-44.251-8.851
		c-12.872-2.574-26.177,1.455-35.461,10.736l-13.836,11.085L341.333,214.656z"/>
	<path style="fill:#8BC180;" d="M286.599,105.446c0,0-22.383,45.761,0,98.335h-63.785c22.383-52.574,0-98.335,0-98.335H286.599z"/>
</g>
<path style="fill:#6CAF5F;" d="M286.599,105.446H252.84v98.335h33.759C264.216,151.207,286.599,105.446,286.599,105.446z"/>
<path style="fill:#8BC180;" d="M286.599,305.078c0,0-22.383,45.454,0,98.028h-63.785c22.383-52.574,0-98.028,0-98.028H286.599z"/>
<path style="fill:#6CAF5F;" d="M286.599,203.779c0,0-22.383,48.724,0,101.298h-63.785c22.383-52.574,0-101.298,0-101.298
	L286.599,203.779L286.599,203.779z"/>
<g>
	<path style="fill:#477F3C;" d="M286.599,203.779H252.84v101.298h33.759C264.216,252.504,286.599,203.779,286.599,203.779z"/>
	<path style="fill:#477F3C;" d="M202.559,105.446h-63.785c0,0,22.383,45.761,0,98.335c0,0,22.383,48.724,0,101.298
		c0,0,22.383,45.454,0,98.028h63.785c-22.383-52.574,0-98.028,0-98.028c-22.383-52.574,0-101.298,0-101.298
		C180.176,151.207,202.559,105.446,202.559,105.446z"/>
</g>
<g>
	<path style="fill:#2E5E24;" d="M202.559,105.446h-31.604v297.66h31.604c-22.383-52.574,0-98.028,0-98.028
		c-22.383-52.574,0-101.298,0-101.298C180.176,151.207,202.559,105.446,202.559,105.446z"/>
	<path style="fill:#2E5E24;" d="M202.559,203.779c0,0-22.383,48.724,0,101.298h-63.785c22.383-52.574,0-101.298,0-101.298
		L202.559,203.779L202.559,203.779z"/>
</g>
<path style="fill:#193A12;" d="M202.559,203.779h-31.604v101.298h31.604C180.176,252.504,202.559,203.779,202.559,203.779z"/>
<path style="fill:#8BC180;" d="M328.447,227.468l-14.939-10.195c-14.491-9.888-33.411-10.44-48.454-1.414l-50.471,30.282
	l51.276-10.256c14.915-2.982,30.336,1.686,41.091,12.441l16.032,12.845L328.447,227.468z"/>
<path style="fill:#6CAF5F;" d="M373.226,105.446h-63.785c0,0,22.383,45.761,0,98.335c0,0,22.383,48.724,0,101.298
	c0,0,22.383,45.454,0,98.028h63.785c-22.383-52.574,0-98.028,0-98.028c-22.383-52.574,0-101.298,0-101.298
	C350.842,151.207,373.226,105.446,373.226,105.446z"/>
<g>
	<path style="fill:#477F3C;" d="M373.226,105.446H341.19v297.66h32.035c-22.383-52.574,0-98.028,0-98.028
		c-22.383-52.574,0-101.298,0-101.298C350.842,151.207,373.226,105.446,373.226,105.446z"/>
	<path style="fill:#477F3C;" d="M373.226,203.779c0,0-22.383,48.724,0,101.298h-63.785c22.383-52.574,0-101.298,0-101.298
		L373.226,203.779L373.226,203.779z"/>
</g>
<path style="fill:#2E5E24;" d="M373.226,203.779H341.19v101.298h32.035C350.842,252.504,373.226,203.779,373.226,203.779z"/>
<path style="fill:#6CAF5F;" d="M286.599,304.773H252.84v98.335h33.759C264.216,350.532,286.599,304.773,286.599,304.773z"/>
<g>
</g>
<g>
</g>
<g>
</g>
<g>
</g>
<g>
</g>
<g>
</g>
<g>
</g>
<g>
</g>
<g>
</g>
<g>
</g>
<g>
</g>
<g>
</g>
<g>
</g>
<g>
</g>
<g>
</g>
</svg>
