<?xml version="1.0" encoding="iso-8859-1"?>
<!-- Generator: Adobe Illustrator 19.0.0, SVG Export Plug-In . SVG Version: 6.00 Build 0)  -->
<svg version="1.1" id="Layer_1" xmlns="http://www.w3.org/2000/svg" xmlns:xlink="http://www.w3.org/1999/xlink" x="0px" y="0px"
	 viewBox="0 0 512 512" style="enable-background:new 0 0 512 512;" xml:space="preserve">
<circle style="fill:#FFEDB5;" cx="256" cy="256" r="256"/>
<path style="fill:#FEE187;" d="M256.272,511.997c119.139-0.124,219.222-81.63,247.644-191.924L386.282,202.237l-16.301-16.1
	l-27.715,36.038l-90.867-90.867l-24.486,10.347l-35.169-35.168l-10.25,6.52l33.63,33.63l-29.799,12.591l-64.064,17.72
	l105.574,105.574l-83.644,26.49l76.662,76.662l-78.505,11.398L256.272,511.997z"/>
<path style="fill:#B54324;" d="M328.09,300.035c33.435-31.098,11.243-89.435,11.243-89.435h-24.94c0,0,14.479,41.396-12.367,50.595
	L328.09,300.035z"/>
<path style="fill:#477F3C;" d="M373.367,232.584c9.931,0,18.367-8.126,18.18-18.058c-0.181-9.63-8.042-17.38-17.715-17.38
	c0-9.787-7.933-17.718-17.718-17.718c-8.647,0-15.836,6.197-17.396,14.389c-3.362-1.574-7.094-2.491-11.033-2.57
	c-14.988-0.305-27.662,11.862-27.944,26.85c-0.002,0.115-0.003,0.231-0.005,0.345c-0.052,7.83,6.435,14.141,14.265,14.141h59.366
	V232.584z"/>
<path style="fill:#2E5E24;" d="M373.832,197.148c0-9.787-7.933-17.718-17.718-17.718c-0.043,0-0.084,0.005-0.126,0.005v53.15h17.38
	c9.931,0,18.366-8.126,18.18-18.058C391.366,204.898,383.505,197.148,373.832,197.148z"/>
<path style="fill:#FF7F4F;" d="M335.057,339.584c0,0,13.081-40.382-22.145-73.933c-42.929-40.884-56.756-14.8-104.255-47.528
	c-27.938-19.249-14.82-61.326-14.82-61.326h-27.427c0,0-20.442,55.365,24.361,89.434c61.673,46.899,14.82,93.353,14.82,93.353
	L335.057,339.584L335.057,339.584z"/>
<path style="fill:#D35933;" d="M312.91,265.65c-23.488-22.369-38.264-24.691-54.612-27.567v101.5h76.757
	C335.057,339.582,348.138,299.199,312.91,265.65z"/>
<path style="fill:#C92F00;" d="M321.793,421.557H198.408c-43.523,0-78.807-35.283-78.807-78.807v-7.389h280.997v7.389
	C400.599,386.274,365.316,421.557,321.793,421.557z"/>
<path style="fill:#930000;" d="M258.3,335.362v86.195h63.495c43.523,0,78.807-35.283,78.807-78.807v-7.389H258.3z"/>
<path style="fill:#477F3C;" d="M142.958,186.137c-16.41,0-30.346-13.429-30.039-29.836c0.298-15.912,13.29-28.717,29.27-28.717
	c0-16.169,13.107-29.277,29.275-29.277c14.286,0,26.165,10.238,28.743,23.774c5.554-2.601,11.721-4.115,18.229-4.248
	c24.764-0.505,45.704,19.599,46.171,44.365c0.003,0.19,0.007,0.381,0.007,0.571c0.084,12.938-10.633,23.366-23.571,23.366h-98.085
	V186.137z"/>
<path style="fill:#2E5E24;" d="M264.611,162.199c-0.467-24.764-21.409-44.87-46.173-44.365c-6.508,0.133-12.674,1.646-18.229,4.248
	c-2.577-13.536-14.457-23.774-28.743-23.774c-0.174,0-0.341,0.022-0.514,0.026v87.804h70.092c12.938,0,23.655-10.43,23.571-23.368
	C264.618,162.58,264.616,162.39,264.611,162.199z"/>
<path style="fill:#6CAF5F;" d="M162.654,318.266c-13.612,0-25.172-11.14-24.917-24.75c0.247-13.198,11.024-23.823,24.281-23.823
	c0-13.414,10.873-24.286,24.286-24.286c11.852,0,21.706,8.494,23.843,19.723c4.608-2.158,9.723-3.413,15.122-3.524
	c20.542-0.419,37.914,16.258,38.302,36.802c0.003,0.159,0.005,0.315,0.007,0.474c0.071,10.731-8.821,19.384-19.554,19.384H162.654z"
	/>
<path style="fill:#477F3C;" d="M263.571,298.408c-0.388-20.544-17.76-37.221-38.302-36.802c-5.398,0.11-10.514,1.365-15.122,3.524
	c-2.138-11.23-11.991-19.723-23.843-19.723c-0.526,0-1.041,0.047-1.558,0.079v72.78h59.278c10.733,0,19.623-8.652,19.554-19.384
	C263.577,298.724,263.575,298.567,263.571,298.408z"/>
<g>
</g>
<g>
</g>
<g>
</g>
<g>
</g>
<g>
</g>
<g>
</g>
<g>
</g>
<g>
</g>
<g>
</g>
<g>
</g>
<g>
</g>
<g>
</g>
<g>
</g>
<g>
</g>
<g>
</g>
</svg>
