<?xml version="1.0" encoding="iso-8859-1"?>
<!-- Generator: Adobe Illustrator 19.0.0, SVG Export Plug-In . SVG Version: 6.00 Build 0)  -->
<svg version="1.1" id="Layer_1" xmlns="http://www.w3.org/2000/svg" xmlns:xlink="http://www.w3.org/1999/xlink" x="0px" y="0px"
	 viewBox="0 0 512 512" style="enable-background:new 0 0 512 512;" xml:space="preserve">
<circle style="fill:#A2F5F9;" cx="256" cy="256" r="256"/>
<path style="fill:#71E2EF;" d="M280.747,510.805c121.494-11.655,218.181-108.218,230.024-229.657L354.133,124.511l-26.357,9.762
	l-43.398-43.398l-25.353,41.577l0,0l-62.786,41.286l-33.951,21.835l-14.858,17.365l-62.693,73.273l89.847,89.847l-12.083,16.503
	L280.747,510.805z"/>
<path style="fill:#B54324;" d="M125.343,239.976L125.343,239.976c0-73.163,59.309-132.474,132.472-132.474h61.504
	c24.388,0,44.158,19.77,44.158,44.158l0,0c0,24.388-19.77,44.158-44.158,44.158H196.742c-17.444,0-34.173,6.93-46.508,19.265
	L125.343,239.976"/>
<path style="fill:#930000;" d="M159.315,151.416c-21.113,23.468-33.97,54.508-33.97,88.56l0,0l24.893-24.893
	c12.335-12.335,29.063-19.265,46.508-19.265h122.577c24.388,0,44.158-19.77,44.158-44.158l0,0c0-0.081-0.005-0.162-0.007-0.245
	H159.315z"/>
<path style="fill:#B54324;" d="M84.737,286.211v-14.719c0-24.388,19.77-44.158,44.158-44.158l0,0
	c24.388,0,44.158,19.77,44.158,44.158v14.719c0,0-44.158-0.447-44.158-29.439C128.895,256.772,125.326,286.211,84.737,286.211z"/>
<path style="fill:#D35933;" d="M292.926,111.145v-0.557c0-14.924-12.098-27.022-27.022-27.022h-40.781l13.79,27.579H292.926z"/>
<g>
	<path style="fill:#B54324;" d="M292.926,192.178v0.557c0,14.924-12.098,27.022-27.022,27.022h-40.781l13.79-27.579H292.926z"/>
	<path style="fill:#B54324;" d="M386.657,272.024L386.657,272.024c0,73.163-59.309,132.474-132.474,132.474h-61.504
		c-24.388,0-44.158-19.77-44.158-44.158l0,0c0-24.388,19.77-44.158,44.158-44.158h122.577c17.444,0,34.173-6.93,46.508-19.265
		L386.657,272.024"/>
</g>
<path style="fill:#930000;" d="M148.542,361.158c0.438,24.009,20.023,43.339,44.137,43.339h61.504
	c38.836,0,73.768-16.713,97.999-43.339H148.542z"/>
<path style="fill:#D35933;" d="M427.261,225.789v14.719c0,24.388-19.77,44.158-44.158,44.158l0,0
	c-24.388,0-44.158-19.77-44.158-44.158v-14.719c0,0,44.158,0.446,44.158,29.439C383.105,255.228,386.672,225.789,427.261,225.789z"
	/>
<path style="fill:#B54324;" d="M219.074,400.855v0.557c0,14.924,12.098,27.022,27.022,27.022h40.781l-13.79-27.579H219.074z"/>
<path style="fill:#D35933;" d="M219.074,319.822v-0.557c0-14.924,12.098-27.022,27.022-27.022h40.781l-13.79,27.579H219.074z"/>
<g>
</g>
<g>
</g>
<g>
</g>
<g>
</g>
<g>
</g>
<g>
</g>
<g>
</g>
<g>
</g>
<g>
</g>
<g>
</g>
<g>
</g>
<g>
</g>
<g>
</g>
<g>
</g>
<g>
</g>
</svg>
