<?xml version="1.0" encoding="iso-8859-1"?>
<!-- Generator: Adobe Illustrator 19.0.0, SVG Export Plug-In . SVG Version: 6.00 Build 0)  -->
<svg version="1.1" id="Layer_1" xmlns="http://www.w3.org/2000/svg" xmlns:xlink="http://www.w3.org/1999/xlink" x="0px" y="0px"
	 viewBox="0 0 512 512" style="enable-background:new 0 0 512 512;" xml:space="preserve">
<circle style="fill:#FFEDB5;" cx="256" cy="256" r="256"/>
<path style="fill:#FEE187;" d="M510.409,284.534L366.302,140.429l-2.948,2.201l-40.413-40.414l-31.315,29.122l-43.518,27.391
	l-9.933,7.059l29.318,29.318l-22.557,17.232l29.765,29.765l-15.869,19.406l-60.352-60.352L176.406,215.2l-32.787,18.501
	l67.005,67.005l-36.35,11.829l19.244,19.244l-13.219,3.674l19.39,19.391l-50.622,57.677l100.817,99.4
	c2.031,0.048,4.067,0.078,6.11,0.078C387.737,512,496.216,412.488,510.409,284.534z"/>
<g>
	<path style="fill:#477F3C;" d="M223.034,323.343l-1.579-6.415c-15.996-64.99-44.811-83.539-45.101-83.718
		c-2.014-1.253-2.646-3.903-1.403-5.923c1.239-2.02,3.87-2.665,5.901-1.433c1.258,0.765,30.148,18.958,47.363,82.76
		c18.901-13.752,84.14-58.384,128.15-53.769c2.367,0.25,4.084,2.37,3.836,4.737c-0.248,2.369-2.384,4.086-4.737,3.836
		c-47.449-4.994-126.398,55.287-127.19,55.898L223.034,323.343z"/>
	<path style="fill:#477F3C;" d="M153.491,414.444c-1.617,0-3.231-0.646-4.418-1.922c-2.269-2.439-2.132-6.258,0.307-8.528
		c106.279-98.906,144.762-232.607,145.137-233.946c0.9-3.206,4.225-5.073,7.44-4.175c3.206,0.9,5.077,4.232,4.175,7.44
		c-0.386,1.37-39.803,138.328-148.532,239.516C156.438,413.91,154.964,414.444,153.491,414.444z"/>
</g>
<path style="fill:#D35933;" d="M253,149.711l-9.169-20.009c10.168-1.862,23.08-1.643,36.524,5.291
	c0.21-15.512,6.389-27.208,13.003-35.331l14.065,16.106l15.515-13.55c5.115,9.161,9.183,21.78,6.677,37.121
	c14.341-4.446,27.019-2.469,36.683,1.091l-11.059,17.568l18.685,11.762c-7.13,7.67-17.858,15.398-33.183,17.748
	c8.268,11.71,10.497,23.78,10.337,33.799l-22.116-5.949l-6.023,22.394c-8.804-4.592-18.215-12.195-24.564-24.807
	c-8.106,10.843-18.18,16.667-27.345,19.759l-2.294-22.762l-23.802,2.401c1.533-9.98,5.81-21.64,16.122-31.854
	c-13.677-4.649-22.616-13.203-28.379-21.468L253,149.711z"/>
<path style="fill:#B54324;" d="M373.931,169.76l-18.685-11.762l11.059-17.568c-9.664-3.56-22.342-5.537-36.683-1.091
	c0.047-0.284,0.074-0.56,0.117-0.841L268.1,210.008l0.645-0.066l2.295,22.762c9.164-3.093,19.239-8.916,27.345-19.759
	c6.349,12.61,15.76,20.215,24.564,24.807l6.023-22.394l22.116,5.949c0.162-10.019-2.067-22.088-10.337-33.799
	C356.073,185.158,366.799,177.43,373.931,169.76z"/>
<path style="fill:#FFFFFF;" d="M318.879,165.917c12.457,4.313,14.776,16.898,14.776,16.898s-10.735,6.942-22.418,0.834
	c-0.253,13.179-11.497,19.265-11.497,19.265s-9.918-8.064-7.72-21.063c-12.614,3.832-21.875-4.98-21.875-4.98
	s4.599-11.94,17.641-13.865c-7.542-10.812-2.029-22.357-2.029-22.357s12.766,0.698,18.627,12.505
	c7.952-10.514,20.625-8.825,20.625-8.825S328.299,156.696,318.879,165.917z"/>
<path style="fill:#D0D1D3;" d="M318.879,165.917c9.419-9.223,6.128-21.588,6.128-21.588s-0.114-0.012-0.278-0.028l-32.763,38.01
	c-1.886,12.722,7.773,20.602,7.773,20.602s11.243-6.085,11.497-19.265c11.683,6.108,22.418-0.834,22.418-0.834
	S331.336,170.232,318.879,165.917z"/>
<circle style="fill:#FF7F4F;" cx="302.942" cy="168.822" r="6.482"/>
<path style="fill:#D35933;" d="M307.517,164.274l-8.404,9.75c0.915,0.672,2.003,1.134,3.217,1.248
	c3.565,0.334,6.725-2.286,7.058-5.849C309.574,167.433,308.82,165.59,307.517,164.274z"/>
<path style="fill:#FFC61B;" d="M372.801,252.635c12.457,4.313,14.776,16.898,14.776,16.898s-10.735,6.942-22.418,0.834
	c-0.253,13.179-11.497,19.265-11.497,19.265s-9.918-8.064-7.72-21.063c-12.614,3.832-21.875-4.98-21.875-4.98
	s4.599-11.94,17.641-13.865c-7.542-10.812-2.029-22.357-2.029-22.357s12.766,0.698,18.627,12.505
	c7.952-10.514,20.625-8.825,20.625-8.825S382.221,243.412,372.801,252.635z"/>
<path style="fill:#EAA22F;" d="M372.801,252.635c9.419-9.223,6.128-21.588,6.128-21.588s-0.06-0.007-0.165-0.019l-33.152,37.623
	c0.112-0.033,0.219-0.048,0.331-0.083c-2.198,12.998,7.72,21.063,7.72,21.063s11.243-6.085,11.497-19.265
	c11.683,6.108,22.418-0.834,22.418-0.834S385.258,256.948,372.801,252.635z"/>
<circle style="fill:#FF7F4F;" cx="356.848" cy="255.535" r="6.482"/>
<path style="fill:#D35933;" d="M361.298,250.851l-8.547,9.7c0.964,0.791,2.167,1.312,3.501,1.438
	c3.565,0.334,6.725-2.286,7.058-5.849C363.503,254.078,362.691,252.173,361.298,250.851z"/>
<path style="fill:#FFC61B;" d="M192.355,222.749c12.457,4.313,14.776,16.898,14.776,16.898s-10.735,6.942-22.418,0.834
	c-0.253,13.179-11.497,19.265-11.497,19.265s-9.918-8.064-7.72-21.063c-12.614,3.832-21.875-4.98-21.875-4.98
	s4.599-11.94,17.641-13.865c-7.542-10.812-2.029-22.357-2.029-22.357s12.766,0.698,18.627,12.505
	c7.952-10.514,20.625-8.825,20.625-8.825S201.775,213.526,192.355,222.749z"/>
<path style="fill:#EAA22F;" d="M159.234,197.48c0,0-5.513,11.545,2.029,22.357c-13.041,1.926-17.641,13.865-17.641,13.865
	s9.261,8.813,21.875,4.98c-2.198,12.998,7.72,21.063,7.72,21.063s11.169-6.053,11.488-19.151l-25.436-43.113
	C159.263,197.482,159.234,197.48,159.234,197.48z"/>
<circle style="fill:#FF7F4F;" cx="176.407" cy="225.642" r="6.482"/>
<path style="fill:#D35933;" d="M172.751,220.334c-1.526,1.052-2.608,2.722-2.794,4.71c-0.334,3.565,2.286,6.725,5.849,7.058
	c1.252,0.117,2.444-0.147,3.493-0.671L172.751,220.334z"/>
<path style="fill:#FF6262;" d="M188.702,320.807l-14.426-8.271c5.432-5.61,13.465-11.147,24.774-12.791
	c-6.685-9.628-8.025-19.53-7.527-27.429l15.72,3.722l3.586-15.145c7.168,3.384,15.212,9.354,20.409,19.884
	c6.863-9.033,15.524-13.386,23.028-15.443l0.919,15.657l16.653-0.977c-1.014,7.845-4.213,17.308-12.6,25.485
	c10.226,3.567,16.898,10.006,21.201,16.236l-16.208,6.058l6.134,16.41c-7.428,1.045-16.553,0.505-25.995-4.458
	c-0.219,10.226-3.855,18.23-8.128,24.157l-11.409-12.983l-13.576,11.931c-3.441-6.808-5.935-15.853-4.082-26.66
	c-10.45,3.15-19.701,1.819-26.874-0.731L188.702,320.807z"/>
<path style="fill:#FF314F;" d="M280.44,321.733c-4.303-6.23-10.974-12.669-21.201-16.236c8.387-8.176,11.586-17.639,12.6-25.485
	l-16.653,0.977l-0.031-0.514l-48.154,55.756c0.059-0.017,0.114-0.031,0.172-0.048c-1.853,10.807,0.641,19.853,4.082,26.66
	l13.576-11.931l11.409,12.983c4.274-5.927,7.909-13.931,8.128-24.157c9.442,4.963,18.566,5.503,25.995,4.458l-6.134-16.41
	L280.44,321.733z"/>
<path style="fill:#FFFFFF;" d="M236.315,301.832c9.552-2.82,16.505,3.896,16.505,3.896s-3.55,8.983-13.414,10.359
	c5.634,8.213,1.396,16.891,1.396,16.891s-9.638-0.6-13.996-9.556c-6.07,7.896-15.632,6.547-15.632,6.547s-2.419-9.359,4.753-16.27
	c-9.385-3.332-11.069-12.85-11.069-12.85s8.152-5.179,16.943-0.495c0.269-9.956,8.801-14.484,8.801-14.484
	S238.054,292.024,236.315,301.832z"/>
<path style="fill:#D0D1D3;" d="M236.818,301.711l-24.473,28.338c2.724,0.078,9.671-0.395,14.46-6.625
	c4.358,8.956,13.996,9.556,13.996,9.556s4.237-8.68-1.396-16.891c9.864-1.377,13.414-10.361,13.414-10.361
	S246.107,299.27,236.818,301.711z"/>
<circle style="fill:#FF7F4F;" cx="227.78" cy="310.613" r="4.898"/>
<path style="fill:#D35933;" d="M231.671,307.672l-6.235,7.22c1.457,0.8,3.275,0.855,4.817-0.041c2.338-1.36,3.129-4.358,1.769-6.696
	C231.919,307.977,231.789,307.829,231.671,307.672z"/>
<g>
</g>
<g>
</g>
<g>
</g>
<g>
</g>
<g>
</g>
<g>
</g>
<g>
</g>
<g>
</g>
<g>
</g>
<g>
</g>
<g>
</g>
<g>
</g>
<g>
</g>
<g>
</g>
<g>
</g>
</svg>
