<?xml version="1.0" encoding="iso-8859-1"?>
<!-- Generator: Adobe Illustrator 19.0.0, SVG Export Plug-In . SVG Version: 6.00 Build 0)  -->
<svg version="1.1" id="Layer_1" xmlns="http://www.w3.org/2000/svg" xmlns:xlink="http://www.w3.org/1999/xlink" x="0px" y="0px"
	 viewBox="0 0 512 512" style="enable-background:new 0 0 512 512;" xml:space="preserve">
<circle style="fill:#FEE187;" cx="256" cy="256" r="256"/>
<path style="fill:#FFC61B;" d="M283.026,510.581c116.703-12.247,210.041-102.9,226.406-218.327L367.192,150.013L212.997,285.629
	l-47.502,68.505l56.461,56.461l-22.845,16.072L283.026,510.581z"/>
<rect x="199.111" y="369.778" style="fill:#930000;" width="113.778" height="56.889"/>
<rect x="255.431" y="369.778" style="fill:#720000;" width="57.458" height="56.889"/>
<path style="fill:#C92F00;" d="M113.778,227.556c0-78.546,63.676-113.778,142.222-113.778s142.222,35.231,142.222,113.778
	S334.546,398.222,256,398.222S113.778,306.102,113.778,227.556z"/>
<path style="fill:#930000;" d="M256,113.778c-0.193,0-0.381,0.007-0.574,0.009v284.425c0.191,0.002,0.383,0.01,0.574,0.01
	c78.546,0,142.222-92.12,142.222-170.667S334.548,113.778,256,113.778z"/>
<g>
	<path style="fill:#FFC61B;" d="M200.837,368.918c-2.012,0-3.924-1.183-4.761-3.15c-18.604-43.767-23.345-76.716-14.093-97.933
		c5.611-12.864,14.389-16.344,15.372-16.701c2.686-0.971,5.649,0.424,6.622,3.11c0.96,2.662-0.396,5.594-3.034,6.592
		c-0.374,0.155-5.951,2.593-9.73,11.724c-5.292,12.79-7.094,38.641,14.381,89.16c1.117,2.629-0.109,5.665-2.736,6.784
		C202.199,368.785,201.512,368.918,200.837,368.918z"/>
	<path style="fill:#FFC61B;" d="M230.629,380.985c-2.088,0-4.053-1.272-4.837-3.339c-41.26-108.711-0.579-126.595,1.174-127.304
		c2.646-1.076,5.661,0.207,6.732,2.857c1.058,2.619-0.179,5.592-2.765,6.696c-0.727,0.353-32.38,16.831,4.53,114.081
		c1.014,2.67-0.329,5.656-3,6.67C231.858,380.876,231.238,380.985,230.629,380.985z"/>
	<path style="fill:#FFC61B;" d="M168.939,339.041c-2.288,0-4.38-1.531-4.994-3.844c-18.961-71.373-1.996-85.338,1.596-87.412
		l5.172,8.956c0,0,0.109-0.043,0.286-0.181c-0.143,0.11-14.096,11.848,2.943,75.981c0.734,2.762-0.909,5.592-3.67,6.327
		C169.827,338.984,169.379,339.041,168.939,339.041z"/>
</g>
<g>
	<path style="fill:#EAA22F;" d="M311.163,368.918c-0.676,0-1.362-0.133-2.022-0.414c-2.627-1.117-3.853-4.153-2.736-6.784
		c21.475-50.519,19.673-76.371,14.381-89.16c-3.827-9.249-9.502-11.631-9.74-11.729c-2.688-0.971-4.036-3.917-3.065-6.604
		c0.971-2.686,3.974-4.06,6.665-3.093c0.983,0.355,9.761,3.837,15.372,16.701c9.252,21.218,4.511,54.167-14.093,97.933
		C315.089,367.735,313.175,368.918,311.163,368.918z"/>
	<path style="fill:#EAA22F;" d="M281.372,380.985c-0.61,0-1.229-0.109-1.833-0.338c-2.67-1.014-4.013-3.999-3-6.67
		c37.104-97.761,4.956-113.907,4.622-114.043c-2.648-1.071-3.927-4.084-2.857-6.732c1.069-2.65,4.084-3.932,6.732-2.857
		c1.753,0.709,42.432,18.592,1.174,127.304C285.425,379.713,283.46,380.985,281.372,380.985z"/>
	<path style="fill:#EAA22F;" d="M343.061,339.041c-0.44,0-0.886-0.057-1.331-0.176c-2.762-0.734-4.405-3.565-3.67-6.327
		c17.039-64.133,3.086-75.871,2.943-75.981c0.178,0.138,0.286,0.181,0.286,0.181l5.172-8.956
		c3.593,2.074,20.558,16.039,1.596,87.412C347.441,337.51,345.35,339.041,343.061,339.041z"/>
</g>
<path style="fill:#FFFFFF;" d="M334.672,262.896H177.33c-22.18,0-37.841-25.426-30.829-50.047l9.276-32.559
	c4.424-15.527,16.841-26,30.829-26h138.792c13.988,0,26.405,10.473,30.829,26l9.276,32.559
	C372.514,237.47,356.852,262.896,334.672,262.896z"/>
<path style="fill:#D0D1D3;" d="M365.501,212.849l-9.276-32.559c-4.424-15.527-16.841-26-30.829-26h-69.97v108.606h79.246
	C356.852,262.896,372.514,237.47,365.501,212.849z"/>
<circle style="fill:#FFC61B;" cx="203.421" cy="208.593" r="25.859"/>
<g>
	<circle style="fill:#59595B;" cx="203.421" cy="208.593" r="15.515"/>
	<path style="fill:#59595B;" d="M243.067,200.404c-1.062,0-2.132-0.324-3.055-1.002l-35.73-26.2l-35.73,26.2
		c-2.303,1.691-5.539,1.191-7.228-1.112c-1.689-2.303-1.191-5.541,1.112-7.228l38.788-28.444c1.822-1.336,4.296-1.336,6.118,0
		l38.788,28.444c2.303,1.688,2.801,4.925,1.112,7.228C246.227,199.671,244.658,200.404,243.067,200.404z"/>
</g>
<circle style="fill:#EAA22F;" cx="308.579" cy="208.593" r="25.859"/>
<g>
	<circle style="fill:#272525;" cx="308.579" cy="208.593" r="15.515"/>
	<path style="fill:#272525;" d="M346.502,200.404c-1.062,0-2.132-0.324-3.055-1.002l-35.73-26.2l-35.73,26.2
		c-2.303,1.691-5.539,1.191-7.228-1.112c-1.689-2.303-1.191-5.541,1.112-7.228l38.788-28.444c1.822-1.336,4.296-1.336,6.118,0
		l38.788,28.444c2.303,1.688,2.801,4.925,1.112,7.228C349.661,199.671,348.093,200.404,346.502,200.404z"/>
</g>
<path style="fill:#59595B;" d="M340.471,257.293H171.529c-8.556,0-15.515-6.959-15.515-15.515s6.959-15.515,15.515-15.515
	s15.515,6.959,15.515,15.515c0,2.857-2.315,5.172-5.172,5.172s-5.172-2.315-5.172-5.172c0-2.851-2.32-5.172-5.172-5.172
	c-2.851,0-5.172,2.32-5.172,5.172s2.32,5.172,5.172,5.172h158.599c-2.857,0-5.172-2.315-5.172-5.172
	c0-8.556,6.959-15.515,15.515-15.515c8.556,0,15.515,6.959,15.515,15.515S349.027,257.293,340.471,257.293z M330.128,246.949h10.343
	c2.851,0,5.172-2.32,5.172-5.172s-2.32-5.172-5.172-5.172s-5.172,2.32-5.172,5.172C335.3,244.634,332.986,246.949,330.128,246.949z"
	/>
<g>
	<path style="fill:#272525;" d="M340.471,226.263c-8.556,0-15.515,6.959-15.515,15.515c0,2.857,2.315,5.172,5.172,5.172
		s5.172-2.315,5.172-5.172c0-2.851,2.32-5.172,5.172-5.172s5.172,2.32,5.172,5.172s-2.32,5.172-5.172,5.172h-10.343h-74.702v10.343
		h85.045c8.556,0,15.515-6.959,15.515-15.515S349.027,226.263,340.471,226.263z"/>
	<path style="fill:#272525;" d="M265.697,232.727h-3.448c-2.857,0-5.172-2.315-5.172-5.172c0-2.857,2.315-5.172,5.172-5.172h3.448
		c2.857,0,5.172,2.315,5.172,5.172C270.869,230.412,268.555,232.727,265.697,232.727z"/>
</g>
<path style="fill:#59595B;" d="M249.751,232.727h-3.448c-2.857,0-5.172-2.315-5.172-5.172c0-2.857,2.315-5.172,5.172-5.172h3.448
	c2.857,0,5.172,2.315,5.172,5.172C254.923,230.412,252.609,232.727,249.751,232.727z"/>
<g>
</g>
<g>
</g>
<g>
</g>
<g>
</g>
<g>
</g>
<g>
</g>
<g>
</g>
<g>
</g>
<g>
</g>
<g>
</g>
<g>
</g>
<g>
</g>
<g>
</g>
<g>
</g>
<g>
</g>
</svg>
