<?xml version="1.0" encoding="iso-8859-1"?>
<!-- Generator: Adobe Illustrator 19.0.0, SVG Export Plug-In . SVG Version: 6.00 Build 0)  -->
<svg version="1.1" id="Layer_1" xmlns="http://www.w3.org/2000/svg" xmlns:xlink="http://www.w3.org/1999/xlink" x="0px" y="0px"
	 viewBox="0 0 512 512" style="enable-background:new 0 0 512 512;" xml:space="preserve">
<circle style="fill:#273B7A;" cx="256" cy="256" r="256"/>
<path style="fill:#121149;" d="M508.745,296.831L345.176,133.261l-122.101,127.91l-89.815,84.004l45.323,45.323l-44.056,40.377
	l77.317,77.317c14.345,2.494,29.096,3.806,44.154,3.806C383.486,512,489.191,418.806,508.745,296.831z"/>
<path style="fill:#FEE187;" d="M104.296,256c0-7.904,7.034-15.162,8.223-22.731c1.221-7.77-3.213-16.839-0.836-24.161
	c2.419-7.451,11.355-12.178,14.87-19.06c3.55-6.954,2.148-16.958,6.708-23.224c4.582-6.296,14.539-8.037,20.034-13.531
	c5.494-5.494,7.234-15.451,13.531-20.034c6.266-4.56,16.27-3.158,23.224-6.708c6.882-3.513,11.609-12.45,19.06-14.869
	c7.321-2.377,16.389,2.058,24.159,0.836c7.57-1.189,14.827-8.223,22.731-8.223c7.904,0,15.162,7.034,22.731,8.223
	c7.77,1.221,16.839-3.213,24.161-0.836c7.451,2.419,12.178,11.355,19.059,14.87c6.954,3.55,16.958,2.148,23.224,6.708
	c6.296,4.582,8.037,14.539,13.531,20.034c5.494,5.494,15.451,7.234,20.034,13.531c4.56,6.266,3.158,16.27,6.708,23.224
	c3.513,6.882,12.45,11.609,14.869,19.06c2.377,7.321-2.058,16.389-0.836,24.159c1.19,7.57,8.223,14.827,8.223,22.731
	c0,7.904-7.034,15.162-8.223,22.731c-1.221,7.77,3.213,16.839,0.836,24.161c-2.419,7.451-11.355,12.178-14.87,19.059
	c-3.55,6.954-2.148,16.958-6.708,23.224c-4.582,6.296-14.539,8.037-20.034,13.531s-7.233,15.451-13.531,20.034
	c-6.266,4.56-16.27,3.158-23.224,6.708c-6.882,3.513-11.609,12.45-19.06,14.869c-7.321,2.377-16.389-2.058-24.159-0.836
	c-7.57,1.19-14.827,8.223-22.731,8.223c-7.904,0-15.162-7.034-22.731-8.223c-7.77-1.221-16.839,3.213-24.161,0.836
	c-7.451-2.419-12.178-11.355-19.06-14.87c-6.954-3.55-16.958-2.148-23.224-6.708c-6.296-4.582-8.037-14.539-13.531-20.034
	s-15.451-7.233-20.034-13.531c-4.56-6.266-3.158-16.27-6.708-23.224c-3.513-6.882-12.45-11.609-14.869-19.06
	c-2.377-7.321,2.058-16.389,0.836-24.159C111.33,271.162,104.296,263.904,104.296,256z"/>
<path style="fill:#FFC61B;" d="M399.481,278.731c1.19-7.57,8.223-14.827,8.223-22.731c0-7.904-7.034-15.162-8.223-22.731
	c-1.221-7.771,3.213-16.839,0.836-24.159c-2.419-7.451-11.355-12.178-14.869-19.06c-3.55-6.954-2.148-16.958-6.708-23.224
	c-4.582-6.296-14.539-8.037-20.034-13.531s-7.233-15.451-13.531-20.034c-6.266-4.561-16.27-3.158-23.224-6.708
	c-6.882-3.513-11.609-12.45-19.06-14.869c-7.321-2.377-16.389,2.058-24.161,0.836c-7.57-1.189-14.827-8.223-22.731-8.223v303.407
	c7.904,0,15.162-7.034,22.731-8.223c7.77-1.221,16.839,3.213,24.159,0.836c7.451-2.419,12.178-11.355,19.06-14.869
	c6.954-3.551,16.958-2.148,23.224-6.708c6.296-4.582,8.037-14.539,13.531-20.034s15.451-7.233,20.034-13.531
	c4.561-6.266,3.158-16.27,6.708-23.224c3.513-6.882,12.45-11.611,14.87-19.06C402.694,295.571,398.258,286.503,399.481,278.731z"/>
<circle style="fill:#E09112;" cx="256" cy="256" r="133.137"/>
<path style="fill:#FF5419;" d="M389.144,256c0-73.533-59.611-133.144-133.144-133.144v266.288
	C329.533,389.144,389.144,329.533,389.144,256z"/>
<path style="fill:#930000;" d="M324.691,164.405L324.691,164.405c-0.002,0,21.02,48.816,13.774,86.573
	c-0.198-0.116-0.39-0.238-0.591-0.352c-22.032-12.352-49.904-4.505-62.255,17.525c-12.352,22.032-4.506,49.904,17.525,62.257
	c20.209,11.329,45.323,5.656,58.875-12.362c11.626-17.901,18.404-39.24,18.404-62.174
	C370.422,218.469,352.459,185.265,324.691,164.405z"/>
<path style="fill:#B54324;" d="M142.867,242.216L142.867,242.216c0.002,0,31.327-42.936,67.517-55.911
	c0.002,0.229-0.007,0.457-0.002,0.688c0.578,25.25,21.516,45.253,46.766,44.675c25.25-0.578,45.253-21.516,44.675-46.766
	c-0.529-23.162-18.194-41.894-40.601-44.391c-21.325-0.9-43.144,4.124-62.888,15.794
	C166.136,175.338,146.694,207.698,142.867,242.216z"/>
<path style="fill:#930000;" d="M261.223,140.51c-1.738-0.072-3.479-0.091-5.222-0.086v91.241c0.383,0,0.764,0.012,1.148,0.003
	c25.25-0.578,45.253-21.516,44.675-46.766C301.294,161.739,283.629,143.007,261.223,140.51z"/>
<path style="fill:#B54324;" d="M297.384,361.617L297.384,361.617c0-0.002-52.622-7.471-81.084-33.316
	c0.202-0.11,0.407-0.209,0.609-0.322c22.016-12.378,29.83-40.26,17.453-62.276s-40.26-29.83-62.276-17.453
	c-20.196,11.354-28.427,35.75-20.099,56.701c9.23,19.246,23.919,36.143,43.499,48.085
	C227.418,372.51,265.118,374.463,297.384,361.617z"/>
<path style="fill:#930000;" d="M297.384,361.617L297.384,361.617c0-0.002-19.625-2.796-41.384-10.85v18.996
	C270.193,369.626,284.239,366.851,297.384,361.617z"/>
<path style="fill:#A6A8AA;" d="M134.527,430.876L134.527,430.876c-5.623-4.636-6.425-12.953-1.789-18.577l83.935-101.833
	c4.636-5.623,12.953-6.425,18.577-1.789l0,0c5.623,4.636,6.425,12.953,1.789,18.577l-83.935,101.833
	C148.468,434.71,140.152,435.512,134.527,430.876z"/>
<path style="fill:#808183;" d="M235.249,308.677L235.249,308.677c5.623,4.636,6.425,12.953,1.789,18.577l-83.935,101.833
	c-4.636,5.623-12.953,6.425-18.577,1.789l0,0L235.249,308.677z"/>
<path style="fill:#FFFFFF;" d="M177.235,448.584L177.235,448.584c-7.254-0.705-12.564-7.156-11.859-14.41l12.755-131.346
	c0.705-7.254,7.156-12.564,14.41-11.859l0,0c7.254,0.705,12.564,7.156,11.859,14.41l-12.755,131.346
	C190.942,443.98,184.489,449.288,177.235,448.584z"/>
<path style="fill:#D0D1D3;" d="M192.541,290.968L192.541,290.968c7.254,0.705,12.564,7.156,11.859,14.41l-12.755,131.346
	c-0.705,7.254-7.156,12.564-14.41,11.859l0,0L192.541,290.968z"/>
<g>
</g>
<g>
</g>
<g>
</g>
<g>
</g>
<g>
</g>
<g>
</g>
<g>
</g>
<g>
</g>
<g>
</g>
<g>
</g>
<g>
</g>
<g>
</g>
<g>
</g>
<g>
</g>
<g>
</g>
</svg>
