<?xml version="1.0" encoding="iso-8859-1"?>
<!-- Generator: Adobe Illustrator 19.0.0, SVG Export Plug-In . SVG Version: 6.00 Build 0)  -->
<svg version="1.1" id="Layer_1" xmlns="http://www.w3.org/2000/svg" xmlns:xlink="http://www.w3.org/1999/xlink" x="0px" y="0px"
	 viewBox="0 0 512.002 512.002" style="enable-background:new 0 0 512.002 512.002;" xml:space="preserve">
<circle style="fill:#273B7A;" cx="256.001" cy="256" r="256"/>
<path style="fill:#121149;" d="M507.015,306.466L309.156,108.93l-2.443,156.338l-107.061-99.519l-8.009,127.174l-104.06,96.963
	L204.52,506.823c16.631,3.394,33.847,5.179,51.481,5.179C380.108,512,483.579,423.681,507.015,306.466z"/>
<path style="fill:#FFEDB5;" d="M299.95,192.614l-99.847,49.924c-3.272,1.636-5.339,4.98-5.339,8.64v75.626
	c0,5.335,4.325,9.659,9.659,9.659h199.694c5.335,0,9.659-4.325,9.659-9.659v-75.626c0-3.658-2.067-7.003-5.339-8.64l-99.847-49.924
	C305.87,191.254,302.67,191.254,299.95,192.614z"/>
<path style="fill:#FEE187;" d="M408.437,242.536l-99.847-49.923c-1.536-0.767-3.224-1.086-4.894-0.986v144.836h100.421
	c5.335,0,9.659-4.325,9.659-9.659v-75.626C413.776,247.518,411.709,244.174,408.437,242.536z"/>
<g>
	<path style="fill:#E09112;" d="M322.371,258.586h-37.926c-1.427,0-2.586-1.158-2.586-2.586s1.158-2.586,2.586-2.586h37.926
		c1.427,0,2.586,1.158,2.586,2.586S323.799,258.586,322.371,258.586z"/>
	<path style="fill:#E09112;" d="M322.371,280.135h-37.926c-1.427,0-2.586-1.158-2.586-2.586s1.158-2.586,2.586-2.586h37.926
		c1.427,0,2.586,1.158,2.586,2.586S323.799,280.135,322.371,280.135z"/>
	<path style="fill:#E09112;" d="M322.371,301.684h-37.926c-1.427,0-2.586-1.158-2.586-2.586s1.158-2.586,2.586-2.586h37.926
		c1.427,0,2.586,1.158,2.586,2.586S323.799,301.684,322.371,301.684z"/>
</g>
<g>
	<path style="fill:#FF5419;" d="M322.371,253.414h-18.675v5.172h18.675c1.427,0,2.586-1.158,2.586-2.586
		S323.799,253.414,322.371,253.414z"/>
	<path style="fill:#FF5419;" d="M322.371,274.963h-18.675v5.172h18.675c1.427,0,2.586-1.158,2.586-2.586
		S323.799,274.963,322.371,274.963z"/>
	<path style="fill:#FF5419;" d="M322.371,296.512h-18.675v5.172h18.675c1.427,0,2.586-1.158,2.586-2.586
		S323.799,296.512,322.371,296.512z"/>
</g>
<path style="fill:#FFFFFF;" d="M304.27,227.588c-3.808,0-6.896-3.088-6.896-6.896V113.778c0-3.808,3.088-6.896,6.896-6.896
	s6.896,3.088,6.896,6.896v106.915C311.166,224.501,308.078,227.588,304.27,227.588z"/>
<path style="fill:#D0D1D3;" d="M304.27,106.882c-0.197,0-0.381,0.041-0.574,0.059V227.53c0.193,0.017,0.378,0.059,0.574,0.059
	c3.808,0,6.896-3.088,6.896-6.896V113.778C311.166,109.97,308.078,106.882,304.27,106.882z"/>
<path style="fill:#FEE187;" d="M190.52,249.503l-99.847,49.924c-3.272,1.636-5.339,4.98-5.339,8.64v75.626
	c0,5.335,4.325,9.659,9.659,9.659h199.694c5.336,0,9.659-4.325,9.659-9.659v-75.626c0-3.658-2.067-7.002-5.339-8.64l-99.847-49.924
	C196.442,248.142,193.24,248.142,190.52,249.503z"/>
<path style="fill:#FFC61B;" d="M299.007,299.425l-99.847-49.923c-1.46-0.729-3.057-1.055-4.644-1.002V393.35h100.171
	c5.335,0,9.659-4.325,9.659-9.659v-75.626C304.346,304.407,302.279,301.063,299.007,299.425z"/>
<path style="fill:#FFFFFF;" d="M194.84,284.477c-3.808,0-6.896-3.087-6.896-6.896V170.667c0-3.808,3.088-6.896,6.896-6.896
	c3.808,0,6.896,3.088,6.896,6.896v106.915C201.736,281.39,198.648,284.477,194.84,284.477z"/>
<path style="fill:#D0D1D3;" d="M194.84,163.771c-0.112,0-0.215,0.028-0.326,0.033v120.641c0.11,0.005,0.214,0.033,0.326,0.033
	c3.808,0,6.896-3.087,6.896-6.896V170.667C201.736,166.859,198.648,163.771,194.84,163.771z"/>
<g>
	<path style="fill:#E09112;" d="M256.001,322.37h-37.926c-1.427,0-2.586-1.158-2.586-2.586s1.158-2.586,2.586-2.586h37.926
		c1.427,0,2.586,1.158,2.586,2.586S257.428,322.37,256.001,322.37z"/>
	<path style="fill:#E09112;" d="M256.001,343.919h-37.926c-1.427,0-2.586-1.158-2.586-2.586s1.158-2.586,2.586-2.586h37.926
		c1.427,0,2.586,1.158,2.586,2.586S257.428,343.919,256.001,343.919z"/>
	<path style="fill:#E09112;" d="M256.001,365.468h-37.926c-1.427,0-2.586-1.158-2.586-2.586s1.158-2.586,2.586-2.586h37.926
		c1.427,0,2.586,1.158,2.586,2.586S257.428,365.468,256.001,365.468z"/>
</g>
<g>
	<path style="fill:#FFC61B;" d="M379.26,258.586h-37.926c-1.427,0-2.586-1.158-2.586-2.586s1.158-2.586,2.586-2.586h37.926
		c1.427,0,2.586,1.158,2.586,2.586S380.688,258.586,379.26,258.586z"/>
	<path style="fill:#FFC61B;" d="M379.26,280.135h-37.926c-1.427,0-2.586-1.158-2.586-2.586s1.158-2.586,2.586-2.586h37.926
		c1.427,0,2.586,1.158,2.586,2.586S380.688,280.135,379.26,280.135z"/>
	<path style="fill:#FFC61B;" d="M379.26,301.684h-37.926c-1.427,0-2.586-1.158-2.586-2.586s1.158-2.586,2.586-2.586h37.926
		c1.427,0,2.586,1.158,2.586,2.586S380.688,301.684,379.26,301.684z"/>
</g>
<g>
</g>
<g>
</g>
<g>
</g>
<g>
</g>
<g>
</g>
<g>
</g>
<g>
</g>
<g>
</g>
<g>
</g>
<g>
</g>
<g>
</g>
<g>
</g>
<g>
</g>
<g>
</g>
<g>
</g>
</svg>
