<?xml version="1.0" encoding="iso-8859-1"?>
<!-- Generator: Adobe Illustrator 19.0.0, SVG Export Plug-In . SVG Version: 6.00 Build 0)  -->
<svg version="1.1" id="Layer_1" xmlns="http://www.w3.org/2000/svg" xmlns:xlink="http://www.w3.org/1999/xlink" x="0px" y="0px"
	 viewBox="0 0 512 512" style="enable-background:new 0 0 512 512;" xml:space="preserve">
<circle style="fill:#386895;" cx="256" cy="256" r="256"/>
<path style="fill:#273B7A;" d="M331.821,500.583c92.929-28.775,163.204-109.059,177.493-207.484L384.329,168.114l-229.412,43.013
	l-61.176,34.111l142.331,142.331l-11.362,5.903L331.821,500.583z"/>
<path style="fill:#FFFFFF;" d="M418.259,245.238c-2.301-9.238,1.152-20.392-2.586-28.967c-3.789-8.694-14.331-13.75-19.454-21.618
	c-5.158-7.921-5.527-19.601-11.89-26.54c-6.373-6.949-17.979-8.321-25.416-14.136c-7.408-5.792-11.533-16.732-19.849-21.256
	c-8.233-4.479-19.647-2.01-28.631-5.101c-8.826-3.038-16.293-12.033-25.707-13.596c-9.163-1.522-19.135,4.536-28.729,4.536
	c-9.594,0-19.568-6.058-28.731-4.536c-9.414,1.564-16.88,10.559-25.707,13.596c-8.983,3.091-20.396,0.624-28.631,5.103
	c-8.316,4.524-12.441,15.462-19.849,21.256c-7.435,5.815-19.042,7.189-25.416,14.136c-6.365,6.939-6.732,18.618-11.89,26.54
	c-5.123,7.868-15.665,12.924-19.453,21.618c-3.737,8.575-0.284,19.727-2.586,28.967l162.259,125.874L418.259,245.238z"/>
<path style="fill:#D0D1D3;" d="M418.259,245.238c-2.301-9.238,1.152-20.392-2.586-28.967c-3.789-8.694-14.331-13.75-19.454-21.618
	c-5.158-7.921-5.527-19.601-11.89-26.54c-6.373-6.949-17.979-8.321-25.416-14.136c-7.408-5.792-11.533-16.732-19.849-21.256
	c-8.233-4.479-19.647-2.01-28.631-5.101c-8.826-3.038-16.293-12.033-25.707-13.596c-9.163-1.522-19.135,4.536-28.731,4.536
	c-0.191,0-0.383-0.017-0.574-0.022v252.128l0.574,0.445L418.259,245.238z"/>
<circle style="fill:#D35933;" cx="256" cy="171.994" r="28.444"/>
<path style="fill:#B54324;" d="M256,143.555c-0.193,0-0.381,0.026-0.574,0.029v56.83c0.193,0.003,0.381,0.029,0.574,0.029
	c15.71,0,28.444-12.734,28.444-28.444C284.444,156.291,271.71,143.555,256,143.555z"/>
<path style="fill:#FF7F4F;" d="M363.492,287.723c-17.501-42.129-59.03-71.763-107.492-71.763s-89.993,29.634-107.492,71.763
	l95.963,74.443l-26.396,20.477c6.175,14.863,20.826,25.319,37.926,25.319s31.751-10.456,37.926-25.319l-26.396-20.477
	L363.492,287.723z"/>
<path style="fill:#D35933;" d="M363.492,287.723c-17.501-42.129-59.03-71.763-107.492-71.763c-0.193,0-0.383,0.01-0.574,0.01
	v191.971c0.193,0.003,0.381,0.022,0.574,0.022c17.099,0,31.751-10.456,37.926-25.319l-26.396-20.477L363.492,287.723z"/>
<circle style="fill:#FF5419;" cx="256" cy="356.452" r="17.239"/>
<path style="fill:#C92F00;" d="M256,339.218c-0.193,0-0.381,0.022-0.574,0.029v34.42c0.193,0.007,0.381,0.029,0.574,0.029
	c9.521,0,17.239-7.718,17.239-17.239C273.239,346.936,265.521,339.218,256,339.218z"/>
<g>
</g>
<g>
</g>
<g>
</g>
<g>
</g>
<g>
</g>
<g>
</g>
<g>
</g>
<g>
</g>
<g>
</g>
<g>
</g>
<g>
</g>
<g>
</g>
<g>
</g>
<g>
</g>
<g>
</g>
</svg>
