<?xml version="1.0" encoding="iso-8859-1"?>
<!-- Generator: Adobe Illustrator 19.0.0, SVG Export Plug-In . SVG Version: 6.00 Build 0)  -->
<svg version="1.1" id="Layer_1" xmlns="http://www.w3.org/2000/svg" xmlns:xlink="http://www.w3.org/1999/xlink" x="0px" y="0px"
	 viewBox="0 0 512 512" style="enable-background:new 0 0 512 512;" xml:space="preserve">
<circle style="fill:#FFC61B;" cx="256" cy="256" r="256"/>
<path style="fill:#EAA22F;" d="M500.098,333.336L351.187,184.425l-38.022,40.553l-58.62-58.621l-22.707,9.745l-26.157-26.157
	l-23.954,17.417l-9.463,10.902l-28.319-28.319L111.38,163.33l28.217,27.498l-28.227,6.937l153.072,152.354L99.556,398.222
	l109.459,109.459C224.247,510.507,239.949,512,256,512C370.428,512,467.311,436.919,500.098,333.336z"/>
<circle style="fill:#D35933;" cx="312.82" cy="216.126" r="49.778"/>
<path style="fill:#B54324;" d="M312.816,166.357c-0.169,0-0.334,0.01-0.502,0.012v99.53c0.167,0.002,0.333,0.012,0.502,0.012
	c27.491,0,49.778-22.287,49.778-49.778C362.594,188.644,340.308,166.357,312.816,166.357z"/>
<path style="fill:#386895;" d="M412.444,398.222c-81.598-76.714-113.778-170.667-113.778-170.667h-85.333
	c0,0-32.18,93.953-113.778,170.667H412.444z"/>
<path style="fill:#273B7A;" d="M298.667,227.556h-43.241v170.667h157.019C330.847,321.508,298.667,227.556,298.667,227.556z"/>
<path style="fill:#FFFFFF;" d="M227.556,256c29.019-18.963,27.008,24.997,56.889,28.444c22.888,2.641,27.396-15.441,28.257-24.055
	c-9.642-20.018-14.034-32.834-14.034-32.834h-85.333c0,0-7.797,22.75-25.429,54.993C198.108,278.192,208.605,268.385,227.556,256z"
	/>
<path style="fill:#D0D1D3;" d="M298.667,227.556h-43.241v33.939c6.942,9.09,13.896,21.206,29.019,22.95
	c22.888,2.641,27.396-15.441,28.257-24.055C303.059,240.371,298.667,227.556,298.667,227.556z"/>
<path style="fill:#38C6D9;" d="M431.55,306.512h-38.243c0.748-1.593,1.179-3.365,1.179-5.241c0-6.823-5.532-12.355-12.355-12.355
	h-74.128c-6.823,0-12.355,5.532-12.355,12.355s5.532,12.355,12.355,12.355h13.534c-0.748,1.593-1.179,3.365-1.179,5.241
	c0,1.588,0.31,3.1,0.855,4.492h-13.21c-6.823,0-12.355,5.532-12.355,12.355s5.532,12.355,12.355,12.355h98.838
	c6.823,0,12.355-5.532,12.355-12.355c0-1.588-0.31-3.1-0.855-4.492h13.21c6.823,0,12.355-5.532,12.355-12.355
	C443.906,312.042,438.374,306.512,431.55,306.512z"/>
<path style="fill:#02B2B2;" d="M431.55,306.51h-38.243c0.748-1.593,1.179-3.365,1.179-5.241c0-6.823-5.53-12.355-12.355-12.355
	h-25.428v59.152h50.138c6.823,0,12.355-5.532,12.355-12.355c0-1.588-0.31-3.098-0.855-4.493h13.21
	c6.823,0,12.355-5.532,12.355-12.355C443.906,312.042,438.375,306.51,431.55,306.51z"/>
<path style="fill:#38C6D9;" d="M243.645,159.818h-38.243c0.748-1.593,1.179-3.365,1.179-5.241c0-6.823-5.532-12.355-12.355-12.355
	h-74.128c-6.823,0-12.355,5.532-12.355,12.355c0,6.823,5.532,12.355,12.355,12.355h13.534c-0.748,1.593-1.179,3.365-1.179,5.241
	c0,1.588,0.31,3.1,0.855,4.493h-13.21c-6.823,0-12.355,5.532-12.355,12.355c0,6.823,5.532,12.355,12.355,12.355h98.838
	c6.823,0,12.355-5.532,12.355-12.355c0-1.588-0.31-3.098-0.855-4.492h13.21c6.823,0,12.355-5.532,12.355-12.355
	C256,165.35,250.468,159.818,243.645,159.818z"/>
<path style="fill:#02B2B2;" d="M243.645,159.818h-38.243c0.748-1.593,1.179-3.365,1.179-5.241c0-6.823-5.53-12.355-12.355-12.355
	h-21.98v59.152h46.69c6.823,0,12.355-5.532,12.355-12.355c0-1.588-0.31-3.098-0.855-4.492h13.21c6.823,0,12.355-5.532,12.355-12.355
	C256,165.35,250.47,159.818,243.645,159.818z"/>
<g>
</g>
<g>
</g>
<g>
</g>
<g>
</g>
<g>
</g>
<g>
</g>
<g>
</g>
<g>
</g>
<g>
</g>
<g>
</g>
<g>
</g>
<g>
</g>
<g>
</g>
<g>
</g>
<g>
</g>
</svg>
