<?xml version="1.0" encoding="iso-8859-1"?>
<!-- Generator: Adobe Illustrator 19.0.0, SVG Export Plug-In . SVG Version: 6.00 Build 0)  -->
<svg version="1.1" id="Layer_1" xmlns="http://www.w3.org/2000/svg" xmlns:xlink="http://www.w3.org/1999/xlink" x="0px" y="0px"
	 viewBox="0 0 512.002 512.002" style="enable-background:new 0 0 512.002 512.002;" xml:space="preserve">
<circle style="fill:#386895;" cx="256.001" cy="256" r="256"/>
<path style="fill:#273B7A;" d="M511.306,274.877L383.987,147.558l-71.17,125.873l-75.359-75.359l-54.401,136.654l-10.449,24.64
	l-48.661-48.849l-9.666,22.468l39.843,38.974l-21.947,20.07L252.751,511.96c1.083,0.014,2.163,0.041,3.25,0.041
	C391.036,512,501.642,407.447,511.306,274.877z"/>
<g>
	<path style="fill:#FFEDB5;" d="M150.737,187.142c-14.557,0-26.357,11.8-26.357,26.357v159.815c0,14.557,11.8,26.357,26.357,26.357
		h32.285V187.142H150.737z"/>
	<path style="fill:#FFEDB5;" d="M216.094,187.142h-33.071V399.67h33.071c14.557,0,26.357-11.8,26.357-26.357V213.499
		C242.451,198.942,230.651,187.142,216.094,187.142z"/>
</g>
<path style="fill:#FEE187;" d="M216.094,187.142h-33.071V399.67h33.071c14.557,0,26.357-11.8,26.357-26.357V213.499
	C242.451,198.942,230.651,187.142,216.094,187.142z"/>
<path style="fill:#B54324;" d="M180.185,229.064c-2.301,1.246-56.511,31.285-67.486,98.795c-0.534,3.289,1.698,6.389,4.989,6.925
	c3.293,0.529,6.389-1.7,6.925-4.989c8.601-52.91,47.418-81.28,58.411-88.345V227.53L180.185,229.064z"/>
<path style="fill:#930000;" d="M253.417,327.859c-10.974-67.508-65.186-97.549-67.486-98.795l-2.872-1.553l-0.036,0.019v13.921
	c0.01-0.007,0.024-0.016,0.036-0.022c10.957,7.037,49.838,35.412,58.446,88.369c0.481,2.962,3.043,5.067,5.949,5.067
	c0.322,0,0.646-0.028,0.974-0.079C251.719,334.248,253.951,331.148,253.417,327.859z"/>
<g>
	<path style="fill:#FFEDB5;" d="M300.071,139.912c-14.557,0-26.357,11.8-26.357,26.357v159.815c0,14.557,11.8,26.357,26.357,26.357
		h32.932V139.912H300.071z"/>
	<path style="fill:#FFEDB5;" d="M365.427,139.912h-32.425V352.44h32.425c14.557,0,26.357-11.8,26.357-26.357V166.271
		C391.784,151.714,379.984,139.912,365.427,139.912z"/>
</g>
<path style="fill:#FEE187;" d="M365.427,139.912h-32.425V352.44h32.425c14.557,0,26.357-11.8,26.357-26.357V166.271
	C391.784,151.714,379.984,139.912,365.427,139.912z"/>
<path style="fill:#930000;" d="M402.75,280.629c-10.974-67.506-65.186-97.549-67.486-98.795l-2.262-1.224v13.971
	c11.683,7.589,49.343,35.745,57.835,87.983c0.481,2.962,3.043,5.067,5.949,5.067c0.322,0,0.646-0.028,0.974-0.079
	C401.052,287.018,403.284,283.919,402.75,280.629z"/>
<path style="fill:#B54324;" d="M332.392,180.281l-2.872,1.553c-2.301,1.246-56.511,31.287-67.486,98.795
	c-0.534,3.289,1.698,6.389,4.989,6.925c3.296,0.529,6.389-1.7,6.925-4.989c8.611-52.976,47.519-81.353,58.454-88.374
	c0.186,0.119,0.4,0.26,0.603,0.391v-13.971L332.392,180.281z"/>
<g>
	<rect x="176.253" y="215.764" style="fill:#930000;" width="6.763" height="37.21"/>
	<rect x="183.028" y="215.764" style="fill:#930000;" width="7.549" height="37.21"/>
</g>
<rect x="183.028" y="215.764" style="fill:#6B0000;" width="7.549" height="37.21"/>
<g>
	<rect x="325.595" y="168.529" style="fill:#930000;" width="7.409" height="37.211"/>
	<rect x="333.008" y="168.529" style="fill:#930000;" width="6.896" height="37.211"/>
</g>
<rect x="333.008" y="168.529" style="fill:#6B0000;" width="6.896" height="37.211"/>
<g>
</g>
<g>
</g>
<g>
</g>
<g>
</g>
<g>
</g>
<g>
</g>
<g>
</g>
<g>
</g>
<g>
</g>
<g>
</g>
<g>
</g>
<g>
</g>
<g>
</g>
<g>
</g>
<g>
</g>
</svg>
