<?xml version="1.0" encoding="iso-8859-1"?>
<!-- Generator: Adobe Illustrator 19.0.0, SVG Export Plug-In . SVG Version: 6.00 Build 0)  -->
<svg version="1.1" id="Layer_1" xmlns="http://www.w3.org/2000/svg" xmlns:xlink="http://www.w3.org/1999/xlink" x="0px" y="0px"
	 viewBox="0 0 512 512" style="enable-background:new 0 0 512 512;" xml:space="preserve">
<circle style="fill:#386895;" cx="256" cy="256" r="256"/>
<path style="fill:#273B7A;" d="M173.573,370.629l135.785,135.785C425.129,481.866,512,379.085,512,256
	c0-4.918-0.153-9.799-0.426-14.65L384,113.778L255.51,134.03l-1.46-2.036L128,142.222l45.573,43.617L173.573,370.629
	L173.573,370.629z"/>
<path style="fill:#FFC61B;" d="M170.667,283.152c-3.808,0-6.896-3.088-6.896-6.896V134.034c0-3.808,3.088-6.896,6.896-6.896
	c3.808,0,6.896,3.088,6.896,6.896v142.222C177.562,280.064,174.475,283.152,170.667,283.152z"/>
<path style="fill:#EAA22F;" d="M341.333,283.152c-3.808,0-6.896-3.088-6.896-6.896V134.034c0-3.808,3.087-6.896,6.896-6.896
	s6.896,3.088,6.896,6.896v142.222C348.229,280.064,345.141,283.152,341.333,283.152z"/>
<circle style="fill:#FFFFFF;" cx="256" cy="292.202" r="113.778"/>
<path style="fill:#D0D1D3;" d="M369.778,292.202c0-62.742-50.785-113.614-113.49-113.771v227.542
	C318.993,405.816,369.778,354.944,369.778,292.202z"/>
<circle style="fill:#FF5419;" cx="256" cy="292.202" r="42.667"/>
<path style="fill:#C92F00;" d="M298.667,292.202c0-23.468-18.947-42.505-42.379-42.66v85.32
	C279.719,334.707,298.667,315.67,298.667,292.202z"/>
<rect x="128" y="113.778" style="fill:#E09112;" width="256" height="28.444"/>
<rect x="256.293" y="113.778" style="fill:#FF5419;" width="127.707" height="28.444"/>
<g>
</g>
<g>
</g>
<g>
</g>
<g>
</g>
<g>
</g>
<g>
</g>
<g>
</g>
<g>
</g>
<g>
</g>
<g>
</g>
<g>
</g>
<g>
</g>
<g>
</g>
<g>
</g>
<g>
</g>
</svg>
