<?xml version="1.0" encoding="iso-8859-1"?>
<!-- Generator: Adobe Illustrator 19.0.0, SVG Export Plug-In . SVG Version: 6.00 Build 0)  -->
<svg version="1.1" id="Layer_1" xmlns="http://www.w3.org/2000/svg" xmlns:xlink="http://www.w3.org/1999/xlink" x="0px" y="0px"
	 viewBox="0 0 512.002 512.002" style="enable-background:new 0 0 512.002 512.002;" xml:space="preserve">
<circle style="fill:#95EAEF;" cx="256.001" cy="256" r="256"/>
<path style="fill:#38C6D9;" d="M326.626,502.127c96.827-27.732,170.165-111.051,183.277-213.221l-55.653-55.651l-268.078,8.082
	l-1.714-1.714l-126.707-6.368L326.626,502.127z"/>
<polygon style="fill:#59595B;" points="186.403,329.871 255.427,499.233 255.427,329.871 "/>
<polygon style="fill:#272525;" points="325.598,329.871 255.427,329.871 255.427,499.233 256.415,501.657 "/>
<path style="fill:#FEE187;" d="M293.784,338.389v-19.834h-75.852v19.834l-24.997,5.53c-1.077,1.077,0,124.254,0,124.254h126.276
	V343.919L293.784,338.389z"/>
<polygon style="fill:#FFC61B;" points="319.211,343.919 293.784,338.389 293.784,318.555 255.427,318.555 255.427,468.173 
	319.211,468.173 "/>
<path style="fill:#FFEDB5;" d="M339.829,223.472c0,50.024-37.531,115.771-83.828,115.771s-83.828-65.746-83.828-115.771
	s37.531-90.577,83.828-90.577S339.829,173.447,339.829,223.472z"/>
<path style="fill:#FEE187;" d="M256.001,132.894c-0.193,0-0.381,0.014-0.574,0.016v206.308c0.193,0.002,0.381,0.026,0.574,0.026
	c46.297,0,83.828-65.746,83.828-115.771C339.829,173.447,302.298,132.894,256.001,132.894z"/>
<path style="fill:#272525;" d="M256.001,132.894c-46.297,0-83.828,40.553-83.828,90.577c0,15.975,3.843,33.549,10.561,50.079
	c16.693-16.225,25.847-41.331,29.841-54.946c10.099,8.856,25.79,14.553,43.427,14.553s33.328-5.697,43.427-14.553
	c3.994,13.615,13.148,38.719,29.841,54.946c6.718-16.529,10.561-34.102,10.561-50.079
	C339.829,173.447,302.298,132.894,256.001,132.894z"/>
<polygon style="fill:#FFFFFF;" points="186.403,329.871 280.854,395.205 229.568,461.145 "/>
<polygon style="fill:#D0D1D3;" points="325.598,329.871 205.865,411.152 263.615,489.158 "/>
<polygon style="fill:#A6A8AA;" points="325.598,329.871 255.427,377.506 255.427,478.098 263.615,489.158 "/>
<path style="fill:#386895;" d="M256.001,512c9.514,0,18.903-0.536,28.148-1.546l-97.745-180.581l-56.535,23.199l-49.071,89.564
	C126.594,485.643,188.215,512,256.001,512z"/>
<g>
	<path style="fill:#273B7A;" d="M284.149,510.454l-97.745-180.581l-34.476,14.148l89.1,167.534
		c4.956,0.286,9.945,0.446,14.972,0.446C265.515,512,274.903,511.464,284.149,510.454z"/>
	<path style="fill:#273B7A;" d="M256.001,512c68.037,0,129.867-26.55,175.718-69.846l-49.585-89.085l-56.535-23.199L224.045,510.018
		C234.514,511.321,245.178,512,256.001,512z"/>
</g>
<path style="fill:#19195B;" d="M224.045,510.018c10.469,1.303,21.133,1.982,31.956,1.982c0.803,0,1.602-0.022,2.403-0.031
	l96.901-169.91l-29.708-12.188L224.045,510.018z"/>
<path style="fill:#121149;" d="M325.598,329.871l-70.172,124.476v57.644c0.191,0,0.383,0.009,0.574,0.009
	c0.803,0,1.602-0.022,2.403-0.031l96.901-169.91L325.598,329.871z"/>
<path style="fill:#808183;" d="M369.47,237.278c-2.246-0.786-4.705,0.405-5.487,2.653c-0.279,0.8-28.812,80.048-107.984,86.73
	c-79.17-6.682-107.704-85.928-107.984-86.73c-0.783-2.248-3.244-3.437-5.487-2.653c-2.246,0.781-3.436,3.234-2.657,5.482
	c0.305,0.876,7.644,21.687,25.522,43.587c15.681,19.21,42.572,42.577,83.091,48.144l-40.895,61.342
	c-1.32,1.979-0.784,4.656,1.195,5.977c0.734,0.49,1.565,0.724,2.388,0.724c1.393,0,2.76-0.674,3.589-1.919l41.236-61.854
	l41.236,61.854c0.829,1.246,2.196,1.919,3.589,1.919c0.822,0,1.653-0.234,2.388-0.724c1.979-1.321,2.515-3.996,1.195-5.977
	l-40.895-61.342c40.52-5.566,67.412-28.934,83.091-48.143c17.879-21.901,25.217-42.712,25.522-43.587
	C372.906,240.512,371.716,238.059,369.47,237.278z"/>
<path style="fill:#59595B;" d="M369.47,237.278c-2.246-0.786-4.705,0.405-5.487,2.653c-0.279,0.8-28.812,80.048-107.984,86.73
	c-0.193-0.017-0.381-0.04-0.574-0.057v13.017l0.574-0.862l41.236,61.854c0.829,1.246,2.196,1.919,3.589,1.919
	c0.822,0,1.653-0.234,2.388-0.724c1.979-1.321,2.515-3.996,1.195-5.977l-40.895-61.342c40.52-5.566,67.412-28.934,83.091-48.144
	c17.879-21.9,25.217-42.711,25.522-43.587C372.906,240.512,371.716,238.059,369.47,237.278z"/>
<path style="fill:#D35933;" d="M256.001,101.088L454.25,233.255c0,0-184.899,112.697-396.498,0L256.001,101.088z"/>
<path style="fill:#B54324;" d="M256.001,101.088l-0.574,0.383v181.85c117.027-0.241,198.823-50.067,198.823-50.067L256.001,101.088z
	"/>
<g>
</g>
<g>
</g>
<g>
</g>
<g>
</g>
<g>
</g>
<g>
</g>
<g>
</g>
<g>
</g>
<g>
</g>
<g>
</g>
<g>
</g>
<g>
</g>
<g>
</g>
<g>
</g>
<g>
</g>
</svg>
