<?xml version="1.0" encoding="iso-8859-1"?>
<!-- Generator: Adobe Illustrator 19.0.0, SVG Export Plug-In . SVG Version: 6.00 Build 0)  -->
<svg version="1.1" id="Layer_1" xmlns="http://www.w3.org/2000/svg" xmlns:xlink="http://www.w3.org/1999/xlink" x="0px" y="0px"
	 viewBox="0 0 512.002 512.002" style="enable-background:new 0 0 512.002 512.002;" xml:space="preserve">
<circle style="fill:#71E2EF;" cx="256.001" cy="256" r="256"/>
<path style="fill:#38C6D9;" d="M258.301,299.098l149.945,162.719c44.516-32.983,77.953-80.06,93.72-134.64L292.823,118.038
	L258.301,299.098z"/>
<polygon style="fill:#59595B;" points="186.403,329.871 254.996,498.174 254.996,329.871 "/>
<polygon style="fill:#272525;" points="325.598,329.871 254.996,329.871 254.996,498.174 256.415,501.657 "/>
<path style="fill:#FEE187;" d="M293.784,338.389v-19.834h-75.852v19.834l-24.997,5.53c-1.077,1.077,0,124.254,0,124.254h126.276
	V343.919L293.784,338.389z"/>
<polygon style="fill:#FFC61B;" points="319.211,343.919 293.784,338.389 293.784,318.555 254.996,318.555 254.996,468.173 
	319.211,468.173 "/>
<path style="fill:#FFEDB5;" d="M339.829,223.472c0,50.024-37.531,115.771-83.828,115.771s-83.828-65.746-83.828-115.771
	s37.531-90.577,83.828-90.577S339.829,173.447,339.829,223.472z"/>
<path style="fill:#FEE187;" d="M256.001,132.894c-0.338,0-0.669,0.024-1.005,0.028v206.277c0.336,0.007,0.667,0.045,1.005,0.045
	c46.297,0,83.828-65.746,83.828-115.771C339.829,173.447,302.298,132.894,256.001,132.894z"/>
<ellipse style="fill:#59595B;" cx="256.001" cy="138.774" rx="46.804" ry="33.616"/>
<path style="fill:#3A3838;" d="M256.001,105.158c-0.338,0-0.669,0.014-1.005,0.019v67.196c0.336,0.005,0.667,0.019,1.005,0.019
	c25.85,0,46.804-15.05,46.804-33.616S281.851,105.158,256.001,105.158z"/>
<path style="fill:#302E2E;" d="M256.001,132.894c-46.297,0-83.828,40.553-83.828,90.577c0,15.975,3.843,33.549,10.561,50.079
	c16.693-16.225,25.847-41.331,29.841-54.946c10.099,8.856,25.79,14.553,43.427,14.553s33.328-5.697,43.427-14.553
	c3.994,13.615,13.148,38.719,29.841,54.946c6.718-16.529,10.561-34.102,10.561-50.079
	C339.829,173.447,302.298,132.894,256.001,132.894z"/>
<path style="fill:#272525;" d="M256.001,132.894c-0.338,0-0.669,0.022-1.005,0.028v100.218c0.336,0.003,0.667,0.021,1.005,0.021
	c17.637,0,33.328-5.697,43.427-14.553c3.994,13.615,13.148,38.719,29.841,54.946c6.718-16.529,10.561-34.102,10.561-50.079
	C339.829,173.447,302.298,132.894,256.001,132.894z"/>
<polygon style="fill:#FFFFFF;" points="186.403,329.871 280.854,395.205 229.568,461.145 "/>
<polygon style="fill:#D0D1D3;" points="325.598,329.871 205.865,411.152 263.615,489.158 "/>
<polygon style="fill:#A6A8AA;" points="325.598,329.871 254.996,377.799 254.996,477.515 263.615,489.158 "/>
<path style="fill:#808183;" d="M256.001,512c9.514,0,18.903-0.536,28.148-1.546l-97.745-180.581l-56.535,23.199l-49.071,89.564
	C126.594,485.643,188.215,512,256.001,512z"/>
<g>
	<path style="fill:#59595B;" d="M284.149,510.454l-97.745-180.581l-34.476,14.148l89.1,167.534
		c4.956,0.286,9.945,0.446,14.972,0.446C265.515,512,274.903,511.464,284.149,510.454z"/>
	<path style="fill:#59595B;" d="M256.001,512c68.037,0,129.867-26.55,175.718-69.846l-49.585-89.085l-56.535-23.199L224.045,510.018
		C234.514,511.321,245.178,512,256.001,512z"/>
</g>
<path style="fill:#353333;" d="M224.045,510.018c10.469,1.303,21.133,1.982,31.956,1.982c0.803,0,1.602-0.022,2.403-0.031
	l96.901-169.91l-29.708-12.188L224.045,510.018z"/>
<path style="fill:#272525;" d="M325.598,329.871l-70.603,125.24v56.872c0.336,0.002,0.669,0.016,1.005,0.016
	c0.803,0,1.602-0.022,2.403-0.031l96.901-169.91L325.598,329.871z"/>
<g>
</g>
<g>
</g>
<g>
</g>
<g>
</g>
<g>
</g>
<g>
</g>
<g>
</g>
<g>
</g>
<g>
</g>
<g>
</g>
<g>
</g>
<g>
</g>
<g>
</g>
<g>
</g>
<g>
</g>
</svg>
