<?xml version="1.0" encoding="iso-8859-1"?>
<!-- Generator: Adobe Illustrator 19.0.0, SVG Export Plug-In . SVG Version: 6.00 Build 0)  -->
<svg version="1.1" id="Layer_1" xmlns="http://www.w3.org/2000/svg" xmlns:xlink="http://www.w3.org/1999/xlink" x="0px" y="0px"
	 viewBox="0 0 512.002 512.002" style="enable-background:new 0 0 512.002 512.002;" xml:space="preserve">
<circle style="fill:#38C6D9;" cx="256.001" cy="256" r="256"/>
<path style="fill:#02B2B2;" d="M509.058,294.934L288.364,74.24l-11.5,106.953l-82.367-82.742l-9.607,7.058l-7.127,9.74
	l95.903,95.694l-33.178,21.497l-82.258,41.508L302.152,417.87l61.264,70.554C439.866,453.032,495.919,381.047,509.058,294.934z"/>
<polygon style="fill:#FF314F;" points="186.403,329.871 254.277,427.872 254.277,329.871 "/>
<polygon style="fill:#A30F44;" points="325.598,329.871 254.277,329.871 254.277,427.872 256.415,430.957 "/>
<path style="fill:#FEE187;" d="M293.784,338.389v-19.834h-75.852v19.834l-24.997,5.53c-1.077,1.077,0,68.956,0,68.956h126.276
	v-68.956L293.784,338.389z"/>
<polygon style="fill:#FFC61B;" points="319.211,343.919 293.784,338.389 293.784,318.555 254.277,318.555 254.277,412.875 
	319.211,412.875 "/>
<path style="fill:#ED8B7E;" d="M202.315,506.344l69.489-98.64l-85.401-77.833l-46.397,23.199l-59.518,89.276
	C113.894,473.822,155.759,496.407,202.315,506.344z"/>
<path style="fill:#FFAD9E;" d="M371.996,353.07l-46.397-23.199L164.332,472.438l81.129,39.327c3.498,0.141,7.008,0.233,10.54,0.233
	c67.936,0,129.683-26.472,175.513-69.654L371.996,353.07z"/>
<g>
	<path style="fill:#FF6262;" d="M431.513,442.346l-59.518-89.276l-46.397-23.199l-71.321,63.052v119.058
		c0.576,0.005,1.148,0.021,1.724,0.021C323.937,512,385.683,485.528,431.513,442.346z"/>
	<path style="fill:#FF6262;" d="M164.063,494.976C192.599,505.963,223.593,512,256.001,512c32.732,0,64.024-6.153,92.796-17.349
		v-22.213H164.332L164.063,494.976z"/>
</g>
<path style="fill:#FF314F;" d="M254.277,472.438v39.541c0.576,0.003,1.148,0.021,1.724,0.021c32.732,0,64.024-6.153,92.796-17.349
	v-22.213H254.277z"/>
<path style="fill:#FFC61B;" d="M211.528,138.223c-0.958,0-1.912-0.397-2.594-1.174l-34.93-39.819
	c-1.255-1.433-1.114-3.612,0.319-4.867c1.433-1.257,3.612-1.112,4.867,0.319l34.93,39.819c1.255,1.433,1.114,3.612-0.319,4.867
	C213.146,137.942,212.334,138.223,211.528,138.223z"/>
<circle style="fill:#59595B;" cx="253.794" cy="105.779" r="46.804"/>
<path style="fill:#3A3838;" d="M300.593,105.784c0-25.686-20.694-46.528-46.316-46.792v93.584
	C279.901,152.314,300.593,131.47,300.593,105.784z"/>
<path style="fill:#FFEDB5;" d="M339.829,223.472c0,50.024-37.531,115.771-83.828,115.771s-83.828-65.746-83.828-115.771
	s37.531-90.577,83.828-90.577S339.829,173.447,339.829,223.472z"/>
<path style="fill:#FEE187;" d="M256.001,132.894c-0.578,0-1.148,0.034-1.724,0.047v206.226c0.576,0.021,1.146,0.076,1.724,0.076
	c46.297,0,83.828-65.746,83.828-115.771S302.298,132.894,256.001,132.894z"/>
<path style="fill:#3A3838;" d="M256.001,106.344c-59.03,0-106.882,51.705-106.882,115.486c0,16.624,3.256,34.609,9.109,52.117
	h24.176v-56.77H328.85v56.77h24.922c5.853-17.508,9.109-35.493,9.109-52.117C362.883,158.049,315.031,106.344,256.001,106.344z"/>
<path style="fill:#272525;" d="M256.001,106.344c-0.578,0-1.148,0.038-1.724,0.047v110.787h74.573v56.77h24.922
	c5.853-17.508,9.109-35.493,9.109-52.117C362.883,158.049,315.031,106.344,256.001,106.344z"/>
<circle style="fill:#930000;" cx="186.148" cy="106.832" r="11.876"/>
<g>
</g>
<g>
</g>
<g>
</g>
<g>
</g>
<g>
</g>
<g>
</g>
<g>
</g>
<g>
</g>
<g>
</g>
<g>
</g>
<g>
</g>
<g>
</g>
<g>
</g>
<g>
</g>
<g>
</g>
</svg>
