<?xml version="1.0" encoding="iso-8859-1"?>
<!-- Generator: Adobe Illustrator 19.0.0, SVG Export Plug-In . SVG Version: 6.00 Build 0)  -->
<svg version="1.1" id="Layer_1" xmlns="http://www.w3.org/2000/svg" xmlns:xlink="http://www.w3.org/1999/xlink" x="0px" y="0px"
	 viewBox="0 0 512 512" style="enable-background:new 0 0 512 512;" xml:space="preserve">
<circle style="fill:#273B7A;" cx="256" cy="256" r="256"/>
<path style="fill:#121149;" d="M509.974,288.339L366.249,144.613l-134.384,83.804l-62.635,16.736l1.436,187.151l79.624,79.624
	c1.9,0.041,3.801,0.072,5.71,0.072C386.431,512,494.077,414.456,509.974,288.339z"/>
<rect x="170.667" y="156.444" style="fill:#D0D1D3;" width="56.889" height="167.702"/>
<rect x="170.667" y="233.296" style="fill:#A6A8AA;" width="56.889" height="90.85"/>
<polygon style="fill:#808183;" points="199.111,309.931 227.556,324.153 227.556,298.667 "/>
<path style="fill:#FFFFFF;" d="M359.765,309.931H199.111V142.222h160.654c5.53,0,10.012,4.482,10.012,10.012v147.682
	C369.778,305.447,365.294,309.931,359.765,309.931z"/>
<path style="fill:#D0D1D3;" d="M199.111,225.544v84.385h160.654c5.53,0,10.012-4.482,10.012-10.012v-74.373H199.111z"/>
<circle style="fill:#D35933;" cx="284.444" cy="226.073" r="47.916"/>
<path style="fill:#B54324;" d="M236.541,225.544c-0.002,0.178-0.014,0.353-0.014,0.531c0,26.464,21.452,47.916,47.916,47.916
	c26.464,0,47.916-21.452,47.916-47.916c0-0.178-0.012-0.353-0.014-0.531H236.541z"/>
<path style="fill:#D35933;" d="M173.253,432.7L173.253,432.7c-4.76,0-8.62-3.86-8.62-8.62V156.875c0-4.76,3.86-8.62,8.62-8.62l0,0
	c4.76,0,8.62,3.86,8.62,8.62v267.205C181.872,428.841,178.012,432.7,173.253,432.7z"/>
<g>
</g>
<g>
</g>
<g>
</g>
<g>
</g>
<g>
</g>
<g>
</g>
<g>
</g>
<g>
</g>
<g>
</g>
<g>
</g>
<g>
</g>
<g>
</g>
<g>
</g>
<g>
</g>
<g>
</g>
</svg>
