<?xml version="1.0" encoding="iso-8859-1"?>
<!-- Generator: Adobe Illustrator 19.0.0, SVG Export Plug-In . SVG Version: 6.00 Build 0)  -->
<svg version="1.1" id="Layer_1" xmlns="http://www.w3.org/2000/svg" xmlns:xlink="http://www.w3.org/1999/xlink" x="0px" y="0px"
	 viewBox="0 0 512 512" style="enable-background:new 0 0 512 512;" xml:space="preserve">
<circle style="fill:#386895;" cx="256" cy="256" r="256"/>
<path style="fill:#273B7A;" d="M509.714,290.244L333.49,114.019l-89.467,176.704l-50.085,73.606l136.628,136.628
	C425.013,472.242,496.321,390.413,509.714,290.244z"/>
<path style="fill:#FFFFFF;" d="M369.778,213.333c0,86.402-50.94,184.889-113.778,184.889s-113.778-98.487-113.778-184.889
	s50.94-128,113.778-128S369.778,126.931,369.778,213.333z"/>
<path style="fill:#D0D1D3;" d="M256,85.333c-0.048,0-0.095,0.003-0.143,0.003v312.882c0.048,0,0.095,0.003,0.143,0.003
	c62.838,0,113.778-98.487,113.778-184.889S318.838,85.333,256,85.333z"/>
<path style="fill:#B54324;" d="M329.242,349.644c-22.159-11.407-48.973-37.395-68.441-95.597c0,0,8.021,87.323,57.263,110.28
	C321.962,359.783,325.694,354.871,329.242,349.644z"/>
<path style="fill:#D35933;" d="M182.758,349.644c3.548,5.225,7.28,10.138,11.178,14.682c49.242-22.959,57.263-110.28,57.263-110.28
	C231.733,312.249,204.919,338.237,182.758,349.644z"/>
<path style="fill:#D0D1D3;" d="M271.553,253.293l12.891,30.777c0,0-0.671,11.847-11.176,7.601
	c-8.076-3.265-11.005,2.712-17.106,2.707c-0.055,0.002-0.269,0.002-0.324,0c-6.101,0.005-9.03-5.972-17.106-2.707
	c-10.505,4.248-11.176-7.601-11.176-7.601l12.891-30.777"/>
<path style="fill:#A6A8AA;" d="M271.553,253.293h-15.696v41.084c0.067,0.002,0.253,0.002,0.305,0
	c6.101,0.005,9.03-5.972,17.106-2.707c10.505,4.248,11.176-7.599,11.176-7.599L271.553,253.293z"/>
<path style="fill:#B54324;" d="M271.888,216.702c-13.003,16.403-2.872,33.292-11.086,37.345c0,0,71.754,6.663,108.713-29.987
	c0.171-3.591,0.266-7.168,0.266-10.726c0-16.143-1.781-30.718-5.082-43.754C337.334,177.143,290.726,192.936,271.888,216.702z"/>
<path style="fill:#D35933;" d="M240.112,216.702c-18.841-23.766-65.446-39.558-92.808-47.123
	c-3.301,13.036-5.082,27.612-5.082,43.754c0,3.556,0.095,7.135,0.265,10.726c36.959,36.652,108.713,29.987,108.713,29.987
	C242.986,249.994,253.118,233.105,240.112,216.702z"/>
<path style="fill:#272525;" d="M341.333,204.679c0,0-8.033,23.543-26.876,31.541c-18.842,7.999-41.358-2.577-41.358-2.577
	s8.033-23.543,26.876-31.541C318.817,194.105,341.333,204.679,341.333,204.679z"/>
<path style="fill:#59595B;" d="M170.667,204.679c0,0,8.033,23.543,26.876,31.541c18.842,7.997,41.358-2.577,41.358-2.577
	s-8.033-23.543-26.876-31.541S170.667,204.679,170.667,204.679z"/>
<path style="fill:#A6A8AA;" d="M149.147,270.7c6.068,25.634,15.867,50.2,28.379,70.809c15.806-7.356,37.45-23.926,47.875-60.913
	C225.401,280.597,194.958,257.162,149.147,270.7z"/>
<g>
	<path style="fill:#808183;" d="M154.345,289.545c4.27,13.543,9.561,26.562,15.722,38.588c7.711-2.064,25.262-9.537,32.609-35.602
		C202.676,292.531,183.048,277.401,154.345,289.545z"/>
	<path style="fill:#808183;" d="M286.599,280.597c10.424,36.988,32.068,53.557,47.875,60.913
		c12.512-20.609,22.311-45.175,28.379-70.809C317.042,257.162,286.599,280.597,286.599,280.597z"/>
</g>
<path style="fill:#59595B;" d="M309.324,292.531c7.347,26.065,24.898,33.539,32.609,35.602c6.16-12.026,11.452-25.043,15.722-38.588
	C328.952,277.401,309.324,292.531,309.324,292.531z"/>
<path style="fill:#D35933;" d="M242.209,396.624c4.522,1.041,9.123,1.598,13.791,1.598c4.668,0,9.269-0.557,13.791-1.598v-38.052
	h-27.582V396.624z"/>
<path style="fill:#B54324;" d="M255.857,358.572v39.646c0.048,0,0.095,0.003,0.143,0.003c4.668,0,9.269-0.557,13.791-1.598v-38.052
	H255.857z"/>
<g>
</g>
<g>
</g>
<g>
</g>
<g>
</g>
<g>
</g>
<g>
</g>
<g>
</g>
<g>
</g>
<g>
</g>
<g>
</g>
<g>
</g>
<g>
</g>
<g>
</g>
<g>
</g>
<g>
</g>
</svg>
