<?xml version="1.0" encoding="iso-8859-1"?>
<!-- Generator: Adobe Illustrator 19.0.0, SVG Export Plug-In . SVG Version: 6.00 Build 0)  -->
<svg version="1.1" id="Layer_1" xmlns="http://www.w3.org/2000/svg" xmlns:xlink="http://www.w3.org/1999/xlink" x="0px" y="0px"
	 viewBox="0 0 512 512" style="enable-background:new 0 0 512 512;" xml:space="preserve">
<circle style="fill:#273B7A;" cx="256" cy="256" r="256"/>
<g>
	<path style="fill:#121149;" d="M385.3,143.941l-15.974,4.296l-56.492-56.492l-16.546,21.687L268.19,85.333l-10.954,53.826
		l-29.444-29.444l-0.64,37.064L180.04,99.666l-1.615,11.814l49.728,91.248l-6.985,9.156l2.222-5.732l-79.45-79.451l-2.003,6.903
		l29.462,37.664l-33.132-33.132l-11.566,5.804l82.558,82.558l-18.189,6.12l-38.016-38.016l-31.053-3.712l48.611,48.611l-0.628-3.325
		c-22.63-4.525-82.123-12.205-84.602-13.036l33.699,33.699L85.333,268.19l34.549,34.549l-4.674,1.974l22.1,22.1l-25.262,26.595
		l158.191,158.191c130.045-7.132,234.229-111.314,241.361-241.359L385.3,143.941z"/>
	<path style="fill:#121149;" d="M85.382,223.139l-0.048-0.048C85.266,223.091,85.29,223.108,85.382,223.139z"/>
</g>
<g>
	<polygon style="fill:#FFC61B;" points="268.19,85.333 243.81,85.333 256,255.507 256,255.507 	"/>
	<polygon style="fill:#FFC61B;" points="256,255.507 243.81,426.667 268.19,426.667 	"/>
</g>
<g>
	<polygon style="fill:#EAA22F;" points="256,85.333 256,255.5 268.19,85.333 	"/>
	<polygon style="fill:#EAA22F;" points="256,255.516 256,426.667 268.19,426.667 	"/>
	<polygon style="fill:#EAA22F;" points="426.667,268.19 426.667,243.81 256.493,256 256.493,256 	"/>
</g>
<polygon style="fill:#FFC61B;" points="256.493,256 85.333,243.81 85.333,268.19 "/>
<polygon style="fill:#EAA22F;" points="385.3,143.941 368.059,126.7 256.348,255.652 256.348,255.652 "/>
<polygon style="fill:#FFC61B;" points="256.348,255.652 126.702,368.061 143.941,385.3 "/>
<polygon style="fill:#EAA22F;" points="368.059,385.3 385.3,368.059 256.348,256.348 256.348,256.348 "/>
<g>
	<polygon style="fill:#FFC61B;" points="256.348,256.348 143.939,126.7 126.7,143.939 	"/>
	<polygon style="fill:#FFC61B;" points="227.792,109.715 207.288,115.209 255.89,255.586 255.89,255.586 	"/>
</g>
<g>
	<polygon style="fill:#EAA22F;" points="255.89,255.586 284.208,402.285 304.714,396.791 	"/>
	<polygon style="fill:#EAA22F;" points="402.285,227.792 396.791,207.286 256.415,255.89 256.415,255.89 	"/>
</g>
<polygon style="fill:#FFC61B;" points="256.415,255.89 109.715,284.208 115.209,304.714 "/>
<polygon style="fill:#EAA22F;" points="339.494,132.615 321.108,122.001 256.215,255.629 256.215,255.629 "/>
<polygon style="fill:#FFC61B;" points="256.215,255.629 172.508,379.387 190.893,390.001 "/>
<polygon style="fill:#EAA22F;" points="379.387,339.494 390.001,321.108 256.371,256.214 256.371,256.214 "/>
<g>
	<polygon style="fill:#FFC61B;" points="256.371,256.214 132.613,172.506 121.999,190.892 	"/>
	<polygon style="fill:#FFC61B;" points="91.745,199.166 85.333,223.091 255.517,255.871 255.517,255.871 	"/>
</g>
<g>
	<polygon style="fill:#EAA22F;" points="255.517,255.871 420.257,312.832 426.667,288.909 	"/>
	<polygon style="fill:#EAA22F;" points="312.834,91.743 288.909,85.333 256.129,255.516 256.129,255.516 	"/>
</g>
<g>
	<polygon style="fill:#FFC61B;" points="256.129,255.516 199.168,420.255 223.091,426.667 	"/>
	<polygon style="fill:#FFC61B;" points="180.041,99.666 158.592,112.05 255.75,255.566 255.75,255.566 	"/>
</g>
<g>
	<polygon style="fill:#EAA22F;" points="255.75,255.566 331.96,412.332 353.409,399.95 	"/>
	<polygon style="fill:#EAA22F;" points="412.334,180.04 399.95,158.591 256.433,255.75 256.433,255.75 	"/>
</g>
<polygon style="fill:#FFC61B;" points="256.433,255.75 99.666,331.96 112.049,353.409 "/>
<circle style="fill:#E09112;" cx="256" cy="256" r="97.521"/>
<path style="fill:#FF5419;" d="M353.523,256c0-53.86-43.663-97.523-97.523-97.523v195.048
	C309.862,353.523,353.523,309.86,353.523,256z"/>
<g>
</g>
<g>
</g>
<g>
</g>
<g>
</g>
<g>
</g>
<g>
</g>
<g>
</g>
<g>
</g>
<g>
</g>
<g>
</g>
<g>
</g>
<g>
</g>
<g>
</g>
<g>
</g>
<g>
</g>
</svg>
