<?xml version="1.0" encoding="iso-8859-1"?>
<!-- Generator: Adobe Illustrator 19.0.0, SVG Export Plug-In . SVG Version: 6.00 Build 0)  -->
<svg version="1.1" id="Layer_1" xmlns="http://www.w3.org/2000/svg" xmlns:xlink="http://www.w3.org/1999/xlink" x="0px" y="0px"
	 viewBox="0 0 512 512" style="enable-background:new 0 0 512 512;" xml:space="preserve">
<g>
	<circle style="fill:#386895;" cx="256" cy="256" r="256"/>
	<path style="fill:#386895;" d="M256,0c141.384,0,256,114.616,256,256"/>
</g>
<path style="fill:#273B7A;" d="M272.975,511.426c123.408-8.082,222.934-103.595,237.24-225.201L361.915,137.924l-31.577,2.21
	L256,65.796l-64.777,63.747v20.165l-37.423,3.341l168.134,168.134l-168.596,71.761L272.975,511.426z"/>
<path style="fill:#FFC61B;" d="M320.777,140.381c-1.324,0-2.646-0.505-3.656-1.515L256,77.746l-61.121,61.119
	c-2.02,2.02-5.292,2.02-7.313,0c-2.02-2.019-2.02-5.294,0-7.313l64.777-64.776c2.02-2.02,5.292-2.02,7.313,0l64.777,64.776
	c2.02,2.019,2.02,5.294,0,7.313C323.424,139.876,322.101,140.381,320.777,140.381z"/>
<path style="fill:#EAA22F;" d="M324.434,131.553l-64.777-64.776c-1.01-1.01-2.332-1.515-3.656-1.515v12.485l61.121,61.119
	c1.01,1.01,2.334,1.515,3.656,1.515c1.322,0,2.646-0.505,3.656-1.515C326.454,136.847,326.454,133.57,324.434,131.553z"/>
<rect x="162.875" y="134.399" style="fill:#FFFFFF;" width="186.234" height="254.259"/>
<rect x="256" y="134.399" style="fill:#D0D1D3;" width="93.125" height="254.259"/>
<path style="fill:#59595B;" d="M285.658,244.277c-0.172-0.069-16.979-7.101-23.99-23.424v-6.949h21.863
	c3.129,0,5.668-2.538,5.668-5.668c0-3.129-2.538-5.668-5.668-5.668h-21.863v-8.097c0-3.129-2.538-5.668-5.668-5.668
	c-3.131,0-5.668,2.538-5.668,5.668v8.097h-21.863c-3.129,0-5.668,2.538-5.668,5.668c0,3.129,2.538,5.668,5.668,5.668h21.863v6.863
	c-2.953,6.213-11.616,19.992-23.397,23.307c-3.015,0.848-4.77,3.977-3.922,6.99c0.703,2.5,2.977,4.136,5.453,4.136
	c0.507,0,1.024-0.069,1.538-0.214c8.489-2.388,15.276-8.032,20.328-13.845v22.154c0,3.129,2.538,5.668,5.668,5.668
	c3.131,0,5.668-2.538,5.668-5.668v-22.381c9.064,9.481,19.137,13.629,19.751,13.876c2.898,1.165,6.185-0.24,7.358-3.136
	S288.549,245.458,285.658,244.277z"/>
<path d="M285.658,244.277c-0.172-0.071-16.979-7.101-23.99-23.424v-6.949h21.863c3.129,0,5.668-2.538,5.668-5.668
	c0-3.129-2.538-5.668-5.668-5.668h-21.863v-8.097c0-3.129-2.538-5.668-5.668-5.668v80.162c3.129,0,5.668-2.538,5.668-5.668v-22.381
	c9.064,9.481,19.137,13.629,19.751,13.876c2.898,1.165,6.185-0.24,7.358-3.136C289.947,248.758,288.549,245.458,285.658,244.277z"/>
<g>
	<path style="fill:#D35933;" d="M349.522,156.262H162.478c-7.378,0-13.36-5.982-13.36-13.36l0,0c0-7.378,5.982-13.36,13.36-13.36
		h187.044c7.378,0,13.36,5.982,13.36,13.36l0,0C362.882,150.28,356.9,156.262,349.522,156.262z"/>
	<path style="fill:#D35933;" d="M349.522,396.747H162.478c-7.378,0-13.36-5.982-13.36-13.36l0,0c0-7.378,5.982-13.36,13.36-13.36
		h187.044c7.378,0,13.36,5.982,13.36,13.36l0,0C362.882,390.765,356.9,396.747,349.522,396.747z"/>
</g>
<g>
	<path style="fill:#B54324;" d="M349.522,129.541H256v26.721h93.522c7.378,0,13.36-5.982,13.36-13.36
		C362.882,135.523,356.9,129.541,349.522,129.541z"/>
	<path style="fill:#B54324;" d="M349.522,370.026H256v26.721h93.522c7.378,0,13.36-5.982,13.36-13.36
		C362.882,376.008,356.9,370.026,349.522,370.026z"/>
</g>
<g>
</g>
<g>
</g>
<g>
</g>
<g>
</g>
<g>
</g>
<g>
</g>
<g>
</g>
<g>
</g>
<g>
</g>
<g>
</g>
<g>
</g>
<g>
</g>
<g>
</g>
<g>
</g>
<g>
</g>
</svg>
