<?xml version="1.0" encoding="iso-8859-1"?>
<!-- Generator: Adobe Illustrator 19.0.0, SVG Export Plug-In . SVG Version: 6.00 Build 0)  -->
<svg version="1.1" id="Layer_1" xmlns="http://www.w3.org/2000/svg" xmlns:xlink="http://www.w3.org/1999/xlink" x="0px" y="0px"
	 viewBox="0 0 512 512" style="enable-background:new 0 0 512 512;" xml:space="preserve">
<circle style="fill:#FFC61B;" cx="256" cy="256" r="256"/>
<path style="fill:#EAA22F;" d="M512,256c0-14.536-1.231-28.782-3.558-42.656l-88.947-88.947L244.938,284.444L90.936,394.147
	l112.425,112.425C220.351,510.123,237.956,512,256,512C397.384,512,512,397.384,512,256z"/>
<rect x="90.936" y="174.735" style="fill:#FFFFFF;" width="301.684" height="219.401"/>
<rect x="235.606" y="174.735" style="fill:#D0D1D3;" width="157.013" height="219.401"/>
<path style="fill:#D35933;" d="M419.495,124.397L419.495,124.397c4.006,4.006,4.006,10.504,0,14.51L252.631,305.771l-14.51-14.51
	l166.864-166.864C408.991,120.391,415.489,120.391,419.495,124.397z"/>
<path style="fill:#B54324;" d="M419.495,124.397c-0.024-0.024-0.053-0.04-0.079-0.064L245.305,298.444l7.327,7.327l166.864-166.864
	C423.502,134.899,423.502,128.403,419.495,124.397z"/>
<path style="fill:#59595B;" d="M230.867,284.005c16.027-16.027,21.006-8.013,29.02,0c8.014,8.014,16.027,12.993,0,29.02
	c-16.027,16.027-58.039,29.02-58.039,29.02S214.84,300.032,230.867,284.005z"/>
<path style="fill:#272525;" d="M259.886,284.005c-0.024-0.024-0.047-0.048-0.071-0.072l-57.904,57.904
	c-0.038,0.122-0.066,0.207-0.066,0.207s42.012-12.993,58.039-29.02C275.911,296.996,267.9,292.019,259.886,284.005z"/>
<path style="fill:#59595B;" d="M195.155,373.581c-0.176-5.041,8.542-16.732,8.542-16.732s9.535,11.692,9.711,16.732
	c0.176,5.041-3.767,9.126-8.807,9.126S195.331,378.621,195.155,373.581z"/>
<path style="fill:#272525;" d="M203.697,356.848c0,0,9.535,11.692,9.711,16.732c0.176,5.041-3.767,9.126-8.807,9.126
	L203.697,356.848z"/>
<g>
</g>
<g>
</g>
<g>
</g>
<g>
</g>
<g>
</g>
<g>
</g>
<g>
</g>
<g>
</g>
<g>
</g>
<g>
</g>
<g>
</g>
<g>
</g>
<g>
</g>
<g>
</g>
<g>
</g>
</svg>
