<?xml version="1.0" encoding="iso-8859-1"?>
<!-- Generator: Adobe Illustrator 19.0.0, SVG Export Plug-In . SVG Version: 6.00 Build 0)  -->
<svg version="1.1" id="Layer_1" xmlns="http://www.w3.org/2000/svg" xmlns:xlink="http://www.w3.org/1999/xlink" x="0px" y="0px"
	 viewBox="0 0 512 512" style="enable-background:new 0 0 512 512;" xml:space="preserve">
<circle style="fill:#273B7A;" cx="256" cy="256" r="256"/>
<path style="fill:#121149;" d="M512,256c0-2.086-0.029-4.167-0.079-6.241l-128.9-129.517L267.286,252.614L110.147,388.536
	l122.383,122.382c7.73,0.703,15.555,1.081,23.469,1.081C397.384,512,512,397.384,512,256z"/>
<path style="fill:#EAA22F;" d="M211.08,370.117c-1.321,0-2.579-0.762-3.151-2.048l-15.124-33.975
	c-0.65-1.462-0.21-3.179,1.062-4.146c1.276-0.967,3.05-0.934,4.279,0.084l28.243,23.274c1.47,1.21,1.681,3.384,0.467,4.851
	c-1.208,1.472-3.384,1.683-4.851,0.467l-16.948-13.967l9.171,20.604c0.774,1.739-0.009,3.777-1.748,4.553
	C212.025,370.021,211.549,370.117,211.08,370.117z"/>
<polygon style="fill:#FFFFFF;" points="183.887,314.43 153.154,337.449 163.506,352.068 197.337,328.109 "/>
<polygon style="fill:#D0D1D3;" points="156.805,342.606 163.506,352.068 197.337,328.109 190.152,320.802 "/>
<path style="fill:#FF5419;" d="M178.536,313.515c0,0,108.784-71.702,191.217-192.091c3.391-4.951,10.669-5.025,14.138-0.128
	l18.172,25.659c2.3,3.248,2.081,7.649-0.538,10.645c-20.459,23.402-108.989,121.056-208.346,176.59L178.536,313.515z"/>
<g>
	<path style="fill:#C92F00;" d="M178.536,313.516l14.641,20.675c39.136-21.875,76.588-50.285,108.866-78.117l-24.943-24.943
		C223.27,284.029,178.536,313.516,178.536,313.516z"/>
	<path style="fill:#C92F00;" d="M162.58,327.637c0,0-38.288,25.712-60.664,36.948c-3.263,1.639-4.389,5.734-2.438,8.819
		l8.139,12.872c1.784,2.82,5.477,3.72,8.354,2.029c10.611-6.237,35.706-21.875,58.528-42.775L162.58,327.637z"/>
</g>
<path style="fill:#930000;" d="M102.467,378.134l5.149,8.144c1.784,2.82,5.477,3.72,8.354,2.029
	c10.611-6.237,35.706-21.875,58.528-42.775l-6.727-10.099L102.467,378.134z"/>
<rect x="164.009" y="312.675" transform="matrix(0.8161 -0.5779 0.5779 0.8161 -162.9513 159.3259)" style="fill:#D35933;" width="9.724" height="46.062"/>
<polygon style="fill:#B54324;" points="164.307,337.701 178.21,357.333 186.146,351.713 172.451,332.376 "/>
<path style="fill:#FEE187;" d="M208.987,330.519l-20.189-28.505c-1.1-1.55-3.248-1.924-4.806-0.821
	c-1.274,0.902-1.734,2.508-1.257,3.915c-1.033-0.384-2.231-0.271-3.201,0.415c-0.567,0.402-0.974,0.946-1.21,1.548
	c-1.158-0.812-2.741-0.867-3.965,0c-1.553,1.1-1.92,3.253-0.821,4.806l18.415,26c0.672,0.948,1.736,1.455,2.817,1.455
	c0.688,0,1.384-0.205,1.989-0.634c0.531-0.376,0.912-0.879,1.155-1.436c0.634,0.546,1.438,0.834,2.251,0.834
	c0.688,0,1.384-0.205,1.989-0.634c0.915-0.646,1.405-1.662,1.439-2.701c0.672,0.769,1.612,1.196,2.582,1.196
	c0.688,0,1.384-0.205,1.989-0.634C209.722,334.226,210.089,332.073,208.987,330.519z"/>
<path style="fill:#FFC61B;" d="M198.323,315.459l-15.207,9.942l8.837,12.478c0.672,0.948,1.736,1.455,2.817,1.455
	c0.688,0,1.384-0.205,1.989-0.634c0.531-0.376,0.912-0.879,1.155-1.436c0.634,0.547,1.438,0.834,2.251,0.834
	c0.688,0,1.384-0.205,1.989-0.634c0.915-0.646,1.405-1.662,1.439-2.701c0.672,0.769,1.612,1.196,2.582,1.196
	c0.688,0,1.384-0.205,1.989-0.634c1.553-1.1,1.92-3.253,0.821-4.806L198.323,315.459z"/>
<g>
</g>
<g>
</g>
<g>
</g>
<g>
</g>
<g>
</g>
<g>
</g>
<g>
</g>
<g>
</g>
<g>
</g>
<g>
</g>
<g>
</g>
<g>
</g>
<g>
</g>
<g>
</g>
<g>
</g>
</svg>
