<?xml version="1.0" encoding="iso-8859-1"?>
<!-- Generator: Adobe Illustrator 19.0.0, SVG Export Plug-In . SVG Version: 6.00 Build 0)  -->
<svg version="1.1" id="Layer_1" xmlns="http://www.w3.org/2000/svg" xmlns:xlink="http://www.w3.org/1999/xlink" x="0px" y="0px"
	 viewBox="0 0 512 512" style="enable-background:new 0 0 512 512;" xml:space="preserve">
<circle style="fill:#FEE187;" cx="256" cy="256" r="256"/>
<path style="fill:#FFC61B;" d="M172.387,320.812l-2.548,55.274l132.12,131.793c105.624-19.147,188.664-103.102,206.476-209.186
	L326.137,115.684l-20.173-4.965l-116.489,1.724l-14.976,14.976l-5.315,61.947l3.784,15.203l7.758,23.847L172.387,320.812z"/>
<path style="fill:#59595B;" d="M318.197,269.765h-135.23L161.23,161.082c-2.96-14.798,0.829-29.979,10.397-41.648
	s23.711-18.363,38.802-18.363h80.305c15.093,0,29.236,6.694,38.803,18.365c9.568,11.671,13.357,26.85,10.395,41.646L318.197,269.765
	z M194.272,255.974H306.89l19.52-97.595c2.145-10.731-0.603-21.737-7.539-30.201c-6.937-8.463-17.194-13.317-28.138-13.317h-80.305
	c-10.943,0-21.199,4.853-28.136,13.317c-6.937,8.461-9.685,19.47-7.54,30.201L194.272,255.974z"/>
<path style="fill:#272525;" d="M329.537,119.436c-9.568-11.673-23.711-18.365-38.803-18.365h-40.479v13.791h40.479
	c10.945,0,21.201,4.853,28.138,13.317c6.935,8.463,9.683,19.47,7.539,30.201l-19.52,97.595h-56.637v13.791h67.943l21.735-108.684
	C342.893,146.285,339.104,131.106,329.537,119.436z"/>
<path style="fill:#59595B;" d="M261.318,175.735c0.936-1.727,1.467-3.705,1.467-5.806c0-6.74-5.465-12.205-12.205-12.205
	c-6.74,0-12.205,5.465-12.205,12.205c0,2.17,0.574,4.206,1.567,5.972c-11.038,2.839-23.147,10.266-35.835,25.009h92.943
	C297.053,200.909,283.045,180.976,261.318,175.735z"/>
<path style="fill:#272525;" d="M261.318,175.735c0.936-1.727,1.467-3.705,1.467-5.806c0-6.74-5.465-12.205-12.205-12.205
	c-0.11,0-0.217,0.014-0.328,0.017v43.17h46.799C297.053,200.909,283.045,180.976,261.318,175.735z"/>
<path style="fill:#808183;" d="M344.531,238.892l-47.478-37.983H204.11l-54.217,54.217l-23.237-23.237h-30.98l67.401,134.803
	c6.16,12.321,18.753,20.102,32.527,20.102h107.229c15.158,0,28.727-9.404,34.051-23.597l24.145-64.386
	C369.068,277.373,362.412,253.195,344.531,238.892z"/>
<path style="fill:#59595B;" d="M344.531,238.892l-47.478-37.983h-46.799v185.885h52.579c15.158,0,28.727-9.404,34.051-23.597
	l24.145-64.386C369.068,277.373,362.412,253.195,344.531,238.892z"/>
<path style="fill:#6CAF5F;" d="M377.256,386.794H348.37c-13.96,0-25.276-11.316-25.276-25.276v-93.882h79.438v93.882
	C402.532,375.479,391.215,386.794,377.256,386.794z"/>
<path style="fill:#477F3C;" d="M361.734,267.636v119.158h15.522c13.96,0,25.276-11.316,25.276-25.276v-93.882H361.734z"/>
<g>
</g>
<g>
</g>
<g>
</g>
<g>
</g>
<g>
</g>
<g>
</g>
<g>
</g>
<g>
</g>
<g>
</g>
<g>
</g>
<g>
</g>
<g>
</g>
<g>
</g>
<g>
</g>
<g>
</g>
</svg>
