<?xml version="1.0" encoding="iso-8859-1"?>
<!-- Generator: Adobe Illustrator 19.0.0, SVG Export Plug-In . SVG Version: 6.00 Build 0)  -->
<svg version="1.1" id="Layer_1" xmlns="http://www.w3.org/2000/svg" xmlns:xlink="http://www.w3.org/1999/xlink" x="0px" y="0px"
	 viewBox="0 0 512 512" style="enable-background:new 0 0 512 512;" xml:space="preserve">
<circle style="fill:#273B7A;" cx="256" cy="256" r="256"/>
<path style="fill:#121149;" d="M289.201,509.861c110.042-14.252,198.151-98.378,218.396-206.426L336.891,132.729l-138.078,79.084
	l-74.474,33.306l131.205,130.889l-60.499,39.696L289.201,509.861z"/>
<polygon style="fill:#FF314F;" points="304.533,116.55 207.465,116.55 256.288,187.044 "/>
<polygon style="fill:#A30F44;" points="304.533,116.55 254.995,116.55 254.995,185.177 256.288,187.044 "/>
<path style="fill:#ED8B7E;" d="M272.943,182.025l-65.477-65.477l-32.356,16.179l-53.676,80.513
	c-7.137,10.705-5.189,25.035,4.539,33.452c12.674,10.969,33.704,24.505,65.314,31.637L272.943,182.025z"/>
<path style="fill:#FFAD9E;" d="M390.565,213.24l-53.676-80.513l-32.356-16.179L192.072,229.797l1.576,0.595l-2.362,0.612v176.071
	c0,6.513,5.28,11.793,11.793,11.793h105.839c6.513,0,11.793-5.28,11.793-11.793V278.331c31.61-7.132,52.639-20.668,65.314-31.637
	C395.754,238.275,397.702,223.946,390.565,213.24z"/>
<g>
	<path style="fill:#FF6262;" d="M390.565,213.24l-53.676-80.513l-32.356-16.179l-49.538,49.885v48.049v39.053v165.331h53.924
		c6.513,0,11.793-5.28,11.793-11.793V278.33c31.61-7.132,52.639-20.668,65.314-31.637
		C395.754,238.275,397.702,223.946,390.565,213.24z"/>
	<rect x="191.285" y="229.797" style="fill:#FF6262;" width="129.431" height="65.87"/>
</g>
<rect x="255" y="229.797" style="fill:#FF314F;" width="65.715" height="65.87"/>
<path style="fill:#FFFFFF;" d="M221.024,251.69c4.396,1.522,5.215,5.963,5.215,5.963s-3.789,2.45-7.911,0.295
	c-0.09,4.651-4.056,6.799-4.056,6.799s-3.5-2.846-2.724-7.433c-4.451,1.352-7.72-1.757-7.72-1.757s1.622-4.213,6.225-4.892
	c-2.662-3.815-0.717-7.89-0.717-7.89s4.505,0.247,6.573,4.413c2.807-3.71,7.278-3.115,7.278-3.115S224.347,248.436,221.024,251.69z"
	/>
<circle style="fill:#FF314F;" cx="215.436" cy="252.587" r="2.562"/>
<path style="fill:#FFFFFF;" d="M273.636,277.637c-1.176,4.501-5.541,5.661-5.541,5.661s-2.736-3.587-0.909-7.864
	c-4.644,0.272-7.092-3.517-7.092-3.517s2.565-3.71,7.199-3.293c-1.695-4.332,1.153-7.832,1.153-7.832s4.327,1.291,5.361,5.825
	c3.598-2.95,7.809-1.327,7.809-1.327s0.105,4.51-3.889,6.896c3.917,2.51,3.67,7.015,3.67,7.015S277.139,280.698,273.636,277.637z"/>
<circle style="fill:#FF314F;" cx="272.308" cy="272.136" r="2.562"/>
<path style="fill:#FFFFFF;" d="M306.921,249.394c2.303,4.041-0.007,7.921-0.007,7.921s-4.463-0.653-6.144-4.991
	c-3.132,3.439-7.532,2.441-7.532,2.441s-0.757-4.448,2.848-7.387c-4.239-1.915-4.649-6.408-4.649-6.408s3.998-2.1,7.906,0.421
	c0.512-4.624,4.66-6.408,4.66-6.408s3.227,3.153,2.038,7.651c4.555-0.943,7.527,2.453,7.527,2.453S311.565,249.135,306.921,249.394z
	"/>
<circle style="fill:#FF314F;" cx="302.132" cy="246.398" r="2.562"/>
<path style="fill:#FFFFFF;" d="M250.933,251.742c1.674,4.341-1.189,7.832-1.189,7.832s-4.317-1.314-5.33-5.853
	c-3.61,2.934-7.811,1.288-7.811,1.288s-0.084-4.51,3.92-6.878c-3.905-2.527-3.639-7.03-3.639-7.03s4.267-1.479,7.754,1.598
	c1.196-4.496,5.565-5.639,5.565-5.639s2.719,3.6,0.871,7.87c4.644-0.252,7.077,3.55,7.077,3.55S255.566,252.182,250.933,251.742z"/>
<circle style="fill:#FF314F;" cx="246.639" cy="248.053" r="2.562"/>
<path style="fill:#FFFFFF;" d="M226.444,274.432c1.526-2.407,4.287-2.269,4.287-2.269s0.927,2.603-0.938,4.756
	c2.76,0.708,3.481,3.375,3.481,3.375s-2.189,1.686-4.813,0.578c0.179,2.843-2.134,4.353-2.134,4.353s-2.282-1.56-2.041-4.399
	c-2.648,1.05-4.803-0.683-4.803-0.683s0.781-2.65,3.555-3.296c-1.817-2.195-0.833-4.777-0.833-4.777
	S224.971,271.993,226.444,274.432z"/>
<circle style="fill:#FF314F;" cx="226.194" cy="277.894" r="1.569"/>
<path style="fill:#FFFFFF;" d="M272.475,242.019c1.526-2.407,4.287-2.269,4.287-2.269s0.927,2.603-0.938,4.756
	c2.76,0.709,3.481,3.375,3.481,3.375s-2.189,1.686-4.813,0.578c0.179,2.843-2.134,4.353-2.134,4.353s-2.282-1.56-2.041-4.399
	c-2.648,1.05-4.803-0.683-4.803-0.683s0.781-2.65,3.555-3.296c-1.817-2.195-0.833-4.777-0.833-4.777S271.003,239.58,272.475,242.019
	z"/>
<circle style="fill:#FF314F;" cx="272.222" cy="245.467" r="1.569"/>
<path style="fill:#FFFFFF;" d="M205.757,274.432c1.526-2.407,4.287-2.269,4.287-2.269s0.927,2.603-0.938,4.756
	c2.76,0.708,3.481,3.375,3.481,3.375s-2.189,1.686-4.813,0.578c0.179,2.843-2.134,4.353-2.134,4.353s-2.282-1.56-2.041-4.399
	c-2.648,1.05-4.803-0.683-4.803-0.683s0.781-2.65,3.555-3.296c-1.817-2.195-0.833-4.777-0.833-4.777
	S204.285,271.993,205.757,274.432z"/>
<circle style="fill:#FF314F;" cx="205.507" cy="277.894" r="1.569"/>
<path style="fill:#FFFFFF;" d="M307.755,264.089c1.526-2.407,4.287-2.269,4.287-2.269s0.927,2.603-0.938,4.756
	c2.76,0.709,3.481,3.375,3.481,3.375s-2.189,1.686-4.813,0.578c0.179,2.843-2.134,4.353-2.134,4.353s-2.282-1.56-2.041-4.399
	c-2.648,1.05-4.803-0.683-4.803-0.683s0.781-2.65,3.555-3.296c-1.817-2.195-0.833-4.777-0.833-4.777
	S306.283,261.649,307.755,264.089z"/>
<circle style="fill:#FF314F;" cx="307.51" cy="267.55" r="1.569"/>
<path style="fill:#FFFFFF;" d="M294.228,276.032c1.526-2.407,4.287-2.269,4.287-2.269s0.927,2.603-0.938,4.756
	c2.76,0.709,3.481,3.375,3.481,3.375s-2.189,1.686-4.813,0.578c0.179,2.843-2.134,4.353-2.134,4.353s-2.282-1.56-2.041-4.399
	c-2.648,1.05-4.803-0.683-4.803-0.683s0.781-2.65,3.555-3.296c-1.817-2.195-0.833-4.777-0.833-4.777
	S292.755,273.594,294.228,276.032z"/>
<circle style="fill:#FF314F;" cx="293.978" cy="279.48" r="1.569"/>
<path style="fill:#FFFFFF;" d="M246.269,277.018c1.526-2.407,4.287-2.269,4.287-2.269s0.927,2.603-0.938,4.756
	c2.76,0.709,3.481,3.375,3.481,3.375s-2.189,1.686-4.813,0.578c0.179,2.843-2.134,4.353-2.134,4.353s-2.282-1.56-2.041-4.399
	c-2.648,1.05-4.803-0.683-4.803-0.683s0.781-2.65,3.555-3.296c-1.817-2.195-0.833-4.777-0.833-4.777
	S244.796,274.579,246.269,277.018z"/>
<circle style="fill:#FF314F;" cx="246.019" cy="280.479" r="1.569"/>
<g>
</g>
<g>
</g>
<g>
</g>
<g>
</g>
<g>
</g>
<g>
</g>
<g>
</g>
<g>
</g>
<g>
</g>
<g>
</g>
<g>
</g>
<g>
</g>
<g>
</g>
<g>
</g>
<g>
</g>
</svg>
