<?xml version="1.0" encoding="iso-8859-1"?>
<!-- Generator: Adobe Illustrator 19.0.0, SVG Export Plug-In . SVG Version: 6.00 Build 0)  -->
<svg version="1.1" id="Layer_1" xmlns="http://www.w3.org/2000/svg" xmlns:xlink="http://www.w3.org/1999/xlink" x="0px" y="0px"
	 viewBox="0 0 512.002 512.002" style="enable-background:new 0 0 512.002 512.002;" xml:space="preserve">
<circle style="fill:#386895;" cx="256.001" cy="256" r="256"/>
<path style="fill:#273B7A;" d="M512.001,256c0-0.715-0.021-1.426-0.028-2.139L398.206,140.093l-26.202,16.512l-118.279,45.809
	l-89.612-86.993l0.078,46.208l-2.157,85.432l-0.298,11.788l-4.86,194.827l55.384,54.589c14.215,2.448,28.825,3.737,43.741,3.737
	C397.385,512,512.001,397.384,512.001,256z"/>
<path style="fill:#D35933;" d="M398.208,140.095c0,0-19.575,10.54-41.086,12.157c-21.513,1.619-67.346-19.306-125.576-15.775
	c-58.232,3.532-74.669,34.133-74.669,34.133s16.436,30.601,74.668,34.133c58.23,3.531,104.065-17.394,125.576-15.775
	c21.511,1.619,41.086,12.157,41.086,12.157l-24.65-30.515L398.208,140.095z"/>
<path style="fill:#B54324;" d="M373.975,170.093H157.183c-0.2,0.324-0.307,0.517-0.307,0.517s16.436,30.601,74.668,34.133
	c58.23,3.531,104.065-17.394,125.576-15.775c21.513,1.619,41.086,12.157,41.086,12.157l-24.65-30.515L373.975,170.093z"/>
<path style="fill:#FFEDB5;" d="M398.208,226.29c0,0-19.575,10.54-41.086,12.157c-21.513,1.619-67.346-19.306-125.576-15.775
	c-58.23,3.531-74.668,34.133-74.668,34.133s16.436,30.601,74.668,34.133c58.23,3.531,104.065-17.394,125.576-15.775
	c21.513,1.619,41.086,12.157,41.086,12.157l-24.65-30.515L398.208,226.29z"/>
<path style="fill:#FEE187;" d="M373.744,256.574H157.009c-0.081,0.138-0.133,0.231-0.133,0.231s16.436,30.601,74.668,34.133
	c58.23,3.531,104.065-17.394,125.576-15.775c21.513,1.619,41.086,12.157,41.086,12.157l-24.65-30.515L373.744,256.574z"/>
<path style="fill:#FFC61B;" d="M158.026,453.699c-4.761,0-8.62-3.858-8.62-8.62V121.535c0-4.761,3.858-8.62,8.62-8.62
	s8.62,3.858,8.62,8.62V445.08C166.646,449.839,162.788,453.699,158.026,453.699z"/>
<path style="fill:#EAA22F;" d="M158.026,112.916c4.761,0,8.62,3.858,8.62,8.62V445.08c0,4.761-3.858,8.62-8.62,8.62V112.916z"/>
<g>
	<path style="fill:#FFC61B;" d="M223.247,279.704c-2.381,0-4.31-1.929-4.31-4.31v-36.202c0-2.381,1.929-4.31,4.31-4.31
		s4.31,1.929,4.31,4.31v36.202C227.556,277.775,225.627,279.704,223.247,279.704z"/>
	<path style="fill:#FFC61B;" d="M245.897,279.704c-2.381,0-4.31-1.929-4.31-4.31v-36.202c0-2.381,1.929-4.31,4.31-4.31
		s4.31,1.929,4.31,4.31v36.202C250.207,277.775,248.278,279.704,245.897,279.704z"/>
	<path style="fill:#FFC61B;" d="M268.547,279.704c-2.381,0-4.31-1.929-4.31-4.31v-36.202c0-2.381,1.929-4.31,4.31-4.31
		s4.31,1.929,4.31,4.31v36.202C272.857,277.775,270.928,279.704,268.547,279.704z"/>
	<path style="fill:#FFC61B;" d="M291.198,279.704c-2.381,0-4.31-1.929-4.31-4.31v-36.202c0-2.381,1.929-4.31,4.31-4.31
		s4.31,1.929,4.31,4.31v36.202C295.508,277.775,293.579,279.704,291.198,279.704z"/>
</g>
<g>
	<path style="fill:#E09112;" d="M223.247,191.354c-2.381,0-4.31-1.929-4.31-4.31v-36.202c0-2.381,1.929-4.31,4.31-4.31
		s4.31,1.929,4.31,4.31v36.202C227.556,189.424,225.627,191.354,223.247,191.354z"/>
	<path style="fill:#E09112;" d="M245.897,191.354c-2.381,0-4.31-1.929-4.31-4.31v-36.202c0-2.381,1.929-4.31,4.31-4.31
		s4.31,1.929,4.31,4.31v36.202C250.207,189.424,248.278,191.354,245.897,191.354z"/>
	<path style="fill:#E09112;" d="M268.547,191.354c-2.381,0-4.31-1.929-4.31-4.31v-36.202c0-2.381,1.929-4.31,4.31-4.31
		s4.31,1.929,4.31,4.31v36.202C272.857,189.424,270.928,191.354,268.547,191.354z"/>
	<path style="fill:#E09112;" d="M291.198,191.354c-2.381,0-4.31-1.929-4.31-4.31v-36.202c0-2.381,1.929-4.31,4.31-4.31
		s4.31,1.929,4.31,4.31v36.202C295.508,189.424,293.579,191.354,291.198,191.354z"/>
</g>
<circle style="fill:#930000;" cx="195.664" cy="169.805" r="7.758"/>
<g>
	<path style="fill:#FF5419;" d="M218.937,170.093v16.951c0,2.381,1.929,4.31,4.31,4.31s4.31-1.929,4.31-4.31v-16.951H218.937z"/>
	<path style="fill:#FF5419;" d="M241.587,170.093v16.951c0,2.381,1.929,4.31,4.31,4.31s4.31-1.929,4.31-4.31v-16.951H241.587z"/>
	<path style="fill:#FF5419;" d="M264.238,170.093v16.951c0,2.381,1.929,4.31,4.31,4.31s4.31-1.929,4.31-4.31v-16.951H264.238z"/>
	<path style="fill:#FF5419;" d="M286.888,170.093v16.951c0,2.381,1.929,4.31,4.31,4.31s4.31-1.929,4.31-4.31v-16.951H286.888z"/>
</g>
<path style="fill:#7A0101;" d="M187.936,170.093c0.155,4.148,3.543,7.47,7.728,7.47c4.186,0,7.575-3.322,7.728-7.47H187.936z"/>
<circle style="fill:#E09112;" cx="195.664" cy="256.81" r="7.758"/>
<g>
	<path style="fill:#EAA22F;" d="M218.937,256.574v18.82c0,2.381,1.929,4.31,4.31,4.31s4.31-1.929,4.31-4.31v-18.82L218.937,256.574
		L218.937,256.574z"/>
	<path style="fill:#EAA22F;" d="M241.587,256.574v18.82c0,2.381,1.929,4.31,4.31,4.31s4.31-1.929,4.31-4.31v-18.82L241.587,256.574
		L241.587,256.574z"/>
	<path style="fill:#EAA22F;" d="M264.238,256.574v18.82c0,2.381,1.929,4.31,4.31,4.31s4.31-1.929,4.31-4.31v-18.82L264.238,256.574
		L264.238,256.574z"/>
	<path style="fill:#EAA22F;" d="M286.888,256.574v18.82c0,2.381,1.929,4.31,4.31,4.31s4.31-1.929,4.31-4.31v-18.82L286.888,256.574
		L286.888,256.574z"/>
</g>
<path style="fill:#FF5419;" d="M187.929,256.574c-0.002,0.079-0.022,0.152-0.022,0.231c0,4.284,3.474,7.758,7.758,7.758
	c4.284,0,7.758-3.474,7.758-7.758c0-0.079-0.021-0.152-0.022-0.231H187.929z"/>
<g>
</g>
<g>
</g>
<g>
</g>
<g>
</g>
<g>
</g>
<g>
</g>
<g>
</g>
<g>
</g>
<g>
</g>
<g>
</g>
<g>
</g>
<g>
</g>
<g>
</g>
<g>
</g>
<g>
</g>
</svg>
