<?xml version="1.0" encoding="iso-8859-1"?>
<!-- Generator: Adobe Illustrator 19.0.0, SVG Export Plug-In . SVG Version: 6.00 Build 0)  -->
<svg version="1.1" id="Layer_1" xmlns="http://www.w3.org/2000/svg" xmlns:xlink="http://www.w3.org/1999/xlink" x="0px" y="0px"
	 viewBox="0 0 512 512" style="enable-background:new 0 0 512 512;" xml:space="preserve">
<circle style="fill:#273B7A;" cx="256" cy="256" r="256"/>
<path style="fill:#121149;" d="M503.039,323.312L278.263,99.166l-34.323-3.755l-15.665,21.935l6.161,173.159l-41.334,66.955
	l25.403,26.908l115.807,115.412C416.335,473.452,480.32,406.887,503.039,323.312z"/>
<path style="fill:#FF5419;" d="M287.578,121.525h-8.62c0-12.659-10.3-22.957-22.959-22.957c-12.659,0-22.959,10.3-22.959,22.957
	h-8.62c0-17.413,14.167-31.577,31.578-31.577S287.578,104.112,287.578,121.525z"/>
<path style="fill:#C92F00;" d="M256,89.948c-0.193,0-0.381,0.026-0.574,0.029v8.62c0.193-0.005,0.381-0.029,0.574-0.029
	c12.66,0,22.959,10.3,22.959,22.957h8.62C287.578,104.112,273.413,89.948,256,89.948z"/>
<rect x="218.505" y="120.018" style="fill:#FFC61B;" width="74.99" height="24.997"/>
<rect x="255.431" y="120.018" style="fill:#EAA22F;" width="38.064" height="24.997"/>
<rect x="218.505" y="359.365" style="fill:#FFC61B;" width="74.99" height="24.997"/>
<rect x="255.431" y="359.365" style="fill:#EAA22F;" width="38.064" height="24.997"/>
<path style="fill:#FFFFFF;" d="M289.864,369.492h-67.727c-22.712,0-41.125-18.413-41.125-41.126V176.012
	c0-22.712,18.413-41.126,41.125-41.126h67.727c22.712,0,41.126,18.413,41.126,41.126v152.354
	C330.99,351.08,312.577,369.492,289.864,369.492z"/>
<g>
	<path style="fill:#D0D1D3;" d="M289.864,134.887h-34.438v234.605h34.438c22.712,0,41.126-18.413,41.126-41.126V176.013
		C330.99,153.3,312.577,134.887,289.864,134.887z"/>
	<rect x="181.01" y="177.2" style="fill:#D0D1D3;" width="149.98" height="49.993"/>
	<rect x="181.01" y="277.187" style="fill:#D0D1D3;" width="149.98" height="49.993"/>
</g>
<g>
	<rect x="255.431" y="177.2" style="fill:#A6A8AA;" width="75.564" height="49.993"/>
	<rect x="255.431" y="277.187" style="fill:#A6A8AA;" width="75.564" height="49.993"/>
</g>
<circle style="fill:#D35933;" cx="256" cy="252.19" r="43.184"/>
<path style="fill:#B54324;" d="M256,209.013c-0.193,0-0.383,0.012-0.574,0.014v86.323c0.191,0.002,0.381,0.014,0.574,0.014
	c23.845,0,43.175-19.33,43.175-43.175C299.175,228.345,279.845,209.013,256,209.013z"/>
<path style="fill:#FFFFFF;" d="M262.611,245.029c8.344-3.574,15.355,1.762,15.355,1.762s-2.251,8.509-11.033,10.811
	c5.977,6.83,3.07,15.139,3.07,15.139s-8.788,0.488-13.691-7.152c-4.649,7.796-13.45,7.597-13.45,7.597s-3.189-8.213,2.562-15.236
	c-8.851-2.012-11.393-10.447-11.393-10.447s6.825-5.56,15.282-2.26c-0.821-9.04,6.416-14.052,6.416-14.052
	S263.137,235.968,262.611,245.029z"/>
<path style="fill:#D0D1D3;" d="M277.966,246.791c0,0-7.011-5.335-15.355-1.762c0.524-9.063-6.88-13.836-6.88-13.836
	s-0.112,0.078-0.305,0.229v35.492c0.309-0.415,0.607-0.855,0.888-1.326c4.903,7.639,13.691,7.152,13.691,7.152
	s2.907-8.309-3.07-15.139C275.715,255.3,277.966,246.791,277.966,246.791z"/>
<circle style="fill:#FF314F;" cx="255.724" cy="253.655" r="4.999"/>
<path style="fill:#A30F44;" d="M259.727,250.651c-1.048-1.393-2.682-2.079-4.301-1.981v9.954c1.146,0.071,2.32-0.228,3.31-0.972
	C260.942,255.991,261.385,252.857,259.727,250.651z"/>
<g>
</g>
<g>
</g>
<g>
</g>
<g>
</g>
<g>
</g>
<g>
</g>
<g>
</g>
<g>
</g>
<g>
</g>
<g>
</g>
<g>
</g>
<g>
</g>
<g>
</g>
<g>
</g>
<g>
</g>
</svg>
