<?xml version="1.0" encoding="iso-8859-1"?>
<!-- Generator: Adobe Illustrator 19.0.0, SVG Export Plug-In . SVG Version: 6.00 Build 0)  -->
<svg version="1.1" id="Layer_1" xmlns="http://www.w3.org/2000/svg" xmlns:xlink="http://www.w3.org/1999/xlink" x="0px" y="0px"
	 viewBox="0 0 512 512" style="enable-background:new 0 0 512 512;" xml:space="preserve">
<circle style="fill:#273B7A;" cx="256" cy="256" r="256"/>
<path style="fill:#121149;" d="M312.487,505.734c92.438-20.82,165.928-91.641,190.588-182.562L259.046,80.496l-18.718,193.317
	l-7.601-3.16l-81.118,37.971l87.074,87.792l-3.701,33.089L312.487,505.734z"/>
<path style="fill:#E09112;" d="M256,215.966L256,215.966c-2.381,0-4.31-1.929-4.31-4.31V83.539c0-2.381,1.929-4.31,4.31-4.31l0,0
	c2.381,0,4.31,1.929,4.31,4.31v128.117C260.31,214.037,258.381,215.966,256,215.966z"/>
<path style="fill:#FF5419;" d="M256,79.229c-0.197,0-0.384,0.033-0.574,0.057v136.621c0.19,0.026,0.378,0.059,0.574,0.059
	c2.381,0,4.31-1.929,4.31-4.31V83.539C260.31,81.158,258.381,79.229,256,79.229z"/>
<path style="fill:#E09112;" d="M256,439.842L256,439.842c-1.731,0-3.134-1.403-3.134-3.134v-93.177c0-1.731,1.403-3.134,3.134-3.134
	l0,0c1.731,0,3.134,1.403,3.134,3.134v93.177C259.134,438.439,257.731,439.842,256,439.842z"/>
<g>
	<path style="fill:#FF5419;" d="M256,340.397c-0.197,0-0.388,0.024-0.574,0.059v99.33c0.186,0.034,0.378,0.059,0.574,0.059
		c1.731,0,3.134-1.403,3.134-3.134v-93.177C259.134,341.801,257.731,340.397,256,340.397z"/>
	<path style="fill:#FF5419;" d="M274.806,430.44L274.806,430.44c-1.731,0-3.134-1.403-3.134-3.134v-93.177
		c0-1.731,1.403-3.134,3.134-3.134l0,0c1.731,0,3.134,1.403,3.134,3.134v93.177C277.94,429.037,276.537,430.44,274.806,430.44z"/>
</g>
<path style="fill:#E09112;" d="M237.194,430.44L237.194,430.44c-1.731,0-3.134-1.403-3.134-3.134v-93.177
	c0-1.731,1.403-3.134,3.134-3.134l0,0c1.731,0,3.134,1.403,3.134,3.134v93.177C240.328,429.037,238.925,430.44,237.194,430.44z"/>
<path style="fill:#C92F00;" d="M256,167.674c-0.193,0-0.381,0.009-0.574,0.01V344.96c0.193,0,0.381,0.01,0.574,0.01
	c71.406,0,129.293-39.689,129.293-88.648C385.293,207.362,327.406,167.674,256,167.674z"/>
<path style="fill:#FF5419;" d="M126.707,256.321c0,48.826,57.578,88.424,128.719,88.638V167.683
	C184.286,167.896,126.707,207.494,126.707,256.321z"/>
<path style="fill:#EAA22F;" d="M256,167.674c-0.193,0-0.381,0.014-0.574,0.014v177.266c0.193,0.002,0.381,0.014,0.574,0.014
	c48.469,0,87.762-39.689,87.762-88.648C343.762,207.362,304.469,167.674,256,167.674z"/>
<path style="fill:#FFC61B;" d="M168.238,256.321c0,48.764,38.984,88.319,87.188,88.633V167.688
	C207.222,168.002,168.238,207.557,168.238,256.321z"/>
<ellipse style="fill:#FF5419;" cx="256" cy="256.328" rx="36.045" ry="88.643"/>
<path style="fill:#C92F00;" d="M256,167.674c-0.193,0-0.383,0.028-0.574,0.036v177.224c0.191,0.007,0.381,0.036,0.574,0.036
	c19.908,0,36.045-39.689,36.045-88.648C292.045,207.362,275.908,167.674,256,167.674z"/>
<rect x="204.283" y="152.893" style="fill:#FEE187;" width="103.434" height="22.163"/>
<rect x="255.431" y="152.893" style="fill:#FFC61B;" width="52.291" height="22.163"/>
<rect x="204.283" y="337.592" style="fill:#FEE187;" width="103.434" height="22.163"/>
<rect x="255.431" y="337.592" style="fill:#FFC61B;" width="52.296" height="22.163"/>
<g>
</g>
<g>
</g>
<g>
</g>
<g>
</g>
<g>
</g>
<g>
</g>
<g>
</g>
<g>
</g>
<g>
</g>
<g>
</g>
<g>
</g>
<g>
</g>
<g>
</g>
<g>
</g>
<g>
</g>
</svg>
