<?xml version="1.0" encoding="iso-8859-1"?>
<!-- Generator: Adobe Illustrator 19.0.0, SVG Export Plug-In . SVG Version: 6.00 Build 0)  -->
<svg version="1.1" id="Layer_1" xmlns="http://www.w3.org/2000/svg" xmlns:xlink="http://www.w3.org/1999/xlink" x="0px" y="0px"
	 viewBox="0 0 512 512" style="enable-background:new 0 0 512 512;" xml:space="preserve">
<circle style="fill:#273B7A;" cx="256" cy="256" r="256"/>
<path style="fill:#121149;" d="M65.502,288.939l221.22,221.22c105.013-12.562,190.486-88.685,216.847-188.804l-86.804-86.804
	l-3.667,3.822l-55.272-55.272l-36.742,57.697L256,175.714l-3.701,46.34l49.316,49.316l-11.181,17.558L65.502,288.939z"/>
<polygon style="fill:#FFFFFF;" points="255.995,359.267 201.045,246.999 255.998,175.714 310.953,247.006 "/>
<polygon style="fill:#D0D1D3;" points="255.998,175.714 310.953,247.006 255.995,359.267 "/>
<path style="fill:#A30F44;" d="M255.995,359.267l46.397-55.879c9.237-11.123,23.056-17.405,37.509-17.053l106.584,2.601
	l-55.468,48.992c-9.023,7.968-20.402,12.767-32.408,13.665L255.995,359.267z"/>
<path style="fill:#FF314F;" d="M255.995,359.267l-46.401-55.879c-9.237-11.123-23.056-17.405-37.509-17.053l-106.584,2.601
	l55.468,48.992c9.023,7.968,20.402,12.767,32.408,13.665L255.995,359.267z"/>
<path style="fill:#FF6262;" d="M255.995,359.267l-27.455-67.401c-5.467-13.415-16.774-23.592-30.691-27.619L95.225,234.551
	l38.207,63.559c6.215,10.338,15.639,18.36,26.838,22.842L255.995,359.267z"/>
<path style="fill:#FF314F;" d="M255.995,359.267l27.453-67.401c5.466-13.415,16.774-23.592,30.691-27.619l102.624-29.696
	l-38.207,63.559c-6.215,10.338-15.639,18.36-26.838,22.842L255.995,359.267z"/>
<path style="fill:#FFAD9E;" d="M255.995,359.267l-0.002-72.782c0-14.488-6.632-28.177-17.999-37.159l-83.832-66.227l11.398,73.278
	c1.853,11.919,7.556,22.904,16.234,31.28L255.995,359.267z"/>
<path style="fill:#FF6262;" d="M255.995,359.267v-72.782c0-14.488,6.632-28.177,17.999-37.159l83.832-66.227l-11.398,73.278
	c-1.853,11.919-7.556,22.904-16.234,31.28L255.995,359.267z"/>
<g>
</g>
<g>
</g>
<g>
</g>
<g>
</g>
<g>
</g>
<g>
</g>
<g>
</g>
<g>
</g>
<g>
</g>
<g>
</g>
<g>
</g>
<g>
</g>
<g>
</g>
<g>
</g>
<g>
</g>
</svg>
