<?xml version="1.0" encoding="iso-8859-1"?>
<!-- Generator: Adobe Illustrator 19.0.0, SVG Export Plug-In . SVG Version: 6.00 Build 0)  -->
<svg version="1.1" id="Layer_1" xmlns="http://www.w3.org/2000/svg" xmlns:xlink="http://www.w3.org/1999/xlink" x="0px" y="0px"
	 viewBox="0 0 512 512" style="enable-background:new 0 0 512 512;" xml:space="preserve">
<circle style="fill:#273B7A;" cx="256" cy="256" r="256"/>
<path style="fill:#121149;" d="M506.692,308.086l-180.4-180.398L186.578,300.93l-21.39,64.269l141.729,141.729
	C407.061,486.717,486.026,408.066,506.692,308.086z"/>
<path style="fill:#FEE187;" d="M373.593,209.963v95.413c0,13.417-10.878,24.295-24.295,24.295h-11.043l-7.951-120.591
	L373.593,209.963z"/>
<path style="fill:#FFFFFF;" d="M145.958,310.675c0-56.923,46.146-103.069,103.069-103.069s103.069,46.146,103.069,103.069
	s-46.146,87.168-103.069,87.168S145.958,367.599,145.958,310.675z"/>
<path style="fill:#D0D1D3;" d="M352.096,310.675c0-56.801-45.949-102.862-102.703-103.06v190.221
	C306.147,397.707,352.096,367.476,352.096,310.675z"/>
<path style="fill:#8BC180;" d="M320.586,236.761c0,0-12.662,84.221-71.854,84.221s-70.97-86.873-70.97-86.873L320.586,236.761z"/>
<path style="fill:#6CAF5F;" d="M320.586,236.761l-71.194-1.321v85.528C308.012,320.34,320.586,236.761,320.586,236.761z"/>
<path style="fill:#FF7F4F;" d="M219.77,134.013l-27.498-10.736c-11.778-4.599-24.497,4.087-24.497,16.732l0.215,55.52
	L219.77,134.013z"/>
<path style="fill:#D35933;" d="M279.192,134.013l27.498-10.736c11.778-4.599,24.497,4.087,24.497,16.732v55.408L279.192,134.013z"/>
<ellipse style="fill:#FFEDB5;" cx="249.484" cy="201.214" rx="81.713" ry="73.535"/>
<g>
	<path style="fill:#FEE187;" d="M249.482,127.688c-0.029,0-0.059,0.002-0.09,0.002v147.065c0.029,0,0.059,0.002,0.09,0.002
		c45.125,0,81.704-32.923,81.704-73.535S294.605,127.688,249.482,127.688z"/>
	<path style="fill:#FEE187;" d="M208.124,311.267c-40.002-8.57-46.071-44.396-46.99-54.431
		c-9.619,15.67-15.174,34.104-15.174,53.839c0,2.139,0.086,4.256,0.214,6.363c4.508,15.25,17.536,29.593,46.68,38.072
		c16.653,4.846,33.764-3.632,33.764-20.976l0,0C226.616,323.105,218.907,313.577,208.124,311.267z"/>
</g>
<circle style="fill:#FFC61B;" cx="249.484" cy="291.099" r="16.341"/>
<path style="fill:#EAA22F;" d="M249.482,274.756c-0.029,0-0.059,0.005-0.09,0.005v32.673c0.029,0,0.059,0.005,0.09,0.005
	c9.025,0,16.341-7.316,16.341-16.341C265.823,282.072,258.507,274.756,249.482,274.756z"/>
<path d="M295.04,205.95c-0.71,0-1.415-0.29-1.927-0.86c-2.393-2.667-5.803-4.198-9.359-4.198s-6.966,1.531-9.359,4.198
	c-0.955,1.064-2.588,1.155-3.651,0.2s-1.153-2.589-0.2-3.651c3.372-3.762,8.187-5.918,13.21-5.918s9.838,2.157,13.21,5.918
	c0.953,1.062,0.864,2.696-0.2,3.651C296.27,205.733,295.655,205.95,295.04,205.95z"/>
<path d="M226.495,205.95c-0.71,0-1.415-0.29-1.927-0.86c-2.391-2.667-5.801-4.198-9.359-4.198c-3.556,0-6.966,1.531-9.359,4.198
	c-0.955,1.064-2.588,1.155-3.651,0.2s-1.153-2.589-0.2-3.651c3.372-3.762,8.187-5.918,13.21-5.918c5.025,0,9.84,2.157,13.21,5.918
	c0.953,1.064,0.864,2.698-0.2,3.651C227.726,205.733,227.109,205.95,226.495,205.95z"/>
<path style="fill:#B54324;" d="M266.812,237.754c-1.427,0-2.586,1.158-2.586,2.586c0,3.217-2.617,5.834-5.832,5.834
	c-3.37,0-6.328-2.725-6.328-5.834v-27.977c0-1.427-1.158-2.586-2.586-2.586c-1.427,0-2.586,1.158-2.586,2.586v27.977
	c0,3.108-2.956,5.834-6.327,5.834c-3.217,0-5.834-2.617-5.834-5.834c0-1.427-1.158-2.586-2.586-2.586s-2.586,1.158-2.586,2.586
	c0,6.07,4.936,11.005,11.005,11.005c3.551,0,6.784-1.639,8.913-4.151c2.129,2.512,5.361,4.151,8.914,4.151
	c6.068,0,11.004-4.936,11.004-11.005C269.398,238.913,268.241,237.754,266.812,237.754z"/>
<path style="fill:#930000;" d="M266.812,237.754c-1.427,0-2.586,1.158-2.586,2.586c0,3.217-2.617,5.834-5.832,5.834
	c-3.37,0-6.328-2.725-6.328-5.834v-27.977c0-1.427-1.158-2.586-2.586-2.586c-0.031,0-0.059,0.009-0.09,0.009v37.502
	c0.028-0.033,0.062-0.062,0.09-0.095c2.129,2.512,5.361,4.151,8.914,4.151c6.068,0,11.004-4.936,11.004-11.005
	C269.398,238.913,268.241,237.754,266.812,237.754z"/>
<path style="fill:#D35933;" d="M264.832,211.868c0,4.239-15.351,7.675-15.351,7.675s-15.351-3.436-15.351-7.675
	s6.873-7.675,15.351-7.675C257.96,204.193,264.832,207.629,264.832,211.868z"/>
<path style="fill:#B54324;" d="M249.482,204.193c-0.029,0-0.059,0.002-0.09,0.002v15.327c0.031,0.007,0.09,0.021,0.09,0.021
	s15.351-3.436,15.351-7.675C264.833,207.629,257.96,204.193,249.482,204.193z"/>
<g>
	<path style="fill:#FF7F4F;" d="M222.636,182.512c-1.427,0-2.586-1.158-2.586-2.586V163.14c0-1.427,1.158-2.586,2.586-2.586
		s2.586,1.158,2.586,2.586v16.786C225.221,181.353,224.063,182.512,222.636,182.512z"/>
	<path style="fill:#FF7F4F;" d="M208.205,182.512c-1.427,0-2.586-1.158-2.586-2.586V163.14c0-1.427,1.158-2.586,2.586-2.586
		s2.586,1.158,2.586,2.586v16.786C210.791,181.353,209.634,182.512,208.205,182.512z"/>
	<path style="fill:#FF7F4F;" d="M291.433,182.512c-1.427,0-2.586-1.158-2.586-2.586V163.14c0-1.427,1.158-2.586,2.586-2.586
		s2.586,1.158,2.586,2.586v16.786C294.019,181.353,292.861,182.512,291.433,182.512z"/>
	<path style="fill:#FF7F4F;" d="M277.004,182.512c-1.427,0-2.586-1.158-2.586-2.586V163.14c0-1.427,1.158-2.586,2.586-2.586
		s2.586,1.158,2.586,2.586v16.786C279.59,181.353,278.431,182.512,277.004,182.512z"/>
</g>
<path style="fill:#FFC61B;" d="M382.133,204.972c0,12.073-13.843,16.527-30.92,16.527c-17.077,0-30.92-4.455-30.92-16.527
	c0-12.072,13.843-21.857,30.92-21.857C368.29,183.115,382.133,192.9,382.133,204.972z"/>
<g>
	<path style="fill:#E09112;" d="M335.974,218.359c-0.953,0-1.724-0.771-1.724-1.724v-11.09c0-0.953,0.771-1.724,1.724-1.724
		s1.724,0.771,1.724,1.724v11.09C337.698,217.588,336.925,218.359,335.974,218.359z"/>
	<path style="fill:#E09112;" d="M350.108,219.638c-0.953,0-1.724-0.771-1.724-1.724v-11.09c0-0.953,0.771-1.724,1.724-1.724
		s1.724,0.771,1.724,1.724v11.09C351.832,218.867,351.061,219.638,350.108,219.638z"/>
	<path style="fill:#E09112;" d="M364.242,218.465c-0.953,0-1.724-0.771-1.724-1.724v-11.09c0-0.953,0.771-1.724,1.724-1.724
		s1.724,0.771,1.724,1.724v11.09C365.966,217.693,365.196,218.465,364.242,218.465z"/>
</g>
<g>
</g>
<g>
</g>
<g>
</g>
<g>
</g>
<g>
</g>
<g>
</g>
<g>
</g>
<g>
</g>
<g>
</g>
<g>
</g>
<g>
</g>
<g>
</g>
<g>
</g>
<g>
</g>
<g>
</g>
</svg>
