<?xml version="1.0" encoding="iso-8859-1"?>
<!-- Generator: Adobe Illustrator 19.0.0, SVG Export Plug-In . SVG Version: 6.00 Build 0)  -->
<svg version="1.1" id="Layer_1" xmlns="http://www.w3.org/2000/svg" xmlns:xlink="http://www.w3.org/1999/xlink" x="0px" y="0px"
	 viewBox="0 0 512 512" style="enable-background:new 0 0 512 512;" xml:space="preserve">
<circle style="fill:#71E2EF;" cx="256" cy="256" r="256"/>
<g>
	<path style="fill:#38C6D9;" d="M361.243,489.434L160.371,288.563l-13.521,1.372l-24.069,25.248l12.917,12.917l-30.242,14.51
		l13.645,12.664l-2.986,0.396l26.026,26.748l2.053-2.053l30.658-13.115l1.148,1.148l109.847,141.858
		C312.432,507.171,337.782,500.027,361.243,489.434z"/>
	<path style="fill:#38C6D9;" d="M499.207,336.081L306.821,143.694l-46.882,212.782l122.28,122.28
		C437.014,447.641,479.192,396.897,499.207,336.081z"/>
</g>
<path style="fill:#FF5419;" d="M118.525,356.681c-0.772,0-1.548-0.257-2.191-0.788c-1.47-1.21-1.681-3.384-0.467-4.851
	l13.965-16.948l-20.602,9.171c-1.743,0.771-3.777-0.007-4.553-1.748c-0.774-1.739,0.009-3.777,1.748-4.553l33.973-15.122
	c1.464-0.653,3.179-0.209,4.146,1.062c0.969,1.274,0.934,3.046-0.084,4.279l-23.273,28.241
	C120.506,356.254,119.518,356.681,118.525,356.681z"/>
<polygon style="fill:#FFFFFF;" points="160.065,312.925 137.045,282.191 122.427,292.543 146.385,326.375 "/>
<polygon style="fill:#D0D1D3;" points="131.17,286.349 122.427,292.543 146.385,326.375 153.019,319.852 "/>
<path style="fill:#FF5419;" d="M283.822,500.065c13.95-6.832,27.682-14.276,41.605-21.264
	C221.787,399.827,160.98,307.576,160.98,307.576l-20.675,14.641C180.791,394.649,243.655,461.319,283.822,500.065z"/>
<g>
	<path style="fill:#C92F00;" d="M140.304,322.215c28.805,51.534,68.93,100.138,104.157,137.857l-94.405-144.763L140.304,322.215z"/>
	<path style="fill:#C92F00;" d="M146.856,291.618c0,0-25.712-38.288-36.948-60.664c-1.639-3.263-5.734-4.389-8.82-2.438
		l-12.872,8.139c-2.82,1.784-3.72,5.477-2.029,8.354c6.237,10.611,21.875,35.706,42.775,58.528L146.856,291.618z"/>
</g>
<path style="fill:#930000;" d="M95.684,231.933l-7.468,4.722c-2.82,1.784-3.72,5.477-2.029,8.354
	c6.237,10.612,21.875,35.706,42.775,58.528l9.354-6.232L95.684,231.933z"/>
<rect x="133.92" y="274.885" transform="matrix(0.5779 0.8161 -0.8161 0.5779 301.7108 12.4882)" style="fill:#D35933;" width="9.724" height="46.062"/>
<polygon style="fill:#B54324;" points="136.068,293.859 117.162,307.248 122.782,315.183 141.383,302.009 "/>
<path style="fill:#FFC61B;" d="M173.301,313.03c-0.902-1.274-2.508-1.736-3.918-1.257c0.386-1.033,0.271-2.234-0.415-3.201
	c-0.402-0.567-0.945-0.972-1.546-1.208c0.812-1.158,0.865-2.743,0-3.965c-1.1-1.55-3.25-1.924-4.806-0.821l-26,18.413
	c-1.553,1.1-1.92,3.253-0.821,4.806c0.379,0.534,0.888,0.91,1.448,1.153c-1.015,1.172-1.15,2.922-0.214,4.244
	c0.645,0.91,1.653,1.402,2.689,1.439c-1.31,1.15-1.579,3.117-0.548,4.57c0.672,0.948,1.736,1.455,2.817,1.455
	c0.688,0,1.384-0.205,1.989-0.634l28.506-20.189C174.035,316.737,174.402,314.583,173.301,313.03z"/>
<path style="fill:#EAA22F;" d="M148.344,312.685l-11.729,8.308c-1.553,1.1-1.92,3.253-0.821,4.806
	c0.379,0.534,0.888,0.91,1.448,1.153c-1.015,1.172-1.15,2.922-0.214,4.244c0.645,0.91,1.653,1.402,2.689,1.439
	c-1.31,1.15-1.579,3.117-0.548,4.57c0.672,0.948,1.736,1.455,2.817,1.455c0.688,0,1.384-0.205,1.989-0.634l14.295-10.123
	L148.344,312.685z"/>
<path style="fill:#59595B;" d="M295.576,339.789v-20.77h-79.434v20.77l-26.178,5.791c-1.129,1.129,0,130.122,0,130.122h132.239
	V345.579L295.576,339.789z"/>
<polygon style="fill:#3D3D3F;" points="322.203,345.579 295.576,339.789 295.576,319.019 255.426,319.019 255.426,475.701 
	322.203,475.701 "/>
<path style="fill:#FFEDB5;" d="M334.946,223.827c0,47.111-35.345,109.027-78.946,109.027s-78.946-61.918-78.946-109.027
	s35.345-85.301,78.946-85.301S334.946,176.716,334.946,223.827z"/>
<path style="fill:#FEE187;" d="M256,138.524c-0.193,0-0.381,0.014-0.574,0.016v194.288c0.193,0.002,0.381,0.026,0.574,0.026
	c43.601,0,78.946-61.918,78.946-109.027S299.601,138.524,256,138.524z"/>
<path style="fill:#383535;" d="M256,512c57.075,0,109.782-18.685,152.352-50.262l-26.145-76.605
	c-4.482-13.131-14.634-23.549-27.645-28.365l-41.674-15.434L256,369.778l-56.889-28.444l-41.674,15.432
	c-13.01,4.818-23.162,15.236-27.645,28.365l-26.145,76.605C146.218,493.315,198.925,512,256,512z"/>
<path style="fill:#272525;" d="M408.352,461.738l-26.145-76.605c-4.482-13.131-14.634-23.547-27.645-28.365l-41.674-15.434
	L256,369.778l-0.574-0.288v142.503c0.191,0,0.383,0.005,0.574,0.005C313.075,512,365.782,493.315,408.352,461.738z"/>
<path style="fill:#383535;" d="M256,120.522c-46.177,0-83.609,52.71-83.609,102.603S209.823,338.592,256,338.592
	s83.609-65.574,83.609-115.467S302.177,120.522,256,120.522z M309.576,240.254H202.426v-26.788h107.149V240.254z"/>
<path style="fill:#272525;" d="M256,120.522c-0.193,0-0.381,0.019-0.574,0.021v92.924h54.15v26.788h-54.15v98.314
	c0.193,0.002,0.381,0.026,0.574,0.026c46.177,0,83.609-65.574,83.609-115.467C339.609,173.232,302.177,120.522,256,120.522z"/>
<g>
</g>
<g>
</g>
<g>
</g>
<g>
</g>
<g>
</g>
<g>
</g>
<g>
</g>
<g>
</g>
<g>
</g>
<g>
</g>
<g>
</g>
<g>
</g>
<g>
</g>
<g>
</g>
<g>
</g>
</svg>
