<?xml version="1.0" encoding="iso-8859-1"?>
<!-- Generator: Adobe Illustrator 19.0.0, SVG Export Plug-In . SVG Version: 6.00 Build 0)  -->
<svg version="1.1" id="Layer_1" xmlns="http://www.w3.org/2000/svg" xmlns:xlink="http://www.w3.org/1999/xlink" x="0px" y="0px"
	 viewBox="0 0 512 512" style="enable-background:new 0 0 512 512;" xml:space="preserve">
<circle style="fill:#273B7A;" cx="256" cy="256" r="256"/>
<path style="fill:#121149;" d="M358.052,108.391l-93.618,29.263l-3.572-3.76l-2.007,5.48l-12.309,5.325l-3.465-3.465l-0.496,5.179
	l-12.195,5.277l-5.142-5.142l0.479,7.159l-3.825,1.655l-2.103,10.49l-12.319-12.076l-7.866,47.995l-28.265,15.331l100.893,101.109
	l-111.957,32.387l38.638,38.638l-5.101,4.999l112.757,112.757C421.5,483.961,508.613,383.986,511.897,263.08L358.052,108.391z"/>
<path style="fill:#D35933;" d="M209.205,171.239c-2.838,0-5.494-1.762-6.499-4.589c-1.274-3.587,0.602-7.53,4.191-8.806
	l143.931-51.134c3.586-1.276,7.53,0.6,8.806,4.191c1.274,3.587-0.602,7.53-4.191,8.806l-143.931,51.134
	C210.751,171.111,209.972,171.239,209.205,171.239z"/>
<g>
	<path style="fill:#FFEDB5;" d="M220.372,291.628c-3.808,0-6.896-3.088-6.896-6.896V151.416c0-3.808,3.088-6.896,6.896-6.896
		c3.808,0,6.896,3.088,6.896,6.896v133.317C227.268,288.54,224.18,291.628,220.372,291.628z"/>
	<path style="fill:#FFEDB5;" d="M238.187,206.007c-3.808,0-6.896-3.088-6.896-6.896v-53.01c0-3.808,3.088-6.896,6.896-6.896
		s6.896,3.088,6.896,6.896v53.01C245.083,202.919,241.995,206.007,238.187,206.007z"/>
	<path style="fill:#FFEDB5;" d="M202.559,215.488c-3.808,0-6.896-3.088-6.896-6.896v-49.993c0-3.808,3.088-6.896,6.896-6.896
		s6.896,3.088,6.896,6.896v49.993C209.455,212.401,206.367,215.488,202.559,215.488z"/>
	<path style="fill:#FFEDB5;" d="M256,237.611c-3.808,0-6.896-3.088-6.896-6.896v-91.941c0-3.808,3.088-6.896,6.896-6.896
		c3.808,0,6.896,3.088,6.896,6.896v91.941C262.896,234.524,259.808,237.611,256,237.611z"/>
</g>
<rect x="193.819" y="362.399" style="fill:#EAA22F;" width="124.363" height="31.841"/>
<rect x="255.431" y="362.399" style="fill:#FF5419;" width="62.752" height="31.841"/>
<path style="fill:#FFC61B;" d="M292.647,375.613h-73.294c-45.454,0-82.303-36.848-82.303-82.303v-36.647h237.899v36.647
	C374.949,338.765,338.101,375.613,292.647,375.613z"/>
<path style="fill:#EAA22F;" d="M255.426,256.664v118.949h37.221c45.454,0,82.303-36.848,82.303-82.303v-36.647H255.426z"/>
<path style="fill:#B54324;" d="M175.988,219.022c-3.451,0-6.43-2.584-6.84-6.096c-0.443-3.781,2.265-7.208,6.049-7.649
	l222.723-26.031c3.765-0.434,7.208,2.263,7.649,6.049c0.443,3.781-2.265,7.208-6.049,7.649l-222.723,26.031
	C176.525,219.007,176.256,219.022,175.988,219.022z"/>
<g>
</g>
<g>
</g>
<g>
</g>
<g>
</g>
<g>
</g>
<g>
</g>
<g>
</g>
<g>
</g>
<g>
</g>
<g>
</g>
<g>
</g>
<g>
</g>
<g>
</g>
<g>
</g>
<g>
</g>
</svg>
