<?xml version="1.0" encoding="iso-8859-1"?>
<!-- Generator: Adobe Illustrator 19.0.0, SVG Export Plug-In . SVG Version: 6.00 Build 0)  -->
<svg version="1.1" id="Layer_1" xmlns="http://www.w3.org/2000/svg" xmlns:xlink="http://www.w3.org/1999/xlink" x="0px" y="0px"
	 viewBox="0 0 512 512" style="enable-background:new 0 0 512 512;" xml:space="preserve">
<circle style="fill:#386895;" cx="256" cy="256" r="256"/>
<path style="fill:#273B7A;" d="M314.084,505.378c93.694-21.737,167.648-94.918,190.531-188.166L260.886,74.868l-1.95,236.327
	l-63.817,75.217L314.084,505.378z"/>
<path style="fill:#FF5419;" d="M303.632,391.901h-95.263c-10.349,0-18.739-8.39-18.739-18.739V202.819
	c0-6.265,3.131-12.117,8.344-15.593l47.632-31.754c6.294-4.196,14.495-4.196,20.789,0l47.632,31.754
	c5.213,3.475,8.344,9.326,8.344,15.593v170.343C322.37,383.512,313.98,391.901,303.632,391.901z"/>
<path style="fill:#C92F00;" d="M314.025,187.227l-47.632-31.754c-3.313-2.208-7.154-3.243-10.969-3.127v239.554h48.206
	c10.349,0,18.739-8.39,18.739-18.739V202.818C322.37,196.553,319.24,190.702,314.025,187.227z"/>
<path style="fill:#FFFFFF;" d="M236.499,232.727c-10.693,0-19.394-8.701-19.394-19.394s8.701-19.394,19.394-19.394
	s19.394,8.701,19.394,19.394S247.193,232.727,236.499,232.727z M236.499,204.283c-4.991,0-9.051,4.06-9.051,9.051
	s4.06,9.051,9.051,9.051c4.991,0,9.051-4.06,9.051-9.051S241.488,204.283,236.499,204.283z"/>
<path style="fill:#D0D1D3;" d="M275.503,232.727c-10.693,0-19.394-8.701-19.394-19.394s8.701-19.394,19.394-19.394
	s19.394,8.701,19.394,19.394S286.196,232.727,275.503,232.727z M275.503,204.283c-4.991,0-9.051,4.06-9.051,9.051
	s4.06,9.051,9.051,9.051c4.991,0,9.051-4.06,9.051-9.051S280.492,204.283,275.503,204.283z"/>
<path style="fill:#FFFFFF;" d="M256,183.165c-3.808,0-6.896-3.088-6.896-6.896V79.731c0-3.808,3.088-6.896,6.896-6.896
	c3.808,0,6.896,3.088,6.896,6.896v96.539C262.896,180.077,259.808,183.165,256,183.165z"/>
<path style="fill:#D0D1D3;" d="M256,72.835c-0.197,0-0.381,0.041-0.574,0.059v110.214c0.193,0.017,0.378,0.059,0.574,0.059
	c3.808,0,6.896-3.088,6.896-6.896V79.732C262.896,75.923,259.808,72.835,256,72.835z"/>
<path style="fill:#FF6262;" d="M299.163,325.258c7.459-3.194,13.726,1.574,13.726,1.574s-2.014,7.608-9.862,9.664
	c5.344,6.106,2.744,13.534,2.744,13.534s-7.856,0.436-12.238-6.394c-4.156,6.97-12.023,6.792-12.023,6.792
	s-2.851-7.342,2.289-13.619c-7.913-1.8-10.185-9.34-10.185-9.34s6.101-4.97,13.66-2.02c-0.734-8.082,5.735-12.56,5.735-12.56
	S299.632,317.157,299.163,325.258z"/>
<circle style="fill:#FF314F;" cx="293.012" cy="332.972" r="4.468"/>
<path style="fill:#FFAD9E;" d="M242.274,259.274c7.459-3.194,13.726,1.574,13.726,1.574s-2.014,7.608-9.862,9.664
	c5.344,6.106,2.744,13.534,2.744,13.534s-7.856,0.436-12.238-6.394c-4.156,6.97-12.023,6.792-12.023,6.792
	s-2.851-7.342,2.289-13.619c-7.913-1.8-10.185-9.34-10.185-9.34s6.101-4.97,13.66-2.02c-0.734-8.082,5.735-12.56,5.735-12.56
	S242.743,251.173,242.274,259.274z"/>
<circle style="fill:#FF314F;" cx="236.123" cy="266.981" r="4.468"/>
<path style="fill:#FFAD9E;" d="M224.659,344.607c7.459-3.194,13.726,1.574,13.726,1.574s-2.014,7.608-9.862,9.664
	c5.344,6.106,2.744,13.534,2.744,13.534s-7.856,0.436-12.238-6.394c-4.156,6.97-12.023,6.792-12.023,6.792
	s-2.851-7.342,2.289-13.619c-7.913-1.8-10.185-9.34-10.185-9.34s6.101-4.97,13.66-2.02c-0.734-8.082,5.735-12.56,5.735-12.56
	S225.128,336.506,224.659,344.607z"/>
<circle style="fill:#FF314F;" cx="218.505" cy="352.315" r="4.468"/>
<rect x="227.556" y="256" style="fill:#EAA22F;" width="56.889" height="113.778"/>
<rect x="255.431" y="256" style="fill:#E09112;" width="29.018" height="113.778"/>
<g>
</g>
<g>
</g>
<g>
</g>
<g>
</g>
<g>
</g>
<g>
</g>
<g>
</g>
<g>
</g>
<g>
</g>
<g>
</g>
<g>
</g>
<g>
</g>
<g>
</g>
<g>
</g>
<g>
</g>
</svg>
