<?xml version="1.0" encoding="iso-8859-1"?>
<!-- Generator: Adobe Illustrator 19.0.0, SVG Export Plug-In . SVG Version: 6.00 Build 0)  -->
<svg version="1.1" id="Layer_1" xmlns="http://www.w3.org/2000/svg" xmlns:xlink="http://www.w3.org/1999/xlink" x="0px" y="0px"
	 viewBox="0 0 512 512" style="enable-background:new 0 0 512 512;" xml:space="preserve">
<circle style="fill:#D35933;" cx="256" cy="256" r="256"/>
<path style="fill:#B54324;" d="M506.504,308.948l-113.5-113.5l-142.176,57.678L86.1,321.333l189.893,189.893
	C390.234,502.401,483.443,418.59,506.504,308.948z"/>
<path style="fill:#FFC61B;" d="M93.384,324.673h325.232c5.322,0,9.637-4.315,9.637-9.637l0,0c0-5.322-4.315-9.637-9.637-9.637
	H93.384c-5.322,0-9.637,4.315-9.637,9.637l0,0C83.749,320.359,88.062,324.673,93.384,324.673z"/>
<path style="fill:#EAA22F;" d="M418.616,305.4H264.62v19.273h153.995c5.322,0,9.637-4.315,9.637-9.637S423.938,305.4,418.616,305.4z
	"/>
<path style="fill:#FFFFFF;" d="M397.336,310.62H290.737c-13.555,0-23.721-12.4-21.063-25.693l12.94-64.695
	c4.898-24.488,26.398-42.115,51.371-42.115h20.104c24.973,0,46.473,17.627,51.371,42.115l12.94,64.695
	C421.057,298.218,410.891,310.62,397.336,310.62z"/>
<path style="fill:#D0D1D3;" d="M418.399,284.927l-12.94-64.695c-4.898-24.488-26.398-42.115-51.371-42.115h-10.169v132.501h53.417
	C410.891,310.62,421.057,298.218,418.399,284.927z"/>
<rect x="305.493" y="257.62" style="fill:#59595B;" width="77.091" height="53"/>
<rect x="343.919" y="257.62" style="fill:#272525;" width="38.664" height="53"/>
<path style="fill:#FFFFFF;" d="M317.836,310.62H211.237c-13.555,0-23.721-12.4-21.063-25.693l12.94-64.695
	c4.898-24.488,26.398-42.115,51.371-42.115h20.104c24.973,0,46.473,17.627,51.371,42.115l12.94,64.695
	C341.557,298.218,331.39,310.62,317.836,310.62z"/>
<path style="fill:#D0D1D3;" d="M338.899,284.927l-12.94-64.695c-4.898-24.488-26.398-42.115-51.371-42.115h-9.969v132.501h53.215
	C331.39,310.62,341.557,298.218,338.899,284.927z"/>
<rect x="225.987" y="257.62" style="fill:#59595B;" width="77.091" height="53"/>
<rect x="264.62" y="257.62" style="fill:#272525;" width="38.462" height="53"/>
<path style="fill:#FFFFFF;" d="M221.263,310.62H114.664c-13.555,0-23.721-12.4-21.063-25.693l12.94-64.695
	c4.898-24.488,26.398-42.115,51.371-42.115h20.104c24.973,0,46.473,17.627,51.371,42.115l12.94,64.695
	C244.984,298.218,234.818,310.62,221.263,310.62z"/>
<path style="fill:#D0D1D3;" d="M242.326,284.927l-12.94-64.695c-4.898-24.488-26.398-42.115-51.371-42.115h-10.221v132.501h53.469
	C234.818,310.62,244.984,298.218,242.326,284.927z"/>
<rect x="129.414" y="257.62" style="fill:#59595B;" width="77.091" height="53"/>
<rect x="167.788" y="257.62" style="fill:#272525;" width="38.715" height="53"/>
<g>
</g>
<g>
</g>
<g>
</g>
<g>
</g>
<g>
</g>
<g>
</g>
<g>
</g>
<g>
</g>
<g>
</g>
<g>
</g>
<g>
</g>
<g>
</g>
<g>
</g>
<g>
</g>
<g>
</g>
</svg>
