<?xml version="1.0" encoding="iso-8859-1"?>
<!-- Generator: Adobe Illustrator 19.0.0, SVG Export Plug-In . SVG Version: 6.00 Build 0)  -->
<svg version="1.1" id="Layer_1" xmlns="http://www.w3.org/2000/svg" xmlns:xlink="http://www.w3.org/1999/xlink" x="0px" y="0px"
	 viewBox="0 0 512 512" style="enable-background:new 0 0 512 512;" xml:space="preserve">
<circle style="fill:#273B7A;" cx="256" cy="256" r="256"/>
<path style="fill:#121149;" d="M311.946,505.851c97.373-21.709,173.827-98.873,194.5-196.634l-79.036-79.036l-20.366,13.583
	l-70.28-70.28l-9.719,27.896l-44.737-44.737l-40.062,73.644l42.432,42.432l11.548,9.138l28.036,17.118l-26.114,17.417
	L137.087,155.333l-22.359,36.312L82.63,209.791l144.563,144.563l-47.933,18.81L311.946,505.851z"/>
<polygon style="fill:#A6A8AA;" points="173.392,264.459 282.307,156.644 282.307,243.557 184.472,365.149 157.479,338.156 "/>
<polygon style="fill:#808183;" points="282.307,156.644 282.307,243.557 184.472,365.149 "/>
<polyline style="fill:#FFFFFF;" points="137.087,155.333 82.629,209.791 155.239,209.791 "/>
<polygon style="fill:#D0D1D3;" points="156.063,349.97 118.934,209.791 137.087,155.333 211.465,338.156 "/>
<g>
	<polygon style="fill:#FFFFFF;" points="319.438,284.169 427.41,230.183 318.612,373.164 	"/>
	<polygon style="fill:#FFFFFF;" points="336.765,173.485 336.765,318.707 318.612,373.164 179.259,373.165 156.063,349.97 	"/>
</g>
<g>
	<polygon style="fill:#D0D1D3;" points="233.889,373.164 318.612,373.164 336.765,318.707 336.765,173.485 335.848,174.38 	"/>
	<polygon style="fill:#D0D1D3;" points="336.765,318.707 238.458,365.149 199.151,307.862 	"/>
</g>
<polygon style="fill:#A6A8AA;" points="238.195,364.768 238.458,365.149 336.765,318.707 264.733,313.03 "/>
<g>
</g>
<g>
</g>
<g>
</g>
<g>
</g>
<g>
</g>
<g>
</g>
<g>
</g>
<g>
</g>
<g>
</g>
<g>
</g>
<g>
</g>
<g>
</g>
<g>
</g>
<g>
</g>
<g>
</g>
</svg>
