<?xml version="1.0" encoding="iso-8859-1"?>
<!-- Generator: Adobe Illustrator 19.0.0, SVG Export Plug-In . SVG Version: 6.00 Build 0)  -->
<svg version="1.1" id="Layer_1" xmlns="http://www.w3.org/2000/svg" xmlns:xlink="http://www.w3.org/1999/xlink" x="0px" y="0px"
	 viewBox="0 0 512.002 512.002" style="enable-background:new 0 0 512.002 512.002;" xml:space="preserve">
<circle style="fill:#FFEDB5;" cx="256.001" cy="256" r="256"/>
<path style="fill:#FEE187;" d="M509.749,289.99L347.678,127.919l-24.307,14.984l-67.37-67.372l-5.023,62.797l-78.945,8.095
	l101.181,100.85l-60.023-35.233l-65.696,0.155l77.176,77.176l-105.648,10.293l99.519,99.519l-63.802,16.598l96.154,96.154
	c1.7,0.033,3.401,0.065,5.108,0.065C385.861,512,493.124,415.304,509.749,289.99z"/>
<rect x="206.921" y="137.309" style="fill:#FF7F4F;" width="98.22" height="50.631"/>
<rect x="255.863" y="137.309" style="fill:#D35933;" width="49.274" height="50.631"/>
<rect x="192.665" y="216.885" style="fill:#FF7F4F;" width="126.673" height="50.631"/>
<rect x="255.863" y="216.885" style="fill:#D35933;" width="63.476" height="50.631"/>
<rect x="154.739" y="289.202" style="fill:#FF7F4F;" width="202.524" height="126.569"/>
<rect x="255.863" y="289.202" style="fill:#D35933;" width="101.405" height="126.569"/>
<path style="fill:#C92F00;" d="M305.132,186.671h-98.22c-17.127,8.376-39.708,11.095-69.461,1.458l0,0
	c0,18.706,15.165,33.871,33.871,33.871h169.356c18.706,0,33.871-15.165,33.871-33.871
	C344.798,197.766,322.259,195.048,305.132,186.671z"/>
<path style="fill:#930000;" d="M305.132,186.671h-49.274v35.33h84.821c18.706,0,33.871-15.165,33.871-33.871
	C344.798,197.766,322.259,195.048,305.132,186.671z"/>
<path style="fill:#C92F00;" d="M319.334,263.558H192.668c-22.166,10.84-51.588,14.358-90.095,1.886l0,0
	c0,24.211,19.627,43.835,43.837,43.837h219.183c24.211,0,43.837-19.627,43.837-43.837
	C370.922,277.918,341.5,274.399,319.334,263.558z"/>
<path style="fill:#930000;" d="M319.334,263.558h-63.476v45.723h109.734c24.211,0,43.837-19.627,43.837-43.837
	C370.922,277.918,341.5,274.399,319.334,263.558z"/>
<path style="fill:#C92F00;" d="M164.322,127.919c74.745,24.209,91.679-52.388,91.679-52.388s16.932,76.597,91.677,52.388l0,0
	c0,14.467-11.728,26.193-26.193,26.193H190.517C176.05,154.112,164.322,142.386,164.322,127.919L164.322,127.919z"/>
<path style="fill:#930000;" d="M256.001,75.531c0,0-0.048,0.214-0.143,0.595v77.986h65.627c14.467,0,26.193-11.728,26.193-26.193
	l0,0C272.935,152.128,256.001,75.531,256.001,75.531z"/>
<rect x="205.37" y="339.834" style="fill:#C92F00;" width="101.262" height="75.938"/>
<rect x="255.863" y="339.834" style="fill:#930000;" width="50.774" height="75.938"/>
<g>
</g>
<g>
</g>
<g>
</g>
<g>
</g>
<g>
</g>
<g>
</g>
<g>
</g>
<g>
</g>
<g>
</g>
<g>
</g>
<g>
</g>
<g>
</g>
<g>
</g>
<g>
</g>
<g>
</g>
</svg>
