<?xml version="1.0" encoding="iso-8859-1"?>
<!-- Generator: Adobe Illustrator 19.0.0, SVG Export Plug-In . SVG Version: 6.00 Build 0)  -->
<svg version="1.1" id="Layer_1" xmlns="http://www.w3.org/2000/svg" xmlns:xlink="http://www.w3.org/1999/xlink" x="0px" y="0px"
	 viewBox="0 0 512 512" style="enable-background:new 0 0 512 512;" xml:space="preserve">
<circle style="fill:#273B7A;" cx="256" cy="256" r="256"/>
<path style="fill:#121149;" d="M306.579,506.994c107.868-21.62,191.224-111.028,203.766-221.906L394.271,168.648l-11.102,8.801
	l-58.64-59.463L163.485,278.411l5.049,79.612l31.797,31.797l-6.509,4.417L306.579,506.994z"/>
<path style="fill:#D35933;" d="M205.55,231.31c-1.9,0-3.789-0.779-5.151-2.31c-2.532-2.844-2.279-7.204,0.564-9.735l114.079-101.574
	c2.844-2.532,7.204-2.281,9.735,0.564s2.279,7.204-0.564,9.735L210.134,229.564C208.82,230.734,207.182,231.31,205.55,231.31z"/>
<path style="fill:#FFFFFF;" d="M338.454,234.136c0-15.179-12.305-27.484-27.484-27.484c-1.61,0-3.179,0.167-4.713,0.433
	c-4.941-7.296-13.296-12.093-22.771-12.093c-0.865,0-1.717,0.052-2.562,0.129c-4.363-9.411-13.867-15.953-24.924-15.953
	c-11.057,0-20.561,6.542-24.924,15.953c-0.845-0.078-1.696-0.129-2.562-0.129c-9.476,0-17.83,4.796-22.771,12.093
	c-1.534-0.265-3.103-0.433-4.713-0.433c-15.179,0-27.484,12.305-27.484,27.484c-15.179,0-27.484,12.305-27.484,27.484
	c0,15.179,12.305,27.484,27.484,27.484c5.011,0,9.697-1.364,13.743-3.706c4.046,2.343,8.73,3.706,13.743,3.706
	c5.011,0,9.697-1.364,13.743-3.706c4.046,2.343,8.73,3.706,13.743,3.706c5.011,0,9.697-1.364,13.743-3.706
	c4.046,2.343,8.73,3.706,13.743,3.706c5.013,0,9.697-1.364,13.743-3.706c4.046,2.343,8.73,3.706,13.743,3.706
	c5.011,0,9.697-1.364,13.743-3.706c4.046,2.343,8.73,3.706,13.743,3.706c5.011,0,9.697-1.364,13.743-3.706
	c4.046,2.343,8.73,3.706,13.743,3.706c15.179,0,27.484-12.305,27.484-27.484C365.939,246.439,353.633,234.136,338.454,234.136z"/>
<path style="fill:#D0D1D3;" d="M338.454,234.134c0-15.179-12.305-27.484-27.484-27.484c-1.61,0-3.179,0.167-4.713,0.433
	c-4.941-7.296-13.296-12.091-22.771-12.091c-0.865,0-1.717,0.052-2.562,0.129c-4.363-9.411-13.867-15.953-24.924-15.953
	c-0.193,0-0.383,0.017-0.574,0.021v109.897c0.191,0.003,0.381,0.019,0.574,0.019c5.011,0,9.697-1.364,13.743-3.706
	c4.046,2.343,8.73,3.706,13.743,3.706s9.697-1.364,13.743-3.706c4.046,2.343,8.73,3.706,13.743,3.706
	c5.011,0,9.697-1.364,13.743-3.706c4.046,2.343,8.73,3.706,13.743,3.706c15.179,0,27.484-12.305,27.484-27.484
	C365.939,246.439,353.633,234.134,338.454,234.134z"/>
<rect x="193.819" y="362.399" style="fill:#EAA22F;" width="124.363" height="31.841"/>
<rect x="255.431" y="362.399" style="fill:#FF5419;" width="62.752" height="31.841"/>
<path style="fill:#B54324;" d="M192.917,288.403c-2.436,0-4.794-1.293-6.051-3.577c-1.833-3.337-0.614-7.528,2.724-9.364
	l196.525-107.985c3.341-1.836,7.53-0.61,9.364,2.724c1.833,3.337,0.614,7.528-2.724,9.364L196.23,287.549
	C195.179,288.128,194.039,288.403,192.917,288.403z"/>
<path style="fill:#FFC61B;" d="M292.647,375.613h-73.294c-45.454,0-82.303-36.848-82.303-82.303v-36.647h237.899v36.647
	C374.949,338.765,338.101,375.613,292.647,375.613z"/>
<path style="fill:#EAA22F;" d="M255.426,256.664v118.949h37.221c45.454,0,82.303-36.848,82.303-82.303v-36.647H255.426z"/>
<g>
</g>
<g>
</g>
<g>
</g>
<g>
</g>
<g>
</g>
<g>
</g>
<g>
</g>
<g>
</g>
<g>
</g>
<g>
</g>
<g>
</g>
<g>
</g>
<g>
</g>
<g>
</g>
<g>
</g>
</svg>
