<?xml version="1.0" encoding="iso-8859-1"?>
<!-- Generator: Adobe Illustrator 19.0.0, SVG Export Plug-In . SVG Version: 6.00 Build 0)  -->
<svg version="1.1" id="Layer_1" xmlns="http://www.w3.org/2000/svg" xmlns:xlink="http://www.w3.org/1999/xlink" x="0px" y="0px"
	 viewBox="0 0 512 512" style="enable-background:new 0 0 512 512;" xml:space="preserve">
<circle style="fill:#273B7A;" cx="256" cy="256" r="256"/>
<path style="fill:#121149;" d="M256,512c141.384,0,256-114.616,256-256c0-11.586-0.784-22.99-2.276-34.168l-79.996-82.653
	l-9.838,6.64l-4.032,1.414L266.83,174.607l12.783,12.691l-1.219,0.429l-71.813-71.813l-48.557,141.522l25.35,25.35l-83.818,58.546
	l24.871,24.871l-10.649,3.574L256,512z"/>
<rect x="113.778" y="312.889" style="fill:#B54324;" width="56.889" height="56.889"/>
<rect x="341.333" y="312.889" style="fill:#930000;" width="56.889" height="56.889"/>
<path style="fill:#D35933;" d="M269.843,175.844c-2.034,0-3.843-1.446-4.23-3.518c-0.438-2.338,1.105-4.591,3.444-5.027
	l156.819-29.312c2.339-0.44,4.589,1.105,5.027,3.444c0.438,2.338-1.105,4.591-3.444,5.027l-156.819,29.312
	C270.372,175.819,270.107,175.844,269.843,175.844z"/>
<rect x="296.374" y="272.998" style="fill:#EAA22F;" width="63.029" height="16.137"/>
<rect x="328.404" y="272.998" style="fill:#FF5419;" width="31.004" height="16.137"/>
<path style="fill:#B54324;" d="M278.726,189.312c-2.251,0-4.146-1.75-4.294-4.027c-0.157-2.376,1.643-4.427,4.017-4.584
	l147.935-9.709c2.322-0.183,4.427,1.641,4.582,4.017c0.157,2.376-1.643,4.427-4.017,4.584l-147.935,9.709
	C278.918,189.309,278.821,189.312,278.726,189.312z"/>
<path style="fill:#FFC61B;" d="M346.469,279.7H309.32c-23.038,0-41.715-18.677-41.715-41.715v-18.573h120.577v18.573
	C388.184,261.025,369.507,279.7,346.469,279.7z"/>
<path style="fill:#EAA22F;" d="M328.404,219.412V279.7h18.065c23.038,0,41.715-18.677,41.715-41.715v-18.573H328.404z"/>
<path style="fill:#FFFFFF;" d="M123.788,269.338c6.478-42.848,21.225-77.257,28.777-92.82c2.91-5.999,3.351-12.891,1.243-19.218
	l-11.388-34.166c-1.593-4.779,1.964-9.714,7.001-9.714h51.638c5.037,0,8.594,4.936,7.001,9.714l-11.388,34.166
	c-2.108,6.325-1.669,13.219,1.243,19.218c7.552,15.563,22.3,49.973,28.779,92.82c1.939,12.829-8.018,24.374-20.992,24.374h-60.919
	C131.806,293.712,121.849,282.167,123.788,269.338z"/>
<path style="fill:#D0D1D3;" d="M226.692,269.338c-6.478-42.848-21.226-77.257-28.779-92.82c-2.912-5.999-3.351-12.893-1.243-19.218
	l11.388-34.166c1.593-4.779-1.964-9.714-7.001-9.714H175.55V293.71h30.148C218.674,293.712,228.631,282.167,226.692,269.338z"/>
<rect x="99.556" y="284.444" style="fill:#D35933;" width="312.889" height="56.889"/>
<rect x="257.155" y="284.444" style="fill:#B54324;" width="155.289" height="56.889"/>
<g>
</g>
<g>
</g>
<g>
</g>
<g>
</g>
<g>
</g>
<g>
</g>
<g>
</g>
<g>
</g>
<g>
</g>
<g>
</g>
<g>
</g>
<g>
</g>
<g>
</g>
<g>
</g>
<g>
</g>
</svg>
