<?xml version="1.0" encoding="iso-8859-1"?>
<!-- Generator: Adobe Illustrator 19.0.0, SVG Export Plug-In . SVG Version: 6.00 Build 0)  -->
<svg version="1.1" id="Layer_1" xmlns="http://www.w3.org/2000/svg" xmlns:xlink="http://www.w3.org/1999/xlink" x="0px" y="0px"
	 viewBox="0 0 512 512" style="enable-background:new 0 0 512 512;" xml:space="preserve">
<circle style="fill:#273B7A;" cx="256" cy="256" r="256"/>
<path style="fill:#121149;" d="M437.019,437.019c27.839-27.839,47.916-60.499,60.251-95.289L272.856,117.317l-73.745,181.781
	l-47.783,88.574l123.623,123.623C334.015,506.939,391.856,482.183,437.019,437.019z"/>
<path style="fill:#FFFFFF;" d="M142.605,359.767c10.221-67.599,33.489-121.885,45.403-146.441c4.592-9.464,5.287-20.339,1.96-30.32
	l-17.968-53.903c-2.513-7.539,3.098-15.326,11.045-15.326h81.47c7.947,0,13.559,7.785,11.045,15.326l-17.968,53.903
	c-3.327,9.98-2.632,20.856,1.96,30.32c11.916,24.554,35.181,78.841,45.403,146.441c3.062,20.239-12.648,38.455-33.118,38.455
	h-96.113C155.253,398.222,139.545,380.006,142.605,359.767z"/>
<path style="fill:#D0D1D3;" d="M304.955,359.767c-10.221-67.599-33.489-121.885-45.402-146.441
	c-4.592-9.464-5.287-20.339-1.96-30.32l17.968-53.903c2.513-7.539-3.098-15.326-11.045-15.326h-40.119v284.444h47.44
	C292.305,398.222,308.015,380.006,304.955,359.767z"/>
<path style="fill:#FFC61B;" d="M339.389,398.222H299.73c-13.996,0-26.791-7.908-33.051-20.427l-18.23-36.462h142.222l-18.232,36.462
	C366.18,390.315,353.385,398.222,339.389,398.222z"/>
<path style="fill:#EAA22F;" d="M319.498,341.333v56.889h19.892c13.996,0,26.791-7.908,33.051-20.427l18.23-36.462H319.498z"/>
<g>
</g>
<g>
</g>
<g>
</g>
<g>
</g>
<g>
</g>
<g>
</g>
<g>
</g>
<g>
</g>
<g>
</g>
<g>
</g>
<g>
</g>
<g>
</g>
<g>
</g>
<g>
</g>
<g>
</g>
</svg>
