<?xml version="1.0" encoding="iso-8859-1"?>
<!-- Generator: Adobe Illustrator 19.0.0, SVG Export Plug-In . SVG Version: 6.00 Build 0)  -->
<svg version="1.1" id="Layer_1" xmlns="http://www.w3.org/2000/svg" xmlns:xlink="http://www.w3.org/1999/xlink" x="0px" y="0px"
	 viewBox="0 0 512 512" style="enable-background:new 0 0 512 512;" xml:space="preserve">
<circle style="fill:#FFC61B;" cx="256" cy="256" r="256"/>
<path style="fill:#EAA22F;" d="M512,256c0-7.184-0.31-14.291-0.891-21.325L390.091,113.657l-68.699,68.284l-0.026-0.026
	L164.511,338.77l-26.122,50.159l123.004,123.004C400.286,509.061,512,395.583,512,256z"/>
<path style="fill:#272525;" d="M416.415,158.996c-0.579,0-1.169-0.147-1.707-0.455l-43.613-24.921
	c-1.653-0.945-2.227-3.051-1.283-4.705c0.946-1.653,3.053-2.226,4.705-1.283l43.613,24.921c1.653,0.945,2.227,3.051,1.283,4.705
	C418.775,158.373,417.611,158.996,416.415,158.996z"/>
<path style="fill:#59595B;" d="M365.016,141.864c-0.883,0-1.764-0.336-2.438-1.01l-34.266-34.268c-1.346-1.346-1.346-3.529,0-4.875
	s3.529-1.346,4.875,0l34.266,34.268c1.346,1.346,1.346,3.529,0,4.875C366.782,141.527,365.899,141.864,365.016,141.864z"/>
<path style="fill:#272525;" d="M382.155,193.264c-1.231,0-2.422-0.66-3.044-1.822l-23.883-44.651
	c-0.898-1.679-0.264-3.768,1.414-4.667c1.683-0.896,3.768-0.265,4.667,1.414l23.883,44.651c0.898,1.679,0.264,3.768-1.414,4.667
	C383.259,193.133,382.704,193.264,382.155,193.264z"/>
<path style="fill:#FFFFFF;" d="M171.356,407.852c-30.815-19.701-56.073-44.959-75.774-75.774
	c19.701-30.815,44.959-56.073,75.774-75.774c30.815,19.701,56.073,44.959,75.774,75.774
	C227.43,362.891,202.171,388.149,171.356,407.852z"/>
<path style="fill:#D0D1D3;" d="M212.928,289.551l-83.973,84.225c12.721,12.772,26.852,24.135,42.401,34.076
	c30.815-19.701,56.073-44.959,75.774-75.774C237.158,316.475,225.752,302.304,212.928,289.551z"/>
<rect x="262.614" y="90.459" transform="matrix(-0.7071 -0.7071 0.7071 -0.7071 293.0145 590.5579)" style="fill:#D35933;" width="12.403" height="288.269"/>
<g>
	<polygon style="fill:#B54324;" points="166.495,336.124 171.287,340.916 375.132,137.071 370.035,131.974 	"/>
	<path style="fill:#B54324;" d="M340.259,163.488l-0.315-0.315c-6.794-6.794-6.794-17.808,0-24.6l25.231-25.231
		c6.794-6.794,17.808-6.794,24.6,0l0.315,0.315c6.794,6.794,6.794,17.808,0,24.6l-25.231,25.231
		C358.067,170.282,347.053,170.282,340.259,163.488z"/>
</g>
<path style="fill:#930000;" d="M390.091,113.657l-0.315-0.315c-0.197-0.197-0.409-0.369-0.612-0.553l-49.702,49.85
	c0.164,0.178,0.312,0.362,0.483,0.534l0.315,0.315c6.794,6.794,17.808,6.794,24.6,0l25.231-25.231
	C396.884,131.465,396.884,120.451,390.091,113.657z"/>
<path style="fill:#FF5419;" d="M169.76,357.81c-0.883,0-1.764-0.336-2.438-1.01l-20.687-20.687c-1.346-1.346-1.346-3.529,0-4.875
	c1.346-1.346,3.529-1.346,4.875,0l20.687,20.687c1.346,1.346,1.346,3.529,0,4.875C171.523,357.473,170.641,357.81,169.76,357.81z"/>
<path style="fill:#C92F00;" d="M161.452,341.18l-4.868,4.882l10.736,10.736c0.674,0.674,1.555,1.01,2.438,1.01
	s1.764-0.336,2.438-1.01c1.346-1.346,1.346-3.529,0-4.875L161.452,341.18z"/>
<rect x="116.835" y="359.433" transform="matrix(-0.7071 -0.7071 0.7071 -0.7071 -33.1471 725.6957)" style="fill:#59595B;" width="33.776" height="20.559"/>
<polygon style="fill:#272525;" points="126.099,376.641 138.388,388.929 152.926,374.391 140.616,362.081 "/>
<g>
</g>
<g>
</g>
<g>
</g>
<g>
</g>
<g>
</g>
<g>
</g>
<g>
</g>
<g>
</g>
<g>
</g>
<g>
</g>
<g>
</g>
<g>
</g>
<g>
</g>
<g>
</g>
<g>
</g>
</svg>
