<?xml version="1.0" encoding="iso-8859-1"?>
<!-- Generator: Adobe Illustrator 19.0.0, SVG Export Plug-In . SVG Version: 6.00 Build 0)  -->
<svg version="1.1" id="Layer_1" xmlns="http://www.w3.org/2000/svg" xmlns:xlink="http://www.w3.org/1999/xlink" x="0px" y="0px"
	 viewBox="0 0 512 512" style="enable-background:new 0 0 512 512;" xml:space="preserve">
<circle style="fill:#273B7A;" cx="256" cy="256" r="256"/>
<path style="fill:#121149;" d="M162.321,380.059l129.443,129.443c112.762-15.765,201.973-104.976,217.738-217.738L349.679,131.941
	l-22.711,98.916l-157.737-68.954l-36.49-3.662l105.913,105.913l-78.617,78.903L162.321,380.059z"/>
<path style="fill:#D0D1D3;" d="M304.761,287.935c-3.131-10.187,0.836-21.206,9.737-27.067c22.09-14.551,61.34-52.533,35.181-128.926
	c0,0-12.591,57.058-62.936,72.747c-10.419,3.248-21.651-1.131-27.415-10.397c-14.089-22.643-50.752-62.021-126.586-36.052
	c0,0,58.764,14.629,74.499,65.824c3.131,10.187-0.836,21.206-9.737,27.067c-22.09,14.551-61.34,52.533-35.181,128.926
	c0,0,12.591-57.058,62.938-72.747c10.419-3.248,21.651,1.131,27.415,10.397c14.088,22.642,50.75,62.019,126.585,36.052
	C379.259,353.759,320.495,339.13,304.761,287.935z M256,275.142c-10.573,0-19.142-8.571-19.142-19.142
	c0-10.573,8.571-19.142,19.142-19.142c10.573,0,19.142,8.57,19.142,19.142C275.142,266.573,266.573,275.142,256,275.142z"/>
<path style="fill:#A6A8AA;" d="M304.761,287.935c-3.131-10.187,0.836-21.206,9.737-27.067c22.09-14.551,61.34-52.533,35.181-128.926
	c0,0-12.591,57.058-62.936,72.747c-5.656,1.762-11.545,1.264-16.674-1.029l-10.183,33.594c8.711,1.795,15.26,9.506,15.26,18.747
	c0,10.573-8.57,19.142-19.142,19.142c-2.539,0-4.96-0.505-7.177-1.403l-10.13,33.414c5.656,1.605,10.702,5.287,13.981,10.555
	c14.088,22.642,50.75,62.019,126.585,36.052C379.259,353.759,320.495,339.13,304.761,287.935z"/>
<g>
</g>
<g>
</g>
<g>
</g>
<g>
</g>
<g>
</g>
<g>
</g>
<g>
</g>
<g>
</g>
<g>
</g>
<g>
</g>
<g>
</g>
<g>
</g>
<g>
</g>
<g>
</g>
<g>
</g>
</svg>
