<?xml version="1.0" encoding="iso-8859-1"?>
<!-- Generator: Adobe Illustrator 19.0.0, SVG Export Plug-In . SVG Version: 6.00 Build 0)  -->
<svg version="1.1" id="Layer_1" xmlns="http://www.w3.org/2000/svg" xmlns:xlink="http://www.w3.org/1999/xlink" x="0px" y="0px"
	 viewBox="0 0 512 512" style="enable-background:new 0 0 512 512;" xml:space="preserve">
<circle style="fill:#273B7A;" cx="256" cy="256" r="256"/>
<path style="fill:#121149;" d="M113.778,362.882l149.026,149.026c125.237-3.269,228.076-96.478,246.315-217.416L398.222,183.596
	l-14.439,19.601l-27.453-27.574L113.778,362.882z"/>
<rect x="113.778" y="187.906" style="fill:#FFC61B;" width="142.222" height="170.667"/>
<rect x="256" y="187.906" style="fill:#E5A70C;" width="142.222" height="170.667"/>
<g>
	<rect x="137.697" y="187.906" style="fill:#E09112;" width="15.515" height="170.667"/>
	<rect x="192.974" y="187.906" style="fill:#E09112;" width="15.515" height="170.667"/>
	<rect x="248.242" y="187.906" style="fill:#E09112;" width="15.515" height="170.667"/>
</g>
<rect x="256" y="187.906" style="fill:#FF5419;" width="7.758" height="170.667"/>
<rect x="248.242" y="187.906" style="fill:#E09112;" width="7.758" height="170.667"/>
<g>
	<rect x="303.511" y="187.906" style="fill:#FF5419;" width="15.515" height="170.667"/>
	<rect x="358.779" y="187.906" style="fill:#FF5419;" width="15.515" height="170.667"/>
</g>
<g>
	<rect x="113.778" y="262.465" style="fill:#FF761A;" width="284.444" height="28.444"/>
	<rect x="113.778" y="262.465" style="fill:#FF761A;" width="142.222" height="28.444"/>
</g>
<rect x="256" y="262.465" style="fill:#ED3B0A;" width="142.222" height="28.444"/>
<g>
	<rect x="113.778" y="183.596" style="fill:#FF761A;" width="284.444" height="13.791"/>
	<rect x="113.778" y="183.596" style="fill:#FF761A;" width="142.222" height="13.791"/>
</g>
<rect x="256" y="183.596" style="fill:#ED3B0A;" width="142.222" height="13.791"/>
<rect x="113.778" y="349.091" style="fill:#FF761A;" width="284.444" height="13.791"/>
<rect x="256" y="349.091" style="fill:#ED3B0A;" width="142.222" height="13.791"/>
<rect x="113.778" y="349.091" style="fill:#FF761A;" width="142.222" height="13.791"/>
<path style="fill:#FFFFFF;" d="M350.672,297.374h-79.013c-4.363,0-7.901-3.537-7.901-7.901v-108.32c0-4.363,3.537-7.901,7.901-7.901
	h79.013c4.363,0,7.901,3.537,7.901,7.901v108.32C358.572,293.836,355.035,297.374,350.672,297.374z"/>
<path style="fill:#D0D1D3;" d="M350.672,173.253h-39.507v124.121h39.507c4.363,0,7.901-3.537,7.901-7.901v-108.32
	C358.572,176.79,355.035,173.253,350.672,173.253z"/>
<g>
</g>
<g>
</g>
<g>
</g>
<g>
</g>
<g>
</g>
<g>
</g>
<g>
</g>
<g>
</g>
<g>
</g>
<g>
</g>
<g>
</g>
<g>
</g>
<g>
</g>
<g>
</g>
<g>
</g>
</svg>
