<?xml version="1.0" encoding="iso-8859-1"?>
<!-- Generator: Adobe Illustrator 19.0.0, SVG Export Plug-In . SVG Version: 6.00 Build 0)  -->
<svg version="1.1" id="Layer_1" xmlns="http://www.w3.org/2000/svg" xmlns:xlink="http://www.w3.org/1999/xlink" x="0px" y="0px"
	 viewBox="0 0 512 512" style="enable-background:new 0 0 512 512;" xml:space="preserve">
<circle style="fill:#273B7A;" cx="256" cy="256" r="256"/>
<path style="fill:#121149;" d="M509.8,289.62L386.729,166.548l-133.875,98.949l-0.877-0.877L98.875,360.888l151.035,151.035
	c2.024,0.047,4.053,0.078,6.087,0.078C385.988,512,493.337,415.115,509.8,289.62z"/>
<path style="fill:#71E2EF;" d="M392.227,179.8c1.3,14.034,5.451,29.782-7.985,38.447c-37.3,24.054-104.927,72.023-153.84,117.832
	c-70.909,66.412-134.425,43.93-140.133,6.056l-1.322-14.283"/>
<path style="fill:#38C6D9;" d="M392.227,179.8L256,246.303v66.982c44.868-38.231,97.113-74.962,128.241-95.037
	C397.679,209.582,393.526,193.834,392.227,179.8z"/>
<path style="fill:#FFFFFF;" d="M383.76,163.609c12.3,10.216,11.161,29.427-2.276,38.091
	c-37.3,24.054-105.003,69.928-153.914,115.736c-70.909,66.412-147.03,38.771-138.13,3.915s93.787-35.014,169.417-84.263
	c46.904-30.542,77.2-56.839,93.448-72.407C360.981,156.37,374.517,155.932,383.76,163.609L383.76,163.609z"/>
<path style="fill:#D0D1D3;" d="M383.76,163.609L383.76,163.609c-9.244-7.677-22.78-7.239-31.456,1.074
	c-16.248,15.57-46.544,41.867-93.448,72.408c-0.952,0.619-1.903,1.226-2.858,1.829v53.508
	c44.237-36.85,95.008-71.073,125.485-90.727C394.923,193.036,396.06,173.825,383.76,163.609z"/>
<path style="fill:#FF314F;" d="M374.553,180.707c4.927,2.277,5.361,7.528,5.361,7.528s-4.684,2.405-9.219-0.576
	c-0.643,5.391-5.499,7.423-5.499,7.423s-3.734-3.712-2.3-8.947c-5.325,1.053-8.759-2.936-8.759-2.936s2.374-4.705,7.796-4.958
	c-2.648-4.739,0.084-9.244,0.084-9.244s5.201,0.809,7.12,5.887c3.689-3.982,8.813-2.772,8.813-2.772S378.79,177.314,374.553,180.707
	z"/>
<circle style="fill:#FF6262;" cx="367.968" cy="181.096" r="2.989"/>
<g>
</g>
<g>
</g>
<g>
</g>
<g>
</g>
<g>
</g>
<g>
</g>
<g>
</g>
<g>
</g>
<g>
</g>
<g>
</g>
<g>
</g>
<g>
</g>
<g>
</g>
<g>
</g>
<g>
</g>
</svg>
