<?xml version="1.0" encoding="iso-8859-1"?>
<!-- Generator: Adobe Illustrator 19.0.0, SVG Export Plug-In . SVG Version: 6.00 Build 0)  -->
<svg version="1.1" id="Layer_1" xmlns="http://www.w3.org/2000/svg" xmlns:xlink="http://www.w3.org/1999/xlink" x="0px" y="0px"
	 viewBox="0 0 512 512" style="enable-background:new 0 0 512 512;" xml:space="preserve">
<circle style="fill:#FF314F;" cx="256" cy="256" r="256"/>
<path style="fill:#A30F44;" d="M149.156,394.917l117.631,116.839c134.182-5.565,241.698-114.395,245.129-249.116L349.534,100.259
	l-84.408,120.51l-47.354-30.22l-17.546-7.756l53.991,53.55l-50.4,77.409L149.156,394.917z"/>
<path style="fill:#FEE187;" d="M154.622,397.179c-1.477,0-2.972-0.421-4.293-1.3c-3.565-2.376-4.532-7.19-2.158-10.757
	l189.162-284.117c2.376-3.565,7.194-4.529,10.757-2.158c3.565,2.376,4.532,7.19,2.158,10.757L161.087,393.723
	C159.592,395.966,157.131,397.179,154.622,397.179z"/>
<path style="fill:#FFC61B;" d="M348.089,98.849c-0.005-0.003-0.01-0.005-0.016-0.009L149.892,395.521
	c0.15,0.117,0.276,0.252,0.436,0.359c1.322,0.879,2.815,1.3,4.293,1.3c2.508,0,4.97-1.214,6.465-3.458l189.162-284.115
	C352.621,106.039,351.656,101.224,348.089,98.849z"/>
<path style="fill:#FFFFFF;" d="M141.431,100.259l189.833,23.949l95.846,165.602c-54.6-1.429-112.495-22.354-166.927-58.471
	S163.969,150.009,141.431,100.259z"/>
<path style="fill:#DDDDDD;" d="M427.111,289.809l-95.847-165.602l-0.126-0.016l-71.382,106.86c0.143,0.095,0.283,0.191,0.426,0.286
	C314.616,267.455,372.512,288.38,427.111,289.809z"/>
<path style="fill:#FFAD9E;" d="M236.897,133.096c4.923,1.705,5.839,6.678,5.839,6.678s-4.243,2.743-8.861,0.329
	c-0.1,5.21-4.544,7.614-4.544,7.614s-3.92-3.188-3.051-8.325c-4.986,1.515-8.645-1.969-8.645-1.969s1.817-4.718,6.971-5.48
	c-2.981-4.274-0.802-8.837-0.802-8.837s5.046,0.276,7.361,4.942c3.143-4.155,8.151-3.487,8.151-3.487
	S240.621,129.452,236.897,133.096z"/>
<circle style="fill:#FF6262;" cx="230.59" cy="134.242" r="2.562"/>
<path style="fill:#FFAD9E;" d="M259.739,168.005c4.923,1.705,5.839,6.678,5.839,6.678s-4.243,2.743-8.861,0.329
	c-0.1,5.21-4.544,7.614-4.544,7.614s-3.92-3.188-3.051-8.325c-4.986,1.515-8.645-1.969-8.645-1.969s1.817-4.718,6.971-5.48
	c-2.981-4.274-0.802-8.837-0.802-8.837s5.046,0.276,7.361,4.942c3.143-4.155,8.151-3.487,8.151-3.487
	S263.463,164.361,259.739,168.005z"/>
<g>
	<circle style="fill:#FF6262;" cx="253.431" cy="169.15" r="2.562"/>
	<path style="fill:#FF6262;" d="M319.938,187.321c3.879,3.477,2.798,8.418,2.798,8.418s-4.973,0.888-8.295-3.125
		c-2.108,4.765-7.137,5.263-7.137,5.263s-2.379-4.456,0.41-8.857c-5.182-0.533-7.208-5.161-7.208-5.161s3.503-3.648,8.549-2.355
		c-1.095-5.094,2.681-8.459,2.681-8.459s4.544,2.207,4.873,7.406c4.506-2.615,8.866-0.062,8.866-0.062
		S324.78,185.401,319.938,187.321z"/>
</g>
<circle style="fill:#FF314F;" cx="313.303" cy="186.32" r="2.562"/>
<path style="fill:#FF6262;" d="M341.578,213.189c4.923,1.705,5.839,6.678,5.839,6.678s-4.243,2.743-8.861,0.329
	c-0.1,5.21-4.544,7.615-4.544,7.615s-3.92-3.188-3.051-8.325c-4.986,1.515-8.645-1.969-8.645-1.969s1.817-4.718,6.971-5.48
	c-2.981-4.274-0.802-8.837-0.802-8.837s5.046,0.276,7.361,4.942c3.143-4.155,8.151-3.487,8.151-3.487S345.3,209.544,341.578,213.189
	z"/>
<circle style="fill:#FF314F;" cx="335.282" cy="214.333" r="2.562"/>
<path style="fill:#FFAD9E;" d="M268.085,133.548c5.201-0.3,7.944,3.948,7.944,3.948s-2.877,4.155-8.066,3.682
	c1.893,4.855-1.298,8.771-1.298,8.771s-4.839-1.453-5.994-6.534c-4.03,3.301-8.742,1.476-8.742,1.476s-0.119-5.056,4.356-7.723
	c-4.386-2.813-4.11-7.863-4.11-7.863s4.77-1.669,8.69,1.764c1.321-5.039,6.206-6.332,6.206-6.332S270.138,128.759,268.085,133.548z"
	/>
<circle style="fill:#FF6262;" cx="262.913" cy="136.516" r="2.562"/>
<path style="fill:#FFAD9E;" d="M294.557,160.851c1.657,2.798,0.086,5.537,0.086,5.537s-3.127-0.405-4.353-3.419
	c-2.15,2.441-5.236,1.793-5.236,1.793s-0.581-3.1,1.905-5.196c-2.986-1.289-3.324-4.425-3.324-4.425s2.77-1.514,5.53,0.203
	c0.305-3.237,3.182-4.532,3.182-4.532s2.291,2.167,1.512,5.323c3.174-0.71,5.289,1.627,5.289,1.627S297.8,160.616,294.557,160.851z"
	/>
<g>
	<circle style="fill:#FF6262;" cx="291.099" cy="158.858" r="1.6"/>
	<path style="fill:#FF6262;" d="M356.75,245.915c2.922-1.321,5.437,0.515,5.437,0.515s-0.736,3.022-3.822,3.896
		c2.16,2.37,1.191,5.327,1.191,5.327s-3.101,0.234-4.887-2.431c-1.588,2.786-4.698,2.779-4.698,2.779s-1.184-2.879,0.798-5.399
		c-3.141-0.648-4.098-3.612-4.098-3.612s2.372-2.012,5.382-0.905c-0.353-3.188,2.169-5.008,2.169-5.008
		S356.873,242.71,356.75,245.915z"/>
</g>
<circle style="fill:#FF314F;" cx="354.418" cy="249.087" r="1.577"/>
<path style="fill:#FFAD9E;" d="M195.908,126.754c4.748-2.146,8.832,0.836,8.832,0.836s-1.196,4.91-6.208,6.33
	c3.508,3.851,1.934,8.652,1.934,8.652s-5.037,0.379-7.939-3.948c-2.579,4.527-7.632,4.513-7.632,4.513s-1.924-4.677,1.296-8.773
	c-5.103-1.055-6.656-5.866-6.656-5.866s3.853-3.269,8.744-1.47c-0.574-5.179,3.522-8.137,3.522-8.137
	S196.106,121.547,195.908,126.754z"/>
<circle style="fill:#FF6262;" cx="192.112" cy="131.913" r="2.562"/>
<path style="fill:#FFAD9E;" d="M219.198,161.437c2.598-1.174,4.832,0.457,4.832,0.457s-0.655,2.686-3.398,3.463
	c1.919,2.108,1.059,4.736,1.059,4.736s-2.757,0.207-4.344-2.16c-1.412,2.477-4.175,2.47-4.175,2.47s-1.053-2.558,0.71-4.799
	c-2.791-0.578-3.643-3.21-3.643-3.21s2.108-1.788,4.784-0.805c-0.314-2.834,1.927-4.453,1.927-4.453
	S219.307,158.589,219.198,161.437z"/>
<g>
	<circle style="fill:#FF6262;" cx="217.126" cy="164.254" r="1.402"/>
	<path style="fill:#FF6262;" d="M304.723,218.467c3.248-1.467,6.041,0.572,6.041,0.572s-0.817,3.358-4.246,4.329
		c2.4,2.634,1.322,5.918,1.322,5.918s-3.446,0.26-5.43-2.701c-1.764,3.096-5.22,3.088-5.22,3.088s-1.315-3.198,0.886-5.999
		c-3.489-0.721-4.553-4.012-4.553-4.012s2.636-2.236,5.98-1.007c-0.393-3.543,2.41-5.565,2.41-5.565
		S304.859,214.906,304.723,218.467z"/>
</g>
<circle style="fill:#FF314F;" cx="302.132" cy="222.005" r="1.751"/>
<g>
</g>
<g>
</g>
<g>
</g>
<g>
</g>
<g>
</g>
<g>
</g>
<g>
</g>
<g>
</g>
<g>
</g>
<g>
</g>
<g>
</g>
<g>
</g>
<g>
</g>
<g>
</g>
<g>
</g>
</svg>
