<?xml version="1.0" encoding="iso-8859-1"?>
<!-- Generator: Adobe Illustrator 19.0.0, SVG Export Plug-In . SVG Version: 6.00 Build 0)  -->
<svg version="1.1" id="Layer_1" xmlns="http://www.w3.org/2000/svg" xmlns:xlink="http://www.w3.org/1999/xlink" x="0px" y="0px"
	 viewBox="0 0 512 512" style="enable-background:new 0 0 512 512;" xml:space="preserve">
<circle style="fill:#FEE187;" cx="256" cy="256" r="256"/>
<path style="fill:#FFC61B;" d="M511.324,274.575L390.322,152.817l-10.93,11.086l-65.029-66.179l-84.795,73.23l-79.874,79.874
	l0.862,74.195l-84.544,8.337l178.9,178.386C248.591,511.903,252.283,512,256,512C391.137,512,501.808,407.286,511.324,274.575z"/>
<path style="fill:#D35933;" d="M183.968,223.011c-2.374,0-4.737-0.974-6.441-2.888c-3.165-3.556-2.85-9.006,0.705-12.171
	L302.511,97.297c3.556-3.167,9.004-2.848,12.171,0.705c3.165,3.556,2.85,9.006-0.705,12.171l-124.28,110.656
	C188.054,222.292,186.006,223.011,183.968,223.011z"/>
<path style="fill:#B54324;" d="M74.614,337.024h345.891c6.596,0,11.943-5.348,11.943-11.943v-3.696
	c0-6.596-5.348-11.943-11.943-11.943H74.614c-6.596,0-11.943,5.348-11.943,11.943v3.696
	C62.671,331.676,68.018,337.024,74.614,337.024z"/>
<path style="fill:#930000;" d="M420.505,309.441H240.342v27.582h180.164c6.596,0,11.943-5.348,11.943-11.943v-3.696
	C432.449,314.789,427.101,309.441,420.505,309.441z"/>
<path style="fill:#59595B;" d="M124.945,220.684v86.235c0,7.937,22.521,14.372,50.304,14.372s50.304-6.435,50.304-14.372v-86.235
	H124.945z"/>
<path style="fill:#272525;" d="M175.264,220.684v100.607c27.774-0.002,50.288-6.435,50.288-14.372v-86.235H175.264z"/>
<ellipse style="fill:#FFFFFF;" cx="175.252" cy="220.677" rx="50.304" ry="14.372"/>
<path style="fill:#D0D1D3;" d="M225.552,220.684c0-7.937-22.512-14.37-50.288-14.372v28.744
	C203.038,235.055,225.552,228.621,225.552,220.684z"/>
<path style="fill:#59595B;" d="M182.434,227.58h-14.372c-3.808,0-6.896-3.088-6.896-6.896c0-3.808,3.088-6.896,6.896-6.896h14.372
	c3.808,0,6.896,3.088,6.896,6.896C189.33,224.492,186.242,227.58,182.434,227.58z"/>
<path d="M182.434,213.788h-7.17v13.791h7.17c3.808,0,6.896-3.088,6.896-6.896C189.33,216.876,186.242,213.788,182.434,213.788z"/>
<path style="fill:#59595B;" d="M251.652,220.684v86.235c0,7.937,22.521,14.372,50.304,14.372c27.782,0,50.304-6.435,50.304-14.372
	v-86.235H251.652z"/>
<path style="fill:#272525;" d="M301.971,220.684v100.607c27.774-0.002,50.288-6.435,50.288-14.372v-86.235H301.971z"/>
<ellipse style="fill:#FFFFFF;" cx="301.959" cy="220.677" rx="50.304" ry="14.372"/>
<path style="fill:#D0D1D3;" d="M352.259,220.684c0-7.937-22.512-14.37-50.288-14.372v28.744
	C329.745,235.055,352.259,228.621,352.259,220.684z"/>
<path style="fill:#59595B;" d="M309.141,227.58h-14.372c-3.808,0-6.896-3.088-6.896-6.896c0-3.808,3.087-6.896,6.896-6.896h14.372
	c3.808,0,6.896,3.088,6.896,6.896C316.037,224.492,312.949,227.58,309.141,227.58z"/>
<path d="M309.141,213.788h-7.17v13.791h7.17c3.808,0,6.896-3.088,6.896-6.896C316.037,216.876,312.949,213.788,309.141,213.788z"/>
<path style="fill:#B54324;" d="M170.203,285.21c-3.044,0-5.994-1.615-7.563-4.47c-2.293-4.174-0.769-9.414,3.403-11.705
	l214.1-117.641c4.177-2.295,9.414-0.767,11.705,3.403c2.293,4.174,0.769,9.414-3.403,11.705L174.347,284.143
	C173.03,284.867,171.606,285.21,170.203,285.21z"/>
<g>
</g>
<g>
</g>
<g>
</g>
<g>
</g>
<g>
</g>
<g>
</g>
<g>
</g>
<g>
</g>
<g>
</g>
<g>
</g>
<g>
</g>
<g>
</g>
<g>
</g>
<g>
</g>
<g>
</g>
</svg>
