<?xml version="1.0" encoding="iso-8859-1"?>
<!-- Generator: Adobe Illustrator 19.0.0, SVG Export Plug-In . SVG Version: 6.00 Build 0)  -->
<svg version="1.1" id="Layer_1" xmlns="http://www.w3.org/2000/svg" xmlns:xlink="http://www.w3.org/1999/xlink" x="0px" y="0px"
	 viewBox="0 0 512 512" style="enable-background:new 0 0 512 512;" xml:space="preserve">
<circle style="fill:#273B7A;" cx="256" cy="256" r="256"/>
<path style="fill:#121149;" d="M512,256c0-1.6-0.031-3.191-0.06-4.784L408.821,148.097l-27.393,66.529v68.296l-52.984-52.984
	l-31.394,34.078l-83.403-83.685l-12.75,31.354l21.201,54.082l-76.755,54.979l29.562,29.165l-88.85,9.413l152.381,152.062
	c5.806,0.393,11.661,0.612,17.567,0.612C397.384,512,512,397.384,512,256z"/>
<path style="fill:#FFEDB5;" d="M351.31,148.097c3.593,0,3.593,2.875,7.185,2.875s3.593-2.875,7.185-2.875s3.593,2.875,7.187,2.875
	c3.594,0,3.594-2.875,7.189-2.875c3.593,0,3.593,2.875,7.184,2.875c3.594,0,3.594-2.875,7.19-2.875c3.598,0,3.598,2.875,7.196,2.875
	c3.598,0,3.598-2.875,7.196-2.875l-19.17,112.147h-19.17L351.31,148.097z"/>
<path style="fill:#FEE187;" d="M408.821,148.097c-3.598,0-3.598,2.875-7.196,2.875c-3.598,0-3.598-2.875-7.196-2.875
	c-3.594,0-3.594,2.875-7.19,2.875c-3.593,0-3.593-2.875-7.184-2.875c-0.191,0-0.336,0.038-0.509,0.053v112.094h10.102
	L408.821,148.097z"/>
<path style="fill:#6CAF5F;" d="M380.064,347.229L380.064,347.229c-6.551,0-11.862-5.311-11.862-11.862v-83.032h23.723v83.032
	C391.927,341.918,386.615,347.229,380.064,347.229z"/>
<path style="fill:#477F3C;" d="M379.547,252.337v94.867c0.172,0.007,0.343,0.026,0.517,0.026c6.551,0,11.862-5.311,11.862-11.862
	v-83.032h-12.379V252.337z"/>
<path style="fill:#FFFFFF;" d="M205.115,190.755c-24.393,0-46.366,19.12-61.838,33.251l-28.112-14.16l-19.091,15.42
	c0,0,16.4,19.825,24.231,48.462c10.592,38.726,37.971,72.694,84.809,72.694s84.809-32.546,84.809-72.694
	S251.954,190.755,205.115,190.755z"/>
<g>
	<path style="fill:#D0D1D3;" d="M205.115,190.754c-0.278,0-0.553,0.016-0.831,0.021v155.627c0.279,0.002,0.55,0.019,0.831,0.019
		c46.839,0,84.809-32.546,84.809-72.694C289.923,233.581,251.954,190.754,205.115,190.754z"/>
	<path style="fill:#D0D1D3;" d="M255.148,208.377c-11.028-8.47-24.078-14.496-38.247-16.694c0.209-0.89,0.329-1.812,0.329-2.765
		c0-6.69-5.423-12.116-12.116-12.116c-6.69,0-12.116,5.423-12.116,12.116c0,1.126,0.165,2.21,0.452,3.243
		c-11.466,2.717-22.197,9.057-31.722,16.215h93.418V208.377z"/>
</g>
<path style="fill:#A6A8AA;" d="M216.902,191.683c0.209-0.89,0.329-1.812,0.329-2.765c0-6.692-5.423-12.116-12.116-12.116
	c-0.281,0-0.555,0.024-0.831,0.041v31.532h50.864C244.121,199.908,231.071,193.881,216.902,191.683z"/>
<path style="fill:#8BC180;" d="M294.16,346.826h-30.53c-18.934,0-34.283-15.35-34.283-34.283V229.94h99.097v82.603
	C328.444,331.476,313.094,346.826,294.16,346.826z"/>
<path style="fill:#6CAF5F;" d="M280.135,229.938v116.888h14.024c18.934,0,34.283-15.35,34.283-34.283v-82.604L280.135,229.938
	L280.135,229.938z"/>
<path style="fill:#477F3C;" d="M306.935,276.48c0,0-6.603,19.349-22.088,25.922c-15.486,6.573-33.99-2.117-33.99-2.117
	s6.603-19.349,22.088-25.922C288.43,267.788,306.935,276.48,306.935,276.48z"/>
<path style="fill:#2E5E24;" d="M306.935,276.48c0,0-6.603,19.349-22.088,25.922c-15.486,6.573-33.99-2.117-33.99-2.117
	L306.935,276.48z"/>
<path style="fill:#FFEDB5;" d="M93.939,362.575h324.122c6.182,0,11.192-5.011,11.192-11.192v-3.463
	c0-6.182-5.011-11.192-11.192-11.192H93.939c-6.182,0-11.192,5.011-11.192,11.192v3.463
	C82.747,357.564,87.759,362.575,93.939,362.575z"/>
<path style="fill:#FEE187;" d="M418.061,336.729H255.426v25.847h162.635c6.182,0,11.192-5.01,11.192-11.192v-3.463
	C429.253,341.74,424.241,336.729,418.061,336.729z"/>
<g>
</g>
<g>
</g>
<g>
</g>
<g>
</g>
<g>
</g>
<g>
</g>
<g>
</g>
<g>
</g>
<g>
</g>
<g>
</g>
<g>
</g>
<g>
</g>
<g>
</g>
<g>
</g>
<g>
</g>
</svg>
