<?xml version="1.0" encoding="iso-8859-1"?>
<!-- Generator: Adobe Illustrator 19.0.0, SVG Export Plug-In . SVG Version: 6.00 Build 0)  -->
<svg version="1.1" id="Layer_1" xmlns="http://www.w3.org/2000/svg" xmlns:xlink="http://www.w3.org/1999/xlink" x="0px" y="0px"
	 viewBox="0 0 512 512" style="enable-background:new 0 0 512 512;" xml:space="preserve">
<circle style="fill:#FFEDB5;" cx="256" cy="256" r="256"/>
<path style="fill:#FEE187;" d="M512,256c0-3.281-0.083-6.542-0.205-9.794l-118.81-118.81l-116.243,28.672l-178.479-5.563
	l15.243,15.243l-15.243,3.532l66.796,66.796v44.149l-62.964,1.074l65.593,65.593l-23.393,77.074l86.826,86.826
	c8.187,0.79,16.484,1.207,24.878,1.207C397.384,512,512,397.384,512,256z"/>
<rect x="144.291" y="198.197" style="fill:#C92F00;" width="30.572" height="225.763"/>
<rect x="133.327" y="169.201" style="fill:#59595B;" width="52.521" height="35.275"/>
<rect x="337.127" y="198.197" style="fill:#930000;" width="30.572" height="225.763"/>
<rect x="326.163" y="169.201" style="fill:#272525;" width="52.521" height="35.275"/>
<rect x="133.327" y="259.344" style="fill:#59595B;" width="52.521" height="15.67"/>
<rect x="326.163" y="259.344" style="fill:#272525;" width="52.521" height="15.67"/>
<rect x="102.09" y="267.188" style="fill:#930000;" width="307.803" height="14.11"/>
<rect x="255.431" y="267.188" style="fill:#750000;" width="154.479" height="14.11"/>
<path style="fill:#C92F00;" d="M119.015,146.17c88.278,22.904,185.694,22.904,273.972,0l20.751,23.111
	c-101.65,26.374-213.825,26.374-315.475,0L119.015,146.17z"/>
<path style="fill:#930000;" d="M413.737,169.281l-20.752-23.111c-44.322,11.5-90.945,17.222-137.559,17.174v25.712
	C309.074,189.104,362.73,182.515,413.737,169.281z"/>
<path style="fill:#59595B;" d="M119.015,127.397c88.278,22.904,185.694,22.904,273.972,0l20.751,23.109
	c-101.65,26.374-213.825,26.374-315.475,0L119.015,127.397z"/>
<path style="fill:#272525;" d="M413.737,150.506l-20.752-23.109c-44.322,11.5-90.945,17.222-137.559,17.174v25.712
	C309.074,170.329,362.73,163.74,413.737,150.506z"/>
<g>
</g>
<g>
</g>
<g>
</g>
<g>
</g>
<g>
</g>
<g>
</g>
<g>
</g>
<g>
</g>
<g>
</g>
<g>
</g>
<g>
</g>
<g>
</g>
<g>
</g>
<g>
</g>
<g>
</g>
</svg>
