<?xml version="1.0" encoding="iso-8859-1"?>
<!-- Generator: Adobe Illustrator 19.0.0, SVG Export Plug-In . SVG Version: 6.00 Build 0)  -->
<svg version="1.1" id="Layer_1" xmlns="http://www.w3.org/2000/svg" xmlns:xlink="http://www.w3.org/1999/xlink" x="0px" y="0px"
	 viewBox="0 0 512 512" style="enable-background:new 0 0 512 512;" xml:space="preserve">
<circle style="fill:#273B7A;" cx="256" cy="256" r="256"/>
<path style="fill:#121149;" d="M499.831,334.158L357.807,192.134L251.69,267.779L120.206,391.382l120.072,120.123
	C245.479,511.821,250.718,512,256,512C370.124,512,466.791,437.315,499.831,334.158z"/>
<path style="fill:#FF7F4F;" d="M358.066,315.28C306,367.345,227.773,373.532,183.339,329.1s-38.245-122.661,13.821-174.726
	s98.211-26.171,142.645,18.263S410.131,263.215,358.066,315.28z"/>
<path style="fill:#D35933;" d="M339.802,172.637c-0.265-0.265-0.531-0.528-0.796-0.791L182.568,328.283
	c0.262,0.269,0.503,0.552,0.771,0.817C227.773,373.532,306,367.347,358.066,315.28C410.131,263.215,384.236,217.069,339.802,172.637
	z"/>
<path style="fill:#FFEDB5;" d="M250.385,358.515c6.461-21.68-2.301-50.354-24.204-72.256s-50.578-30.667-72.258-24.204
	c1.626,25.254,11.321,48.952,29.415,67.046C201.433,347.195,225.132,356.89,250.385,358.515z"/>
<path style="fill:#FEE187;" d="M225.364,285.487l-42.799,42.799c0.262,0.269,0.509,0.546,0.774,0.814
	c18.094,18.094,41.793,27.789,67.046,29.415c6.461-21.68-2.301-50.354-24.204-72.257
	C225.913,285.991,225.633,285.749,225.364,285.487z"/>
<path style="fill:#FFC61B;" d="M125.066,393.39c-1.764,0-3.531-0.674-4.875-2.02c-2.694-2.693-2.694-7.059,0-9.75l73.859-73.859
	c2.691-2.694,7.061-2.694,9.75,0c2.694,2.693,2.694,7.059,0,9.75l-73.859,73.859C128.596,392.718,126.829,393.39,125.066,393.39z"/>
<path style="fill:#EAA22F;" d="M203.409,307.441l-83.561,83.556c0.11,0.128,0.219,0.252,0.341,0.372
	c1.345,1.346,3.112,2.02,4.875,2.02c1.764,0,3.531-0.674,4.875-2.02l73.859-73.859c2.694-2.693,2.694-7.059,0-9.75
	C203.678,307.64,203.538,307.552,203.409,307.441z"/>
<g>
</g>
<g>
</g>
<g>
</g>
<g>
</g>
<g>
</g>
<g>
</g>
<g>
</g>
<g>
</g>
<g>
</g>
<g>
</g>
<g>
</g>
<g>
</g>
<g>
</g>
<g>
</g>
<g>
</g>
</svg>
