<?xml version="1.0" encoding="iso-8859-1"?>
<!-- Generator: Adobe Illustrator 19.0.0, SVG Export Plug-In . SVG Version: 6.00 Build 0)  -->
<svg version="1.1" id="Layer_1" xmlns="http://www.w3.org/2000/svg" xmlns:xlink="http://www.w3.org/1999/xlink" x="0px" y="0px"
	 viewBox="0 0 512 512" style="enable-background:new 0 0 512 512;" xml:space="preserve">
<circle style="fill:#FFEDB5;" cx="256" cy="256" r="256"/>
<path style="fill:#FEE187;" d="M510.976,278.823l-96.592-98.189l-124.102,52.846L64.315,273.57l55.977,55.232l-54.043,4.792
	l178.767,178.154c3.643,0.153,7.302,0.25,10.983,0.25C389.691,512,499.428,409.514,510.976,278.823z"/>
<path style="fill:#D35933;" d="M265.595,243.559c-2.838,0-5.494-1.762-6.499-4.589c-1.274-3.587,0.602-7.53,4.191-8.806
	l143.932-51.136c3.584-1.277,7.53,0.6,8.806,4.191c1.274,3.587-0.602,7.53-4.191,8.806L267.902,243.16
	C267.142,243.431,266.362,243.559,265.595,243.559z"/>
<path style="fill:#B54324;" d="M74.614,337.024h345.891c6.596,0,11.943-5.348,11.943-11.943v-3.696
	c0-6.596-5.348-11.943-11.943-11.943H74.614c-6.596,0-11.943,5.348-11.943,11.943v3.696
	C62.671,331.676,68.018,337.024,74.614,337.024z"/>
<path style="fill:#930000;" d="M420.505,309.441H247.668v27.582h172.837c6.596,0,11.943-5.348,11.943-11.943v-3.696
	C432.449,314.789,427.101,309.441,420.505,309.441z"/>
<path style="fill:#FFFFFF;" d="M80.744,260.282v26.846c0,17.448,14.145,31.592,31.592,31.592h32.759v-58.439H80.744z"/>
<path style="fill:#D0D1D3;" d="M145.096,260.282v58.439h32.621c17.448,0,31.592-14.145,31.592-31.592v-26.846H145.096z"/>
<g>
	<path style="fill:#E09112;" d="M217.922,275.715c-47.887-11.743-97.904-11.743-145.791,0c-4.396,1.077-8.847-1.546-10.042-5.911
		c-2.319-8.476-4.637-16.953-6.956-25.429c-1.243-4.541,1.512-9.2,6.084-10.331c55.044-13.612,112.58-13.612,167.622,0
		c4.57,1.131,7.325,5.789,6.084,10.331c-2.319,8.476-4.637,16.953-6.956,25.429C226.771,274.168,222.318,276.792,217.922,275.715z"
		/>
	<path style="fill:#E09112;" d="M61.216,234.043c-4.57,1.131-7.325,5.789-6.084,10.331c2.319,8.476,4.637,16.953,6.956,25.429
		c1.195,4.365,5.646,6.989,10.042,5.911c23.966-5.877,48.464-8.813,72.964-8.806v-43.074
		C116.929,223.828,88.76,227.231,61.216,234.043z"/>
</g>
<g>
	<path style="fill:#FF5419;" d="M228.838,234.043c-27.5-6.801-55.622-10.202-83.744-10.207v43.074
		c24.454,0.005,48.907,2.941,72.828,8.806c4.396,1.077,8.847-1.546,10.042-5.911c2.319-8.476,4.637-16.953,6.956-25.429
		C236.165,239.831,233.41,235.174,228.838,234.043z"/>
	<path style="fill:#FF5419;" d="M78.951,244.951c-0.641,9.059,3.301,23.873,4.529,28.215c4.251-0.872,8.518-1.655,12.795-2.345
		c-0.021-0.084-0.036-0.171-0.062-0.255c-1.365-4.637-4.806-18.115-4.339-24.7c0.455-6.425-1.343-12.988-2.989-17.48
		c-4.343,0.707-8.675,1.495-12.995,2.367C77.329,234.193,79.293,240.125,78.951,244.951z"/>
	<path style="fill:#FF5419;" d="M102.195,226.476c-0.921,4.751-1.622,10.561-0.784,14.941c0.428,2.232,1.189,4.867,2.07,7.918
		c1.664,5.756,4.179,14.457,3.208,18.36c-0.138,0.555-0.191,1.108-0.184,1.655c4.401-0.559,8.813-1.021,13.229-1.386
		c0.629-6.873-1.803-15.291-3.806-22.225c-0.76-2.629-1.477-5.113-1.793-6.758c-0.562-2.934,0.464-9.087,1.639-13.908
		C111.242,225.452,106.715,225.916,102.195,226.476z"/>
</g>
<path style="fill:#C92F00;" d="M182.818,225.89c-1.246,3.725-2.298,8.923-1.931,15.474c0.591,10.504-2.732,24.457-2.765,24.595
	c-0.224,0.929-0.231,1.86-0.06,2.743c4.07,0.441,8.133,0.964,12.188,1.569c0.191-0.402,0.357-0.819,0.465-1.269
	c0.155-0.645,3.805-15.929,3.108-28.363c-0.383-6.787,1.339-11.214,2.251-13.043C191.666,226.942,187.245,226.373,182.818,225.89z"
	/>
<path style="fill:#FF5419;" d="M208.987,229.748c0.143,3.365-0.016,13.712-2.522,18.453c-3.555,6.725-5.539,18.613-6.263,23.723
	c4.253,0.779,8.492,1.65,12.717,2.612c0.812-6.063,2.724-15.974,4.999-20.278c3.47-6.563,4.029-16.575,4.062-21.828
	C217.664,231.453,213.332,230.557,208.987,229.748z"/>
<rect x="130.672" y="221.194" style="fill:#59595B;" width="28.715" height="100.659"/>
<rect x="145.101" y="221.194" style="fill:#272525;" width="14.289" height="100.659"/>
<path style="fill:#FFFFFF;" d="M216.493,260.282v26.846c0,17.448,14.145,31.592,31.592,31.592h33.197v-58.439H216.493z"/>
<path style="fill:#D0D1D3;" d="M281.285,260.282v58.439h32.184c17.448,0,31.592-14.145,31.592-31.592v-26.846H281.285z"/>
<path style="fill:#E09112;" d="M353.673,275.715c-47.887-11.743-97.904-11.743-145.791,0c-4.396,1.077-8.847-1.546-10.042-5.911
	c-2.319-8.476-4.637-16.953-6.956-25.429c-1.243-4.541,1.512-9.2,6.084-10.331c55.044-13.612,112.58-13.612,167.622,0
	c4.57,1.131,7.325,5.789,6.084,10.331c-2.319,8.476-4.637,16.953-6.956,25.429C362.52,274.168,358.067,276.792,353.673,275.715z"/>
<path style="fill:#FF5419;" d="M364.589,234.043c-27.357-6.765-55.329-10.161-83.304-10.2v43.074
	c24.307,0.04,48.611,2.969,72.389,8.801c4.396,1.077,8.847-1.546,10.042-5.911c2.319-8.476,4.637-16.953,6.956-25.429
	C371.914,239.831,369.159,235.174,364.589,234.043z"/>
<path style="fill:#E09112;" d="M196.965,234.043c-4.57,1.131-7.325,5.789-6.084,10.331c2.319,8.476,4.637,16.953,6.956,25.429
	c1.195,4.365,5.646,6.989,10.042,5.911c24.109-5.913,48.757-8.84,73.404-8.801v-43.074
	C252.971,223.801,224.652,227.195,196.965,234.043z"/>
<g>
	<path style="fill:#FF5419;" d="M214.7,244.951c-0.641,9.059,3.301,23.873,4.529,28.215c4.251-0.872,8.518-1.655,12.795-2.345
		c-0.021-0.084-0.036-0.171-0.062-0.255c-1.365-4.637-4.806-18.115-4.339-24.7c0.455-6.425-1.343-12.988-2.989-17.48
		c-4.343,0.707-8.675,1.495-12.995,2.367C213.078,234.193,215.042,240.125,214.7,244.951z"/>
	<path style="fill:#FF5419;" d="M237.944,226.476c-0.921,4.751-1.622,10.561-0.784,14.941c0.428,2.232,1.189,4.867,2.07,7.918
		c1.664,5.756,4.179,14.457,3.208,18.36c-0.138,0.555-0.191,1.108-0.184,1.655c4.401-0.559,8.813-1.021,13.229-1.386
		c0.629-6.873-1.803-15.291-3.806-22.225c-0.76-2.629-1.477-5.113-1.793-6.758c-0.562-2.934,0.464-9.087,1.639-13.908
		C246.991,225.452,242.464,225.916,237.944,226.476z"/>
</g>
<g>
	<path style="fill:#C92F00;" d="M318.569,225.89c-1.246,3.725-2.298,8.923-1.931,15.474c0.591,10.504-2.732,24.457-2.765,24.595
		c-0.224,0.929-0.231,1.86-0.06,2.743c4.07,0.441,8.133,0.964,12.188,1.569c0.191-0.402,0.357-0.819,0.465-1.269
		c0.155-0.645,3.805-15.929,3.108-28.363c-0.383-6.787,1.339-11.214,2.251-13.043C327.414,226.942,322.996,226.373,318.569,225.89z"
		/>
	<path style="fill:#C92F00;" d="M344.738,229.748c0.143,3.365-0.016,13.712-2.522,18.453c-3.555,6.725-5.539,18.613-6.263,23.723
		c4.253,0.779,8.492,1.65,12.717,2.612c0.812-6.063,2.724-15.974,4.999-20.278c3.47-6.563,4.029-16.575,4.062-21.828
		C353.413,231.453,349.081,230.557,344.738,229.748z"/>
</g>
<rect x="266.412" y="221.194" style="fill:#59595B;" width="28.715" height="100.659"/>
<rect x="281.29" y="221.194" style="fill:#272525;" width="13.843" height="100.659"/>
<path style="fill:#B54324;" d="M232.381,291.34c-3.451,0-6.43-2.584-6.84-6.096c-0.443-3.78,2.265-7.208,6.049-7.649l222.722-26.029
	c3.763-0.457,7.208,2.263,7.649,6.049c0.443,3.78-2.265,7.208-6.049,7.649l-222.722,26.029
	C232.917,291.325,232.648,291.34,232.381,291.34z"/>
<g>
</g>
<g>
</g>
<g>
</g>
<g>
</g>
<g>
</g>
<g>
</g>
<g>
</g>
<g>
</g>
<g>
</g>
<g>
</g>
<g>
</g>
<g>
</g>
<g>
</g>
<g>
</g>
<g>
</g>
</svg>
