<?xml version="1.0" encoding="iso-8859-1"?>
<!-- Generator: Adobe Illustrator 19.0.0, SVG Export Plug-In . SVG Version: 6.00 Build 0)  -->
<svg version="1.1" id="Layer_1" xmlns="http://www.w3.org/2000/svg" xmlns:xlink="http://www.w3.org/1999/xlink" x="0px" y="0px"
	 viewBox="0 0 512 512" style="enable-background:new 0 0 512 512;" xml:space="preserve">
<circle style="fill:#273B7A;" cx="256" cy="256" r="256"/>
<path style="fill:#121149;" d="M217.859,416.108l90.521,90.521c94.704-19.692,170.215-91.705,194.967-184.451L260.801,80.629
	l-0.643,85.304l-49.014,12.593l48.59,48.59l-0.445,64.136L217.859,416.108z"/>
<path style="fill:#FEE187;" d="M256,321.293c-3.808,0-6.896-3.087-6.896-6.896V85.549c0-3.808,3.088-6.896,6.896-6.896
	c3.808,0,6.896,3.088,6.896,6.896v228.848C262.896,318.205,259.808,321.293,256,321.293z"/>
<path style="fill:#FFC61B;" d="M256,78.653c-0.197,0-0.381,0.041-0.574,0.059v242.524c0.193,0.017,0.378,0.059,0.574,0.059
	c3.808,0,6.896-3.087,6.896-6.896V85.549C262.896,81.741,259.808,78.653,256,78.653z"/>
<rect x="217.85" y="212.678" style="fill:#FFFFFF;" width="76.283" height="203.421"/>
<rect x="255.431" y="212.678" style="fill:#D0D1D3;" width="38.715" height="203.421"/>
<path style="fill:#E09112;" d="M306.855,156.438c0-21.064-22.769-45.461-50.855-45.461s-50.855,24.397-50.855,45.461
	c0,6.501,2.174,14.346,5.999,22.088h89.714C304.681,170.786,306.855,162.94,306.855,156.438z"/>
<path style="fill:#FF5419;" d="M306.855,156.438c0-21.064-22.769-45.461-50.855-45.461c-0.193,0-0.383,0.014-0.574,0.016v67.534
	h45.43C304.681,170.786,306.855,162.94,306.855,156.438z"/>
<path style="fill:#FFAD9E;" d="M261.91,370.105c7.459-3.194,13.726,1.574,13.726,1.574s-2.014,7.608-9.862,9.664
	c5.344,6.106,2.744,13.534,2.744,13.534s-7.856,0.436-12.238-6.394c-4.156,6.97-12.023,6.792-12.023,6.792
	s-2.851-7.342,2.289-13.619c-7.913-1.8-10.185-9.34-10.185-9.34s6.101-4.97,13.66-2.02c-0.734-8.082,5.735-12.56,5.735-12.56
	S262.38,362.005,261.91,370.105z"/>
<path style="fill:#FF6262;" d="M275.637,371.681c0,0-6.268-4.77-13.726-1.574c0.469-8.101-6.151-12.369-6.151-12.369
	s-0.128,0.091-0.334,0.255v31.76c0.298-0.395,0.584-0.814,0.855-1.267c4.382,6.828,12.238,6.394,12.238,6.394
	s2.6-7.428-2.744-13.534C273.624,379.287,275.637,371.681,275.637,371.681z"/>
<circle style="fill:#FF314F;" cx="255.759" cy="377.811" r="4.468"/>
<path style="fill:#A30F44;" d="M259.331,375.13c-0.95-1.264-2.439-1.87-3.906-1.762v8.885c1.043,0.079,2.117-0.188,3.019-0.865
	C260.418,379.906,260.815,377.104,259.331,375.13z"/>
<path style="fill:#FF6262;" d="M276.606,304.968c4.987-3.784,10.569-1.383,10.569-1.383s-0.088,6.07-5.579,9.075
	c5.139,3.574,4.58,9.619,4.58,9.619s-5.799,1.793-10.355-2.501c-1.81,5.992-7.732,7.328-7.732,7.328s-3.505-4.963-0.827-10.623
	c-6.259,0.129-9.366-5.091-9.366-5.091s3.639-4.858,9.849-4.062c-2.057-5.913,1.95-10.473,1.95-10.473
	S275.446,298.817,276.606,304.968z"/>
<circle style="fill:#A30F44;" cx="273.446" cy="311.889" r="3.448"/>
<path style="fill:#FFAD9E;" d="M245.66,257.046c1.882,4.043-0.629,7.568-0.629,7.568s-4.213-0.976-5.479-5.253
	c-3.263,3.041-7.389,1.739-7.389,1.739s-0.374-4.308,3.303-6.834c-3.899-2.164-3.937-6.489-3.937-6.489s3.984-1.693,7.521,1.024
	c0.853-4.377,4.956-5.756,4.956-5.756s2.834,3.267,1.345,7.47c4.427-0.541,6.999,2.936,6.999,2.936S250.118,257.165,245.66,257.046z
	"/>
<circle style="fill:#FF314F;" cx="241.312" cy="253.793" r="2.457"/>
<g>
</g>
<g>
</g>
<g>
</g>
<g>
</g>
<g>
</g>
<g>
</g>
<g>
</g>
<g>
</g>
<g>
</g>
<g>
</g>
<g>
</g>
<g>
</g>
<g>
</g>
<g>
</g>
<g>
</g>
</svg>
