<?xml version="1.0" encoding="iso-8859-1"?>
<!-- Generator: Adobe Illustrator 19.0.0, SVG Export Plug-In . SVG Version: 6.00 Build 0)  -->
<svg version="1.1" id="Layer_1" xmlns="http://www.w3.org/2000/svg" xmlns:xlink="http://www.w3.org/1999/xlink" x="0px" y="0px"
	 viewBox="0 0 512 512" style="enable-background:new 0 0 512 512;" xml:space="preserve">
<circle style="fill:#273B7A;" cx="256" cy="256" r="256"/>
<path style="fill:#121149;" d="M497.047,342.371L347.422,192.748H299.96l-27.87,3.205h-56.315l-43.956,139.921l163.562,163.562
	C410.565,474.933,470.452,416.584,497.047,342.371z"/>
<circle style="fill:#FFC61B;" cx="252.845" cy="256" r="113.778"/>
<path style="fill:#EAA22F;" d="M252.84,142.222c-0.193,0-0.381,0.014-0.574,0.014v227.526c0.193,0.002,0.381,0.014,0.574,0.014
	c62.838,0,113.778-50.94,113.778-113.778S315.676,142.222,252.84,142.222z"/>
<circle style="fill:#E09112;" cx="252.845" cy="256" r="85.333"/>
<path style="fill:#FF5419;" d="M252.84,170.667c-0.193,0-0.381,0.014-0.574,0.014v170.637c0.193,0.002,0.381,0.014,0.574,0.014
	c47.128,0,85.333-38.205,85.333-85.333S299.968,170.667,252.84,170.667z"/>
<rect x="227.849" y="231.003" style="fill:#121149;" width="49.993" height="49.993"/>
<circle style="fill:#FFC61B;" cx="197.249" cy="256" r="18.532"/>
<circle style="fill:#EAA22F;" cx="308.441" cy="256" r="18.532"/>
<g>
	<circle style="fill:#FFC61B;" cx="252.845" cy="200.404" r="18.532"/>
	<circle style="fill:#FFC61B;" cx="252.845" cy="311.596" r="18.532"/>
</g>
<g>
	<path style="fill:#EAA22F;" d="M252.84,181.872c-0.193,0-0.381,0.022-0.574,0.029v37.005c0.193,0.005,0.381,0.029,0.574,0.029
		c10.235,0,18.532-8.297,18.532-18.532S263.075,181.872,252.84,181.872z"/>
	<path style="fill:#EAA22F;" d="M252.84,293.064c-0.193,0-0.381,0.022-0.574,0.029v37.005c0.193,0.005,0.381,0.029,0.574,0.029
		c10.235,0,18.532-8.297,18.532-18.532C271.372,301.361,263.075,293.064,252.84,293.064z"/>
</g>
<g>
</g>
<g>
</g>
<g>
</g>
<g>
</g>
<g>
</g>
<g>
</g>
<g>
</g>
<g>
</g>
<g>
</g>
<g>
</g>
<g>
</g>
<g>
</g>
<g>
</g>
<g>
</g>
<g>
</g>
</svg>
