<?xml version="1.0" encoding="iso-8859-1"?>
<!-- Generator: Adobe Illustrator 19.0.0, SVG Export Plug-In . SVG Version: 6.00 Build 0)  -->
<svg version="1.1" id="Layer_1" xmlns="http://www.w3.org/2000/svg" xmlns:xlink="http://www.w3.org/1999/xlink" x="0px" y="0px"
	 viewBox="0 0 512 512" style="enable-background:new 0 0 512 512;" xml:space="preserve">
<circle style="fill:#FF5419;" cx="256" cy="256" r="256"/>
<path style="fill:#C92F00;" d="M503.837,320.357L364.472,180.991L256,268.067l-99.068,74.973l161.321,161.321
	C408.919,481.708,480.439,410.724,503.837,320.357z"/>
<circle style="fill:#FFFFFF;" cx="256" cy="256" r="131.879"/>
<path style="fill:#D0D1D3;" d="M387.879,256c0-72.835-59.044-131.879-131.879-131.879v263.758
	C328.835,387.879,387.879,328.835,387.879,256z"/>
<g>
	<path style="fill:#59595B;" d="M256,124.121c36.418,0,65.939,29.522,65.939,65.939S292.418,256,256,256
		s-65.939,29.522-65.939,65.939s29.522,65.939,65.939,65.939c-72.835,0-131.879-59.044-131.879-131.879S183.165,124.121,256,124.121
		z"/>
	<path style="fill:#59595B;" d="M252.606,387.793c1.124,0.057,2.257,0.086,3.394,0.086
		C254.862,387.879,253.736,387.822,252.606,387.793z"/>
</g>
<path style="fill:#272525;" d="M321.939,190.061c0-36.418-29.522-65.939-65.939-65.939V256
	C292.418,256,321.939,226.478,321.939,190.061z"/>
<circle style="fill:#FFFFFF;" cx="256" cy="190.061" r="13.188"/>
<path style="fill:#D0D1D3;" d="M269.188,190.061c0-7.284-5.904-13.188-13.188-13.188v26.376
	C263.284,203.248,269.188,197.344,269.188,190.061z"/>
<circle style="fill:#59595B;" cx="256" cy="321.939" r="13.188"/>
<path style="fill:#272525;" d="M269.188,321.939c0-7.284-5.904-13.188-13.188-13.188v26.376
	C263.284,335.127,269.188,329.223,269.188,321.939z"/>
<g>
</g>
<g>
</g>
<g>
</g>
<g>
</g>
<g>
</g>
<g>
</g>
<g>
</g>
<g>
</g>
<g>
</g>
<g>
</g>
<g>
</g>
<g>
</g>
<g>
</g>
<g>
</g>
<g>
</g>
</svg>
